<?xml version="1.0" standalone="no"?>
<!DOCTYPE svg PUBLIC "-//W3C//DTD SVG 20010904//EN"
 "http://www.w3.org/TR/2001/REC-SVG-20010904/DTD/svg10.dtd">
<svg version="1.0" xmlns="http://www.w3.org/2000/svg"
 width="417.000000pt" height="626.000000pt" viewBox="0 0 417.000000 626.000000"
 preserveAspectRatio="xMidYMid meet">

<g transform="translate(0.000000,626.000000) scale(0.100000,-0.100000)"
fill="#000000" stroke="none">
<path d="M0 4226 c0 -1618 3 -2036 13 -2040 9 -5 9 -7 -1 -12 -15 -7 -16 -24
0 -24 6 0 19 -6 27 -13 9 -7 35 -19 59 -27 23 -7 42 -17 42 -22 0 -5 5 -6 10
-3 5 3 10 1 10 -6 0 -18 16 1 25 28 5 19 -1 27 -40 50 -73 45 -50 85 58 99 40
6 50 3 76 -19 27 -22 42 -26 143 -32 152 -9 571 -17 739 -15 128 2 139 0 186
-23 34 -18 54 -36 63 -57 8 -19 28 -39 50 -50 71 -36 96 -93 68 -155 -9 -21
-8 -35 6 -76 24 -66 16 -91 -42 -131 -56 -38 -71 -56 -72 -84 0 -31 -17 -41
-89 -48 -35 -3 -70 -11 -77 -17 -7 -6 -28 -13 -46 -15 -55 -7 -212 -35 -230
-40 -10 -3 -18 -12 -18 -19 0 -19 -73 -33 -179 -35 -19 0 -22 -4 -18 -22 5
-18 4 -19 -8 -7 -11 12 -12 26 -1 87 7 41 18 77 25 82 17 10 78 -4 100 -24 24
-22 30 -20 66 14 19 18 64 42 111 59 113 40 194 82 217 113 12 15 18 30 16 33
-5 4 -72 -10 -190 -40 -30 -8 -73 -15 -95 -15 -21 0 -73 -10 -114 -21 -42 -12
-126 -24 -191 -28 -99 -6 -122 -11 -163 -34 -31 -17 -70 -29 -110 -32 -42 -4
-67 -12 -81 -26 l-20 -20 25 -21 c23 -19 33 -20 123 -14 106 8 127 1 127 -38
0 -12 -18 -37 -39 -58 -38 -35 -62 -75 -76 -128 -4 -14 -14 -32 -21 -41 -13
-14 -12 -18 1 -29 15 -13 145 -21 145 -9 0 4 9 9 20 12 27 7 35 -25 27 -108
-4 -37 -2 -66 4 -72 8 -8 -5 -27 -39 -63 l-50 -52 -4 -82 c-3 -44 -2 -85 2
-89 4 -4 37 4 74 19 44 18 62 30 54 36 -10 6 -10 10 2 18 8 5 22 10 31 10 13
0 780 58 1324 101 1036 80 1066 82 1116 76 54 -6 141 -36 154 -54 11 -14 59
-43 116 -69 20 -9 42 -27 48 -41 10 -22 8 -25 -21 -37 -40 -17 -183 -40 -378
-61 -80 -8 -271 -31 -425 -51 -154 -19 -334 -41 -400 -50 -66 -8 -143 -19
-172 -25 -48 -9 -51 -12 -40 -29 6 -11 24 -25 40 -31 29 -12 52 -43 43 -58 -3
-5 -27 -14 -53 -21 -34 -8 -44 -14 -33 -20 31 -16 317 -96 660 -184 170 -43
283 -75 435 -121 180 -55 447 -84 472 -52 6 6 13 35 16 63 7 60 69 279 127
449 22 66 47 140 54 165 8 25 21 63 29 85 15 40 63 188 139 430 22 72 47 147
55 167 9 21 16 45 17 55 1 10 9 32 17 48 21 39 52 163 45 181 -3 8 0 14 7 14
7 0 20 22 30 49 16 45 17 134 17 1233 l0 1184 -79 12 c-166 26 -231 60 -231
121 0 32 47 81 78 81 9 0 65 17 124 37 l108 36 0 864 0 863 -2085 0 -2085 0 0
-2034z m2470 922 c0 -6 -6 -5 -15 2 -8 7 -15 14 -15 16 0 2 7 1 15 -2 8 -4 15
-11 15 -16z m86 -40 c3 -11 11 -15 21 -11 11 4 14 3 9 -5 -4 -8 2 -16 16 -21
13 -6 19 -10 13 -11 -5 0 4 -7 20 -14 17 -7 53 -34 82 -60 40 -36 57 -61 78
-116 46 -121 55 -170 59 -310 1 -74 1 -128 -1 -119 -5 22 -111 62 -149 57 -32
-4 -75 -25 -86 -42 -20 -30 -19 -106 2 -175 25 -80 52 -108 95 -97 29 7 68 43
61 54 -3 5 4 13 15 20 18 12 19 9 19 -60 0 -79 -31 -285 -50 -333 -21 -56 -42
-95 -50 -95 -4 0 -13 13 -18 29 -8 23 -15 28 -31 24 -12 -3 -21 -10 -21 -15 0
-19 -31 15 -45 49 -9 21 -19 31 -28 27 -25 -9 -28 26 -5 57 12 16 27 29 32 29
6 0 -2 11 -18 24 -30 23 -30 24 -19 81 6 33 7 69 2 84 -46 146 -49 184 -19
233 11 18 20 42 20 54 0 30 -29 84 -46 84 -8 0 -14 4 -14 8 0 5 -46 16 -102
26 -57 10 -115 20 -130 23 -22 3 -28 10 -28 29 0 13 9 29 19 36 16 10 18 15 8
27 -10 11 -9 13 3 9 8 -2 20 1 27 8 7 7 22 10 33 7 15 -4 20 0 20 16 0 11 3
21 8 21 4 0 8 19 10 43 1 30 -1 38 -8 27 -8 -13 -10 -13 -10 1 0 9 -7 19 -15
23 -8 3 -15 12 -15 19 0 8 -11 22 -24 33 -14 10 -23 21 -20 26 3 4 -1 8 -8 8
-8 0 -20 21 -28 47 -13 46 -13 47 13 67 34 25 147 55 193 51 26 -3 38 2 51 19
20 26 51 29 59 4z m-1761 -113 c39 -9 106 -17 150 -20 191 -10 313 -31 294
-50 -3 -2 -73 -7 -157 -11 -143 -7 -151 -8 -154 -28 -2 -11 -11 -22 -20 -24
-14 -3 -18 3 -18 27 0 26 -4 31 -25 31 -29 0 -45 -26 -45 -74 0 -46 -16 -86
-34 -86 -20 0 -30 36 -27 98 2 45 0 52 -17 52 -10 0 -27 9 -36 19 -23 26 -39
18 -55 -24 -13 -38 -27 -43 -55 -22 -14 10 -17 24 -15 59 4 49 -6 53 -44 15
-12 -12 -24 -16 -35 -11 -9 5 -39 9 -67 11 -62 4 -143 18 -151 26 -4 3 -4 14
0 23 6 15 27 16 224 10 135 -3 243 -12 287 -21z m544 -64 c7 -5 10 -14 7 -20
-10 -16 -56 -14 -56 2 0 26 23 35 49 18z m972 -524 c-5 -5 -18 -7 -28 -3 -14
6 -15 9 -4 16 19 11 46 1 32 -13z m534 -14 c0 -4 -6 -31 -14 -60 -13 -47 -15
-50 -25 -31 -6 12 -25 26 -43 32 -43 15 -52 26 -21 26 14 0 37 -9 52 -21 20
-16 25 -17 20 -4 -4 9 -24 25 -45 36 -22 11 -39 23 -39 27 0 4 26 6 58 5 31
-1 57 -5 57 -10z m-93 -134 c-15 -6 -30 -5 -40 1 -13 7 -8 9 23 9 35 0 37 -1
17 -10z m885 -29 c31 -19 53 -63 38 -78 -11 -12 -217 -7 -262 6 -35 11 -41 16
-39 37 5 48 21 55 130 55 83 0 107 -4 133 -20z m-1338 1 c12 -1 8 -102 -5
-122 -5 -8 -9 -23 -9 -34 0 -27 -41 -32 -82 -9 -41 21 -85 97 -77 129 5 20 15
25 57 32 44 7 84 8 116 4z m914 -63 c9 -15 15 -55 15 -116 1 -82 -1 -94 -20
-112 -28 -26 -72 -26 -98 0 -23 23 -28 98 -8 118 9 9 9 18 -1 39 -10 22 -10
25 0 16 9 -9 16 -4 31 27 17 34 29 44 60 49 4 0 14 -9 21 -21z m169 -75 c33
-51 88 -218 88 -269 0 -22 -5 -45 -12 -52 -16 -16 -57 -15 -92 3 -15 8 -34 15
-40 15 -7 0 -25 13 -40 29 -36 37 -43 108 -20 202 13 52 21 69 40 78 13 6 24
15 24 21 0 23 29 8 52 -27z m-826 -393 c8 -36 8 -34 0 -71 -5 -25 -9 -29 -33
-26 -15 2 -29 9 -31 15 -2 8 3 10 15 5 17 -6 17 -6 1 14 -21 23 -23 37 -4 30
9 -4 12 2 10 21 -2 24 9 41 29 42 4 0 10 -13 13 -30z m-106 11 c0 -18 -17 -20
-36 -6 -18 14 -18 14 9 15 15 0 27 -4 27 -9z m86 -137 c-3 -9 -6 -24 -6 -35 0
-13 -5 -17 -17 -12 -11 4 -14 3 -9 -5 5 -8 2 -10 -8 -6 -11 4 -16 0 -16 -11 0
-15 -3 -15 -15 -5 -9 7 -14 19 -11 26 3 8 0 11 -8 8 -7 -3 -19 2 -26 10 -10
13 -10 16 1 20 8 2 28 8 44 14 48 16 78 15 71 -4z m307 -55 c36 1 43 1 72 -2
17 -2 36 -5 44 -5 7 -1 33 -22 58 -47 24 -25 52 -45 63 -45 23 0 71 -39 88
-72 12 -21 20 -24 64 -23 45 1 54 5 80 36 25 29 31 32 41 19 7 -8 25 -22 41
-30 16 -8 32 -24 37 -35 9 -23 69 -338 69 -364 0 -10 -11 -28 -25 -41 l-24
-23 -11 27 c-5 15 -10 31 -10 35 0 14 -23 29 -36 24 -8 -3 -14 -16 -14 -29 0
-13 -11 -34 -25 -46 -16 -14 -23 -28 -19 -42 3 -16 -2 -24 -21 -33 -32 -14
-40 0 -31 52 7 34 6 35 -23 35 -16 0 -33 6 -38 13 -4 6 -7 53 -6 102 3 119
-33 254 -53 201 -9 -24 -24 -19 -24 9 0 13 -11 36 -25 50 -31 30 -32 30 -39 8
-3 -10 -3 8 -1 39 5 55 4 57 -25 71 -23 12 -31 12 -40 3 -10 -12 -8 -35 20
-216 5 -30 9 -88 9 -129 1 -61 -1 -72 -11 -59 -7 8 -24 22 -37 31 -16 11 -31
37 -43 74 -23 73 -22 76 4 67 l21 -6 -21 36 c-21 35 -21 36 -2 46 10 5 26 10
34 10 19 0 19 -1 5 95 -6 41 -16 75 -21 75 -5 0 -21 -9 -35 -20 -16 -12 -41
-20 -65 -20 -31 0 -41 5 -49 24 -6 13 -21 27 -33 31 -13 4 -16 8 -8 12 9 3 11
16 6 40 -7 35 -6 36 17 29 13 -5 32 -8 42 -7z m-200 -16 c4 -10 13 -36 21 -58
18 -46 22 -90 6 -65 -5 8 -14 16 -20 16 -5 1 -14 2 -20 3 -12 1 -13 121 -1
121 5 0 11 -8 14 -17z m717 -46 c0 -20 -9 -25 -31 -20 -15 4 -17 8 -8 19 15
18 39 18 39 1z m-695 -175 c6 -7 21 -14 34 -17 13 -2 26 -7 30 -11 3 -4 -2 -4
-11 -1 -10 4 -18 2 -18 -3 0 -27 -83 13 -125 59 -16 18 -17 24 -5 31 13 8 70
-27 95 -58z m36 -187 c29 -64 38 -115 20 -115 -5 0 -28 28 -50 61 -49 74 -55
119 -14 119 8 0 27 -29 44 -65z m-2146 13 c39 -15 78 -29 88 -32 10 -3 17 -15
17 -30 0 -25 0 -24 -82 21 -71 38 -135 83 -103 72 6 -2 42 -16 80 -31z m2020
-94 c-3 -13 -7 -35 -10 -49 -3 -14 -10 -25 -17 -25 -11 0 -5 111 9 133 9 16
24 -30 18 -59z m-307 -60 c-2 -40 1 -66 10 -73 24 -23 11 -31 -47 -31 -44 0
-60 4 -65 16 -4 11 -1 14 12 10 20 -7 58 26 49 41 -3 5 -2 27 3 49 5 21 12 53
16 69 l6 30 10 -25 c5 -14 8 -53 6 -86z m-1663 -43 c-7 -6 -68 34 -73 48 -3 8
13 1 36 -15 22 -16 39 -31 37 -33z m1458 -61 c-4 -4 -18 -4 -29 0 -19 8 -20
12 -11 43 l11 34 19 -35 c10 -19 15 -38 10 -42z m997 60 c0 -5 -5 -10 -11 -10
-5 0 -7 5 -4 10 3 6 8 10 11 10 2 0 4 -4 4 -10z m362 -32 c9 -18 20 -48 23
-65 6 -28 4 -33 -12 -34 -10 0 -13 -3 -5 -6 6 -2 12 -13 12 -23 0 -18 27 -40
49 -40 5 0 11 8 14 18 3 12 10 4 25 -28 26 -56 40 -126 23 -116 -6 4 -11 13
-11 21 0 7 -14 24 -31 36 -28 20 -30 20 -21 3 6 -10 19 -28 30 -40 26 -27 27
-74 1 -69 -22 4 -25 -10 -5 -22 18 -11 29 -50 16 -58 -5 -3 -10 -1 -10 4 0 6
-7 11 -15 11 -8 0 -15 7 -15 15 0 8 -4 15 -10 15 -5 0 -10 7 -10 15 0 18 -24
30 -39 20 -7 -4 -5 -15 5 -31 16 -23 15 -24 -7 -23 -13 0 -18 3 -11 6 6 2 12
9 12 14 0 4 -7 6 -15 3 -9 -4 -15 0 -15 10 0 11 -9 16 -30 16 -38 0 -50 23
-49 93 1 29 -4 63 -10 75 -17 32 -14 38 24 56 19 9 35 22 35 28 0 7 12 24 27
40 25 26 25 29 10 46 -9 10 -17 24 -17 30 0 22 15 12 32 -20z m-3203 -65 c51
-39 81 -77 116 -145 17 -32 34 -56 38 -51 11 10 117 12 111 1 -3 -4 -22 -8
-42 -8 -83 0 -84 -1 -81 -107 2 -73 0 -97 -12 -104 -23 -14 -45 -10 -65 12
-13 15 -28 20 -55 18 -61 -5 -90 46 -144 254 -8 32 -15 66 -15 76 0 26 36 69
63 74 43 8 51 7 86 -20z m2792 -40 c0 -16 2 -43 4 -61 2 -24 -1 -32 -10 -28
-7 2 -18 -1 -25 -7 -10 -10 -11 -5 -6 22 3 18 6 49 6 67 0 43 30 49 31 7z m59
-40 c0 -81 -5 -79 -14 5 -5 41 -3 62 4 62 6 0 10 -27 10 -67z m-2522 15 c22
-18 48 -38 58 -45 18 -12 18 -12 -1 -5 -30 10 -105 63 -105 73 0 14 5 11 48
-23z m2044 -62 c12 -17 10 -24 -14 -40 -21 -15 -23 -14 -35 15 -7 17 -10 35
-7 40 7 12 46 1 56 -15z m-153 -120 c-21 -54 -54 -121 -66 -133 -6 -7 -13 -18
-16 -25 -10 -28 -14 0 -8 48 6 45 5 50 -13 52 -11 0 -26 -3 -32 -9 -9 -7 -17
-1 -30 21 -10 16 -26 32 -35 35 -9 3 -19 17 -21 30 -6 29 1 39 17 25 9 -8 14
-6 19 5 8 21 53 19 65 -2 5 -10 12 -17 15 -15 17 7 25 -2 41 -40 10 -24 20
-37 22 -31 2 7 3 14 1 16 -2 2 5 11 14 20 9 10 20 39 25 65 l8 47 3 -39 c2
-21 -2 -53 -9 -70z m525 -31 c-4 -43 -10 -86 -14 -95 -5 -8 -11 -24 -15 -35
-6 -20 -7 -20 -25 3 -10 12 -24 22 -31 22 -8 0 -3 7 10 16 l23 17 -28 26 c-16
14 -41 33 -57 41 -16 9 -29 20 -29 25 2 23 41 13 85 -21 57 -45 70 -40 26 10
-17 20 -29 39 -26 43 3 3 21 16 39 28 44 30 50 19 42 -80z m-2359 75 l30 -8
-30 0 c-16 -1 -48 3 -70 7 l-40 9 40 0 c22 0 54 -4 70 -8z m1167 -115 c-2 -65
-6 -123 -9 -128 -3 -4 -15 -7 -26 -6 -12 0 -39 1 -61 0 l-39 -1 5 -45 c7 -55
-8 -60 -17 -6 -4 22 -13 42 -21 45 -8 3 -11 12 -8 21 4 9 1 42 -6 74 -10 50
-10 62 4 90 9 17 14 36 11 41 -3 5 -1 11 4 14 5 3 15 -10 23 -29 10 -24 17
-32 27 -26 10 6 11 13 3 27 -18 32 13 56 67 52 l46 -3 -3 -120z m265 67 c-5
-50 -24 -51 -29 -2 -4 46 -2 51 18 43 10 -4 13 -17 11 -41z m43 -3 c0 -6 -4
-7 -10 -4 -5 3 -10 11 -10 16 0 6 5 7 10 4 6 -3 10 -11 10 -16z m-755 -83 c10
-30 13 -52 7 -58 -14 -14 -42 53 -42 99 1 44 10 34 35 -41z m2230 35 c3 -5 1
-12 -5 -16 -5 -3 -10 1 -10 9 0 18 6 21 15 7z m-1524 -13 c1 -7 1 -19 0 -25
-1 -7 3 -13 9 -13 5 0 10 12 10 26 0 14 4 23 10 19 15 -9 12 -43 -5 -53 -9 -4
-18 -25 -20 -47 -10 -73 -25 -61 -29 21 -3 63 1 84 15 84 5 0 10 -6 10 -12z
m419 -19 c0 -5 -7 -9 -15 -9 -15 0 -20 12 -9 23 8 8 24 -1 24 -14z m1178 -21
c6 -6 12 -21 12 -34 0 -12 10 -30 23 -39 12 -8 21 -19 20 -23 -3 -9 5 -39 22
-77 41 -94 48 -111 46 -119 -4 -19 24 -36 61 -36 47 0 124 -31 93 -37 -40 -8
-80 -27 -103 -47 -22 -20 -24 -20 -37 -3 -7 9 -34 25 -60 34 -44 15 -47 17
-30 29 11 8 27 14 36 14 25 0 32 15 14 30 -11 9 -22 10 -42 2 -16 -6 -42 -13
-60 -16 -36 -6 -45 4 -101 107 -42 76 -41 101 1 119 17 8 43 20 57 26 18 8 20
11 8 11 -10 1 -18 6 -18 12 0 8 -5 8 -15 -1 -18 -15 -18 -12 -4 27 8 24 16 31
37 31 15 0 33 -5 40 -10z m84 -123 c6 -29 -7 -34 -15 -6 -4 17 0 31 9 31 1 0
4 -11 6 -25z m38 -100 c0 -5 -5 -3 -10 5 -5 8 -10 20 -10 25 0 6 5 3 10 -5 5
-8 10 -19 10 -25z m-2110 5 c0 -11 -2 -20 -4 -20 -2 0 -6 9 -9 20 -3 11 -1 20
4 20 5 0 9 -9 9 -20z m927 -52 c12 -13 23 -32 25 -43 2 -11 10 -19 19 -17 12
1 22 -16 38 -61 11 -35 21 -72 21 -81 0 -16 -4 -15 -34 8 -19 14 -38 26 -43
26 -18 0 -98 105 -95 125 4 30 24 65 37 65 6 0 21 -10 32 -22z m-253 -43 c15
-23 47 -144 50 -189 1 -15 -8 -22 -30 -26 -30 -7 -32 -5 -44 33 -9 30 -9 46 0
67 13 31 10 96 -4 93 -5 -1 -20 -26 -32 -55 l-23 -53 -1 53 c0 45 4 57 26 77
33 31 38 31 58 0z m431 -5 c8 -12 -5 -60 -16 -60 -5 0 -9 16 -9 35 0 33 12 46
25 25z m-936 -82 c-1 -58 -2 -60 -10 -30 -9 28 -12 32 -25 21 -12 -10 -15 -10
-12 2 2 9 -5 14 -22 13 -39 -2 -40 -3 -33 -21 4 -11 3 -14 -5 -9 -7 4 -12 20
-12 36 0 25 5 31 33 39 17 5 44 10 60 10 27 1 27 0 26 -61z m241 42 c0 -5 -4
-10 -10 -10 -5 0 -10 5 -10 10 0 6 5 10 10 10 6 0 10 -4 10 -10z m-370 -12 c0
-4 -11 -8 -25 -8 -14 0 -25 4 -25 10 0 5 11 9 25 8 14 -1 25 -6 25 -10z m367
-34 c-3 -3 -12 -4 -19 -1 -8 3 -5 6 6 6 11 1 17 -2 13 -5z m3 -59 c0 -19 5
-25 18 -23 14 2 17 -5 17 -42 0 -41 -2 -45 -25 -45 -22 0 -26 5 -32 50 -5 34
-3 52 5 57 9 6 9 8 0 8 -7 0 -13 5 -13 10 0 6 7 10 15 10 9 0 15 -9 15 -25z
m220 -41 c0 -36 -22 -48 -34 -18 -8 22 -8 26 4 19 6 -4 10 5 10 20 0 15 4 24
10 20 6 -3 10 -22 10 -41z m612 -81 c-2 -57 -8 -100 -13 -98 -4 3 -11 35 -15
71 -5 52 -3 74 10 101 9 20 18 34 20 32 2 -2 1 -50 -2 -106z m1039 87 c22 0
39 -5 39 -11 0 -7 -10 -9 -25 -7 -14 3 -25 2 -25 -2 0 -5 -9 -6 -20 -3 -15 4
-19 2 -14 -10 3 -10 24 -19 52 -23 52 -7 126 -36 136 -53 10 -15 0 -14 -27 4
-30 19 -144 45 -176 39 -30 -5 -55 11 -65 43 -8 25 11 34 58 27 16 -2 46 -4
67 -4z m-1771 -115 c-7 -8 -17 -12 -22 -9 -6 4 -5 10 3 15 22 14 33 10 19 -6z
m1740 -5 c0 -5 -6 -10 -14 -10 -8 0 -18 5 -21 10 -3 6 3 10 14 10 12 0 21 -4
21 -10z m-1050 -10 c0 -5 -4 -10 -10 -10 -5 0 -10 5 -10 10 0 6 5 10 10 10 6
0 10 -4 10 -10z m1225 -19 c6 -10 -23 -17 -115 -25 -37 -4 -48 -2 -35 4 11 5
37 9 57 9 20 1 40 6 43 11 8 13 42 13 50 1z m-35 -51 c0 -5 -15 -10 -34 -10
-19 0 -38 5 -41 10 -4 6 10 10 34 10 23 0 41 -4 41 -10z m-1563 -125 c6 -46 5
-49 -10 -36 -11 9 -17 10 -17 2 0 -17 -25 -13 -64 10 -20 12 -36 16 -36 10 0
-6 -15 -1 -34 11 -31 21 -33 25 -20 39 10 11 33 17 69 18 48 1 55 -2 55 -18 0
-10 7 -22 16 -25 21 -8 31 1 17 15 -6 6 -9 18 -6 26 9 24 22 0 30 -52z m277
16 c23 -10 26 -18 13 -51 -3 -8 -5 -24 -4 -35 4 -43 -18 -24 -40 34 -24 66
-21 71 31 52z m-664 -31 c0 -5 -4 -10 -10 -10 -5 0 -10 5 -10 10 0 6 5 10 10
10 6 0 10 -4 10 -10z m-538 -62 c-6 -82 -18 -105 -17 -31 1 48 10 93 19 93 1
0 0 -28 -2 -62z m-577 -148 c-20 -22 -35 -26 -35 -8 0 20 33 49 44 38 6 -6 3
-16 -9 -30z m4 -60 c-5 -30 -8 -81 -7 -112 2 -59 -3 -75 -21 -63 -14 8 -14 45
-1 45 5 0 10 24 10 53 0 69 5 111 14 126 13 21 14 9 5 -49z m2406 11 l40 -27
5 -79 c3 -49 1 -83 -5 -88 -16 -13 -146 -1 -156 14 -12 20 -22 133 -14 160 10
33 46 60 70 53 11 -3 38 -18 60 -33z m-1680 -164 c-12 -103 -14 -112 -40 -124
-25 -11 -25 -11 -25 35 0 66 9 92 31 92 15 0 19 7 19 31 0 18 4 28 10 24 6 -4
8 -27 5 -58z m751 41 c5 -17 0 -27 -21 -44 -25 -20 -46 -27 -118 -41 -10 -2
-34 -15 -52 -29 l-34 -26 -7 29 c-4 15 -8 46 -8 68 l-1 40 59 7 c32 4 61 10
64 13 3 3 29 5 58 5 45 0 54 -3 60 -22z m-376 -19 c8 -5 10 -9 3 -9 -7 0 -11
-18 -11 -46 0 -54 -8 -66 -21 -33 -7 18 -10 19 -10 6 -1 -10 -8 -20 -16 -23
-11 -5 -12 -11 -5 -25 14 -25 2 -69 -19 -68 -9 0 -11 2 -6 5 6 2 8 40 4 101
-3 64 -2 100 5 105 12 8 51 1 76 -13z m-1293 -58 c3 -14 1 -38 -5 -54 -6 -16
-8 -50 -5 -76 l5 -48 -37 -7 c-20 -4 -39 -5 -41 -3 -2 2 2 19 10 38 8 19 17
70 21 114 4 44 10 84 13 89 7 12 31 -22 39 -53z m102 -167 c1 -29 -5 -46 -19
-59 -11 -10 -20 -24 -20 -31 0 -19 -17 -26 -41 -19 -21 7 -21 7 -1 28 11 12
28 51 37 87 25 95 27 99 35 65 4 -16 8 -48 9 -71z m681 84 c0 -6 10 -23 23
-36 21 -23 21 -24 2 -19 -11 3 -53 9 -92 12 -74 7 -79 10 -64 33 7 11 9 11 14
-2 3 -8 14 -14 24 -14 10 1 31 -2 46 -5 20 -6 28 -4 26 5 -3 24 1 38 11 38 6
0 10 -5 10 -12z m490 -18 c0 -11 -4 -20 -8 -20 -4 0 -8 9 -8 20 0 11 4 20 8
20 4 0 8 -9 8 -20z m-1335 -134 c-16 -13 -31 -23 -33 -21 -7 7 33 45 48 45 9
0 4 -9 -15 -24z m50 -56 c-3 -5 -11 -10 -16 -10 -6 0 -7 5 -4 10 3 6 11 10 16
10 6 0 7 -4 4 -10z m1482 -286 c-3 -3 -12 -4 -19 -1 -8 3 -5 6 6 6 11 1 17 -2
13 -5z m60 -10 c-3 -3 -12 -4 -19 -1 -8 3 -5 6 6 6 11 1 17 -2 13 -5z"/>
<path d="M2400 4777 c0 -19 10 -27 26 -20 11 4 12 9 3 19 -15 18 -29 18 -29 1z"/>
<path d="M3200 3280 c0 -9 20 -38 45 -65 24 -28 44 -43 44 -35 0 8 -19 38 -44
65 -25 29 -44 43 -45 35z"/>
<path d="M1730 2590 c0 -5 5 -10 10 -10 6 0 10 5 10 10 0 6 -4 10 -10 10 -5 0
-10 -4 -10 -10z"/>
<path d="M1648 2455 c-3 -14 -1 -25 3 -25 5 0 9 11 9 25 0 14 -2 25 -4 25 -2
0 -6 -11 -8 -25z"/>
<path d="M3520 2286 c0 -15 43 -85 56 -90 19 -7 18 -2 -11 43 -22 36 -45 60
-45 47z"/>
<path d="M3840 1930 c0 -5 5 -10 11 -10 5 0 7 5 4 10 -3 6 -8 10 -11 10 -2 0
-4 -4 -4 -10z"/>
<path d="M750 2134 c-14 -3 -45 -11 -70 -19 -25 -8 -83 -26 -130 -40 -76 -22
-87 -29 -97 -55 -7 -19 -18 -30 -30 -30 -25 0 -63 -28 -63 -45 0 -22 37 -37
125 -52 112 -18 252 -6 430 39 69 18 99 19 222 14 142 -7 142 -7 158 17 15 24
12 57 -6 57 -5 0 -9 17 -9 39 0 33 -4 40 -29 51 -17 7 -91 13 -173 15 -78 1
-179 5 -223 8 -44 3 -91 3 -105 1z"/>
<path d="M268 1875 c-43 -29 -64 -79 -49 -117 16 -41 75 -52 105 -19 21 23 34
91 17 91 -6 0 -11 9 -11 19 0 24 -10 51 -19 51 -3 0 -23 -11 -43 -25z"/>
<path d="M740 1835 c-19 -7 -66 -14 -105 -15 -38 0 -86 -7 -107 -14 -30 -11
-42 -11 -68 0 -34 15 -50 11 -50 -11 0 -20 41 -25 185 -20 72 2 144 0 160 -5
17 -5 63 -10 103 -13 92 -6 104 9 49 60 -31 28 -44 33 -84 32 -27 0 -64 -7
-83 -14z"/>
<path d="M343 1388 c-13 -6 -34 -35 -48 -64 -14 -29 -34 -55 -45 -59 -11 -3
-20 -10 -20 -15 0 -4 -11 -11 -25 -14 -45 -11 -26 -26 33 -26 53 0 157 14 191
26 11 4 11 8 -3 23 -9 10 -14 25 -10 35 3 9 2 22 -4 29 -6 6 -12 25 -14 42 -3
33 -21 40 -55 23z"/>
<path d="M1 940 c0 -33 1 -34 10 -11 6 16 6 28 -1 35 -7 7 -10 -1 -9 -24z"/>
<path d="M1145 764 c-44 -6 -105 -20 -135 -30 -60 -21 -73 -38 -84 -114 -7
-44 -6 -44 10 -22 9 13 27 27 40 32 13 6 29 21 34 34 7 19 25 29 80 47 65 20
72 21 88 5 10 -9 26 -16 35 -16 19 0 23 -38 8 -68 -5 -9 -14 -29 -20 -44 -13
-35 -31 -35 -71 -1 l-32 26 -24 -31 c-15 -19 -30 -29 -39 -26 -8 4 -18 -1 -21
-10 -3 -9 -17 -16 -30 -16 -19 0 -24 -7 -29 -37 -10 -58 -12 -61 -44 -68 -27
-6 -31 -11 -31 -40 0 -42 43 -95 97 -120 33 -16 56 -17 188 -11 219 10 384 31
414 54 30 22 36 33 51 100 26 114 -31 262 -119 306 -86 43 -256 66 -366 50z
m246 -186 c22 -41 -18 -81 -61 -58 -31 17 -25 70 10 82 21 7 39 -1 51 -24z"/>
</g>
</svg>
