<?xml version="1.0" standalone="no"?>
<!DOCTYPE svg PUBLIC "-//W3C//DTD SVG 20010904//EN"
 "http://www.w3.org/TR/2001/REC-SVG-20010904/DTD/svg10.dtd">
<svg version="1.0" xmlns="http://www.w3.org/2000/svg"
 width="626.000000pt" height="352.000000pt" viewBox="0 0 626.000000 352.000000"
 preserveAspectRatio="xMidYMid meet">

<g transform="translate(0.000000,352.000000) scale(0.100000,-0.100000)"
fill="#000000" stroke="none">
<path d="M2095 3506 c-39 -14 -72 -46 -77 -71 -3 -18 -11 -20 -78 -20 -98 -1
-173 -30 -178 -69 -4 -30 11 -33 70 -12 34 12 56 12 116 0 41 -8 23 -21 -30
-21 -29 0 -77 -8 -105 -18 -49 -18 -53 -21 -53 -51 l0 -33 55 19 c61 21 125
17 125 -7 0 -10 -6 -12 -20 -8 -20 6 -124 -21 -147 -38 -7 -5 -13 -20 -13 -33
0 -29 21 -31 74 -9 20 8 36 11 36 7 0 -5 -64 -28 -142 -52 -79 -23 -171 -51
-204 -62 -34 -10 -65 -18 -70 -16 -5 1 -18 -3 -29 -8 -11 -6 -56 -21 -100 -33
-60 -15 -89 -18 -112 -12 -26 8 -33 6 -36 -7 -4 -16 -5 -16 -6 0 -1 13 -15 18
-58 23 -117 13 -108 16 -104 -39 2 -33 0 -46 -8 -42 -6 4 -11 27 -11 50 l0 44
-42 6 c-24 3 -142 17 -263 31 -121 14 -269 32 -330 41 -120 16 -336 44 -347
44 -5 0 -8 -99 -8 -220 l0 -219 33 -5 c17 -3 118 -13 222 -22 105 -8 200 -20
213 -25 13 -5 22 -17 22 -31 0 -20 5 -17 45 22 31 31 45 52 45 71 0 24 5 27
44 33 24 4 62 16 85 26 22 11 41 20 43 20 2 0 3 -14 4 -30 1 -32 -9 -45 -97
-120 -75 -65 -75 -44 0 42 24 27 37 49 31 53 -13 8 -45 -17 -138 -107 -57 -56
-72 -76 -72 -99 0 -25 -36 -118 -69 -179 -4 -8 -26 -21 -49 -29 -29 -11 -46
-25 -59 -50 -13 -25 -41 -48 -93 -79 -41 -24 -105 -67 -142 -95 l-68 -51 1
-690 c0 -393 4 -679 9 -663 5 16 13 34 18 40 6 7 13 38 17 70 4 31 12 60 17
63 5 3 21 -7 37 -23 26 -28 27 -32 24 -118 -2 -69 -8 -100 -27 -139 -13 -28
-27 -60 -31 -71 l-7 -20 -8 20 c-7 19 -8 19 -15 2 -7 -17 -8 -17 -22 0 -13 16
-14 13 -8 -27 4 -25 8 -57 8 -72 1 -14 5 -30 9 -33 4 -4 5 -27 1 -51 -4 -29 0
-63 11 -98 17 -54 16 -70 -10 -179 l-6 -27 3083 0 c3023 1 3084 1 3061 20 -26
22 -109 42 -140 33 -12 -3 -56 -2 -96 2 -71 6 -75 8 -79 33 l-4 27 -2 -28 c-1
-27 -2 -28 -48 -22 -27 3 -92 10 -147 15 -54 5 -100 11 -102 12 -2 2 -8 285
-14 628 -22 1333 -40 2492 -40 2643 l0 157 -57 0 -56 0 6 -227 c4 -126 10
-390 14 -588 6 -249 10 -328 14 -255 3 58 4 -38 3 -212 -1 -183 2 -315 7 -312
5 3 9 -5 9 -16 0 -12 4 -97 9 -188 26 -455 34 -828 20 -984 -10 -114 -15 -143
-20 -113 -3 22 -7 -87 -8 -242 0 -178 -5 -283 -11 -283 -5 0 -12 12 -16 27 -3
16 -22 79 -41 142 -59 192 -122 323 -197 412 -86 99 -85 98 -24 101 35 1 36 2
29 95 -2 31 -53 87 -123 134 -57 39 -78 60 -37 39 11 -7 23 -9 27 -6 3 3 1 6
-4 6 -24 0 -54 42 -54 74 0 31 -3 34 -36 40 -41 8 -41 29 -1 34 24 3 27 7 27
43 0 38 -1 39 -36 39 -28 0 -35 3 -32 18 2 11 14 18 36 20 30 3 32 5 32 43 l0
40 -37 -3 c-32 -3 -38 -6 -35 -24 1 -12 -4 -26 -11 -33 -11 -9 -20 -5 -41 16
-14 14 -29 38 -32 52 -3 14 -11 40 -19 57 -13 30 -12 32 27 65 23 18 49 52 60
75 18 42 33 54 69 54 16 0 19 7 19 45 0 42 -2 45 -26 45 -14 0 -34 -5 -45 -10
-21 -12 -64 4 -54 20 9 15 -84 24 -124 11 -20 -6 -37 -7 -39 -2 -8 25 -145
151 -197 181 l-60 36 -7 284 c-5 157 -7 361 -5 455 l2 169 35 8 c19 4 107 21
195 38 88 16 172 33 187 36 23 5 30 1 38 -20 8 -22 14 -26 37 -20 53 11 54 12
51 51 l-3 38 -42 -3 c-58 -4 -60 23 -3 32 40 6 40 6 40 52 0 38 -3 45 -17 40
-10 -3 -36 -8 -58 -11 -22 -4 -101 -19 -175 -35 -74 -16 -180 -38 -235 -49
-201 -41 -412 -83 -500 -101 -114 -22 -569 -114 -695 -140 -52 -10 -113 -26
-135 -34 -39 -14 -39 -15 -10 -15 l30 -1 3 -268 c2 -147 0 -425 -4 -617 l-7
-351 -46 -1 c-25 -1 -58 -4 -72 -8 -34 -9 -39 10 -33 123 2 46 -1 92 -6 102
-7 13 -7 21 0 25 16 10 12 43 -8 63 -17 16 -17 18 1 32 15 13 16 20 8 43 -10
24 -15 27 -63 28 -55 1 -51 4 35 23 22 5 27 12 27 36 0 30 -1 30 -55 30 -84 0
-69 24 20 32 26 3 30 7 30 33 0 30 0 30 -57 30 -54 0 -78 8 -65 21 3 4 32 9
64 13 56 6 58 7 58 36 0 26 -3 30 -25 28 -53 -5 -77 -4 -135 1 -61 5 -150 12
-285 23 -41 3 -88 7 -105 8 -16 2 -39 4 -50 5 -18 0 -18 2 -3 10 10 7 52 6
117 0 56 -6 106 -8 110 -5 5 3 22 0 37 -6 16 -5 55 -11 87 -11 62 -1 77 8 77
49 0 19 -7 22 -67 29 -69 7 -107 10 -178 13 -31 1 -36 4 -23 11 19 12 177 8
196 -4 8 -4 36 -8 63 -8 51 0 59 -7 34 -28 -21 -18 -19 -47 5 -60 15 -8 37 -8
77 0 31 5 58 10 60 10 2 0 3 14 3 31 l0 31 -47 -6 c-64 -8 -91 8 -37 23 21 6
50 12 64 13 19 2 25 9 25 28 0 24 -3 25 -70 27 -131 4 -228 17 -233 31 -3 11
10 12 74 5 163 -17 256 0 229 43 -8 12 -31 17 -95 19 -120 3 -202 16 -197 29
2 6 13 10 23 8 72 -10 205 -13 234 -5 28 7 35 14 35 34 0 22 -4 24 -50 26
-114 4 -245 16 -239 22 3 3 66 6 140 6 109 0 137 3 144 15 20 30 7 45 -40 46
-92 1 -120 4 -120 13 0 5 33 12 74 16 76 7 102 20 87 44 -7 11 -15 11 -41 2
-18 -6 -35 -11 -37 -11 -9 0 -23 53 -16 63 4 6 10 2 14 -12 8 -20 13 -21 61
-16 75 9 78 11 78 46 0 28 -2 31 -22 24 -13 -4 -44 -10 -70 -14 -46 -7 -48 -6
-48 16 0 18 6 23 25 23 20 0 25 5 25 27 0 25 1 26 14 8 11 -15 21 -17 72 -11
32 3 64 12 69 19 6 6 28 12 50 13 66 1 94 12 101 40 4 14 4 27 2 29 -7 8 -128
-18 -128 -27 0 -5 -10 -6 -22 -3 -13 3 -50 -2 -83 -10 -88 -22 -117 -26 -113
-14 4 11 60 35 106 46 12 3 22 9 22 14 0 5 22 9 49 9 74 0 103 14 99 48 -2 18
-8 26 -18 23 -108 -27 -185 -38 -176 -23 3 5 26 13 51 16 25 4 45 11 45 16 0
5 12 9 28 8 15 0 44 3 65 7 33 7 37 5 36 -11 -6 -58 8 -65 88 -41 54 16 67 29
58 57 -7 22 -21 23 -100 4 -18 -5 -20 -1 -17 42 l4 46 -33 -7 c-19 -4 -52 -14
-74 -22 -22 -7 -58 -16 -79 -19 -22 -3 -48 -10 -58 -15 -22 -12 -21 9 1 27 9
7 12 20 7 37 -6 24 -9 25 -32 17 -40 -16 -54 -12 -51 13 1 16 -6 26 -30 36
-18 8 -33 20 -33 27 0 7 -7 17 -17 22 -10 6 -16 21 -15 41 0 17 -4 31 -9 31
-5 0 -9 4 -9 8 0 7 165 62 184 62 4 0 6 -7 6 -15 0 -21 47 -95 65 -101 8 -3
26 4 41 15 15 12 31 21 35 21 16 0 9 -19 -8 -24 -16 -5 -43 -48 -43 -68 0 -14
32 -9 92 14 40 16 58 28 58 40 0 19 -20 24 -36 8 -5 -5 -15 -6 -23 -1 -9 6 4
14 44 26 82 23 132 57 137 93 7 48 1 52 -69 52 -51 0 -69 -4 -80 -17 -14 -17
-14 -17 -9 0 5 15 -4 17 -87 17 -76 0 -95 -3 -108 -18 -9 -10 -56 -28 -113
-42 -91 -23 -98 -24 -107 -8 -5 10 -16 15 -24 12 -9 -4 -18 1 -22 12 -15 42
-26 43 -333 43 -195 -1 -305 -5 -325 -13z m-205 -410 c0 -26 -18 -64 -41 -84
-27 -26 -156 -93 -172 -90 -12 2 -77 -9 -109 -18 -13 -4 -23 7 -41 44 l-24 49
186 55 c216 65 201 62 201 44z m-480 -146 c0 -13 5 -18 15 -14 9 4 15 0 15 -9
0 -8 7 -20 15 -27 29 -24 15 -32 -19 -11 -36 23 -46 25 -46 13 0 -5 10 -14 23
-19 17 -8 -7 -11 -100 -12 -68 -1 -128 -4 -135 -6 -7 -3 -20 -1 -28 5 -19 12
-6 23 45 38 22 6 76 22 120 36 100 30 95 30 95 6z m-190 -15 c-7 -8 -20 -15
-29 -15 -13 1 -13 3 3 15 26 19 42 19 26 0z m1041 -46 c-5 -13 -10 -19 -10
-12 -1 15 10 45 15 40 3 -2 0 -15 -5 -28z m-1130 -30 c29 -10 84 -57 76 -65
-1 -1 -44 7 -96 18 l-93 20 -86 -27 c-48 -15 -97 -31 -110 -36 -13 -5 -30 -9
-39 -9 -14 0 -14 2 2 20 10 11 31 20 47 20 16 0 48 10 71 22 85 43 168 57 228
37z m3093 -78 c3 -5 8 -159 11 -342 4 -184 7 -354 8 -379 l2 -45 -58 -7 c-100
-13 -219 -91 -203 -134 3 -7 -3 -18 -12 -23 -22 -13 -6 -14 36 -2 35 11 102 4
102 -10 0 -13 -73 -119 -82 -119 -4 0 -8 -10 -8 -22 0 -17 -10 -27 -40 -40
-26 -11 -40 -23 -40 -35 0 -22 -88 -159 -121 -188 l-22 -20 7 25 c9 29 9 296
0 867 -7 382 -6 403 11 409 18 7 356 71 387 73 9 0 19 -3 22 -8z m-560 -29 c3
-5 5 -200 4 -433 -1 -464 -1 -493 8 -685 4 -101 2 -133 -8 -140 -20 -14 -250
-2 -256 14 -2 6 -10 12 -18 12 -12 0 -14 85 -12 593 l3 592 130 27 c157 32
143 30 149 20z m-2469 -62 c3 -5 -5 -15 -18 -21 -19 -8 -30 -8 -48 2 l-24 13
30 7 c45 10 53 10 60 -1z m-389 -267 c-10 -10 -19 5 -10 18 6 11 8 11 12 0 2
-7 1 -15 -2 -18z m-276 3 c0 -15 -24 -28 -34 -19 -7 7 13 33 25 33 5 0 9 -6 9
-14z m1600 -49 c0 -6 -16 -7 -37 -3 -21 3 -60 6 -87 6 -64 0 -55 8 20 18 58 8
104 -1 104 -21z m-162 -66 c12 -1 22 -6 22 -12 0 -13 -59 -4 -73 10 -6 6 -2 8
9 6 11 -2 29 -4 42 -4z m242 -93 l0 -38 48 -1 c26 0 65 -4 87 -9 33 -7 26 -8
-43 -7 -95 1 -102 -4 -101 -68 0 -22 -4 -80 -9 -130 -8 -83 -9 -73 -11 119 -1
186 1 208 14 190 8 -10 15 -36 15 -56z m-230 37 c32 -34 21 -37 -14 -3 -16 16
-24 28 -19 28 5 0 20 -11 33 -25z m156 -32 c-10 -10 -19 5 -10 18 6 11 8 11
12 0 2 -7 1 -15 -2 -18z m381 -54 c10 -10 81 -18 171 -19 23 0 42 -4 42 -9 0
-6 -29 -8 -67 -6 -38 3 -113 7 -167 10 -100 6 -143 15 -70 15 21 0 46 5 54 10
19 12 24 12 37 -1z m-439 -12 c17 -1 15 -17 -2 -17 -8 0 -21 -3 -30 -6 -12 -4
-16 0 -16 16 0 17 4 21 18 15 9 -4 23 -8 30 -8z m767 -27 c-3 -5 -15 -10 -26
-10 -10 0 -19 5 -19 10 0 6 12 10 26 10 14 0 23 -4 19 -10z m-865 -164 c0 -2
-11 -6 -25 -8 -13 -3 -22 -1 -19 3 5 9 44 13 44 5z m-47 -62 c53 -3 97 -10 97
-15 0 -5 -11 -9 -25 -9 -14 0 -28 -7 -31 -15 -5 -12 -27 -15 -125 -13 -94 2
-118 6 -114 16 3 8 5 23 5 34 0 18 4 19 48 13 26 -3 91 -9 145 -11z m2082 -3
c-3 -6 -11 -11 -17 -11 -6 0 -6 6 2 15 14 17 26 13 15 -4z m-1080 -61 c-3 -5
-13 -10 -21 -10 -8 0 -12 5 -9 10 3 6 13 10 21 10 8 0 12 -4 9 -10z m-1235
-179 c0 -5 -9 -7 -20 -4 -11 3 -20 7 -20 9 0 2 9 4 20 4 11 0 20 -4 20 -9z
m-55 -81 c3 -5 -1 -10 -10 -10 -9 0 -13 5 -10 10 3 6 8 10 10 10 2 0 7 -4 10
-10z m368 -77 c-7 -2 -19 -2 -25 0 -7 3 -2 5 12 5 14 0 19 -2 13 -5z m54 -9
c-3 -3 -12 -4 -19 -1 -8 3 -5 6 6 6 11 1 17 -2 13 -5z m40 0 c-3 -3 -12 -4
-19 -1 -8 3 -5 6 6 6 11 1 17 -2 13 -5z m81 -1 c-10 -2 -28 -2 -40 0 -13 2 -5
4 17 4 22 1 32 -1 23 -4z m49 1 c-3 -3 -12 -4 -19 -1 -8 3 -5 6 6 6 11 1 17
-2 13 -5z m-1298 -59 c32 -47 32 -75 0 -75 -10 0 -19 3 -19 8 0 4 -11 20 -25
36 -13 16 -23 31 -21 35 1 3 6 14 9 24 10 27 23 20 56 -28z m752 16 c-13 -9
-71 -2 -71 8 0 4 19 5 41 3 23 -3 36 -8 30 -11z m1319 4 c0 -8 -4 -15 -10 -15
-5 0 -10 7 -10 15 0 8 5 15 10 15 6 0 10 -7 10 -15z m76 5 c19 0 34 -5 34 -11
0 -16 -93 -7 -98 10 -3 10 0 12 12 8 10 -4 33 -7 52 -7z m947 -31 c-26 -17
-28 -18 -34 -1 -11 31 0 41 33 30 l30 -11 -29 -18z m-2223 19 c0 -5 -13 -8
-30 -8 -16 0 -30 4 -30 10 0 5 13 8 30 7 16 -1 30 -5 30 -9z m70 -4 c0 -2 -7
-4 -15 -4 -8 0 -15 4 -15 10 0 5 7 7 15 4 8 -4 15 -8 15 -10z m1310 6 c0 -5
-4 -10 -10 -10 -5 0 -10 5 -10 10 0 6 5 10 10 10 6 0 10 -4 10 -10z m90 0 c0
-5 -18 -10 -40 -10 -22 0 -40 5 -40 10 0 6 18 10 40 10 22 0 40 -4 40 -10z
m-1299 -9 c-12 -8 -51 -4 -51 5 0 2 15 4 33 4 22 0 28 -3 18 -9z m128 -7 c2
-2 -12 -4 -32 -4 -20 0 -37 4 -37 10 0 8 58 3 69 -6z m819 -7 c2 -10 -3 -17
-12 -17 -18 0 -29 16 -21 31 9 14 29 6 33 -14z m422 19 c0 -3 -4 -8 -10 -11
-5 -3 -10 -1 -10 4 0 6 5 11 10 11 6 0 10 -2 10 -4z m60 -6 c0 -5 -9 -10 -19
-10 -11 0 -23 5 -26 10 -4 6 5 10 19 10 14 0 26 -4 26 -10z m70 0 c0 -5 -7
-10 -16 -10 -8 0 -12 5 -9 10 3 6 10 10 16 10 5 0 9 -4 9 -10z m103 4 c14 -14
-3 -19 -47 -16 -25 2 -46 8 -46 13 0 10 83 12 93 3z m-1400 -11 c-7 -2 -19 -2
-25 0 -7 3 -2 5 12 5 14 0 19 -2 13 -5z m587 -29 c0 -2 -7 -4 -15 -4 -8 0 -15
4 -15 10 0 5 7 7 15 4 8 -4 15 -8 15 -10z m-1143 -9 c0 -8 -6 -15 -13 -15 -8
0 -11 6 -8 15 4 8 9 15 13 15 4 0 8 -7 8 -15z m113 -5 c0 -19 -11 -26 -23 -14
-8 8 3 34 14 34 5 0 9 -9 9 -20z m60 -6 c0 -8 -7 -14 -15 -14 -15 0 -21 21 -9
33 10 9 24 -2 24 -19z m2027 -24 c-20 -52 -36 -30 -21 28 5 17 10 20 19 12 10
-8 10 -18 2 -40z m-1919 28 c-3 -7 -11 -13 -18 -13 -7 0 -15 6 -17 13 -3 7 4
12 17 12 13 0 20 -5 18 -12z m52 -3 c0 -8 -4 -15 -10 -15 -5 0 -10 7 -10 15 0
8 5 15 10 15 6 0 10 -7 10 -15z m1413 3 c26 0 50 -5 53 -10 4 -6 -59 -8 -172
-4 -99 3 -185 6 -191 6 -7 0 -13 4 -13 10 0 6 50 8 138 4 75 -3 158 -6 185 -6z
m-1533 -8 c0 -5 -4 -10 -10 -10 -5 0 -10 5 -10 10 0 6 5 10 10 10 6 0 10 -4
10 -10z m1170 -14 c0 -3 -4 -8 -10 -11 -5 -3 -10 -1 -10 4 0 6 5 11 10 11 6 0
10 -2 10 -4z m857 -13 c5 -14 -45 -68 -54 -60 -3 4 2 23 13 42 18 34 34 41 41
18z m-917 -23 c0 -16 -4 -30 -9 -30 -5 0 -8 12 -6 28 4 34 4 32 10 32 3 0 5
-13 5 -30z m448 20 c6 0 18 0 25 1 62 3 157 -4 157 -12 0 -8 -49 -14 -74 -10
-9 2 -344 11 -413 11 -18 0 -33 5 -33 11 0 7 49 9 163 4 89 -3 168 -6 175 -5z
m-471 -17 c2 -6 -4 -13 -13 -17 -21 -8 -26 -3 -18 18 7 18 25 17 31 -1z
m-1296 -3 c16 0 29 -4 29 -9 0 -5 -12 -8 -27 -6 -16 2 -36 4 -45 4 -10 1 -18
6 -18 12 0 6 7 8 16 5 9 -3 29 -6 45 -6z m89 -11 c0 -5 -4 -9 -10 -9 -5 0 -10
7 -10 16 0 8 5 12 10 9 6 -3 10 -10 10 -16z m1285 11 c3 -5 1 -10 -4 -10 -6 0
-11 5 -11 10 0 6 2 10 4 10 3 0 8 -4 11 -10z m-1230 -10 c-3 -5 -16 -10 -28
-9 -21 0 -21 1 -2 9 28 12 37 12 30 0z m200 -5 c6 -2 -20 -4 -57 -4 -38 -1
-68 3 -68 7 0 8 101 5 125 -3z m55 -6 c0 -5 -4 -9 -10 -9 -5 0 -10 7 -10 16 0
8 5 12 10 9 6 -3 10 -10 10 -16z m1080 6 c0 -7 -12 -10 -30 -7 -16 2 -30 8
-30 13 0 5 14 8 30 7 17 -1 30 -7 30 -13z m-1293 -1 c-3 -3 -12 -4 -19 -1 -8
3 -5 6 6 6 11 1 17 -2 13 -5z m273 -5 c0 -4 -11 -6 -25 -5 -14 0 -25 4 -25 8
0 4 11 7 25 6 14 -1 25 -5 25 -9z m169 -5 c2 -2 -14 -4 -37 -4 -23 0 -42 4
-42 9 0 9 69 4 79 -5z m100 0 c2 -2 -8 -4 -22 -4 -15 0 -30 0 -34 -1 -4 0 -9
4 -11 10 -3 10 55 5 67 -5z m31 -4 c0 -5 -4 -10 -10 -10 -5 0 -10 5 -10 10 0
6 5 10 10 10 6 0 10 -4 10 -10z m50 0 c0 -5 -4 -10 -10 -10 -5 0 -10 5 -10 10
0 6 5 10 10 10 6 0 10 -4 10 -10z m183 3 c-7 -2 -19 -2 -25 0 -7 3 -2 5 12 5
14 0 19 -2 13 -5z m64 1 c-3 -3 -12 -4 -19 -1 -8 3 -5 6 6 6 11 1 17 -2 13 -5z
m43 -4 c8 -5 11 -10 5 -10 -5 0 -17 5 -25 10 -8 5 -10 10 -5 10 6 0 17 -5 25
-10z m-247 -7 c-7 -2 -19 -2 -25 0 -7 3 -2 5 12 5 14 0 19 -2 13 -5z m430 -28
c-10 -8 -15 -17 -10 -21 4 -4 7 -2 7 4 0 7 6 12 14 12 8 0 16 5 18 11 2 6 4
-11 5 -38 0 -39 -1 -43 -7 -18 -6 25 -8 27 -14 13 -5 -10 -15 -18 -23 -18 -8
0 -12 4 -9 8 2 4 1 14 -4 22 -12 19 6 51 25 43 13 -5 13 -7 -2 -18z m437 9 c0
-6 -19 -9 -47 -8 -27 2 -92 4 -145 5 -54 0 -98 5 -98 11 0 5 60 8 145 6 93 -2
145 -7 145 -14z m-183 -29 c2 -6 -16 -11 -42 -13 -40 -1 -62 11 -35 20 22 7
74 2 77 -7z m-534 -2 c-7 -2 -19 -2 -25 0 -7 3 -2 5 12 5 14 0 19 -2 13 -5z
m1218 -13 c24 0 24 -9 2 -26 -27 -20 -33 -17 -32 19 0 17 3 26 6 20 2 -7 13
-13 24 -13z m-1224 -16 c-3 -3 -12 -4 -19 -1 -8 3 -5 6 6 6 11 1 17 -2 13 -5z
m57 -6 c-3 -4 -12 -8 -20 -8 -8 0 -13 4 -10 8 3 5 12 9 20 9 8 0 13 -4 10 -9z
m516 2 c6 -9 13 -9 30 0 18 10 24 9 31 -1 6 -10 9 -10 9 -2 0 8 7 10 22 4 12
-4 44 -4 72 2 28 5 52 5 53 0 2 -5 21 -7 43 -5 24 3 40 0 40 -6 0 -7 -54 -10
-155 -10 -85 1 -155 4 -155 7 0 3 -25 4 -55 3 -30 -2 -55 0 -55 5 0 14 112 16
120 3z m-570 -24 c0 -2 -7 -7 -16 -10 -8 -3 -12 -2 -9 4 6 10 25 14 25 6z m76
-14 c-21 -2 -42 0 -47 5 -4 4 13 6 39 3 l47 -5 -39 -3z m427 9 c4 0 7 -6 7
-11 0 -6 -13 -9 -30 -8 -16 1 -30 7 -30 14 0 9 17 11 53 5z m-414 -37 c2 -2
-12 -4 -32 -4 -20 0 -37 4 -37 9 0 9 60 4 69 -5z m1137 1 c4 -8 14 -15 23 -15
11 -1 6 -9 -17 -31 -19 -17 -37 -28 -40 -25 -3 4 0 12 6 18 16 16 15 28 -3 28
-13 0 -14 4 -5 20 13 24 28 26 36 5z m-1229 -1 c-3 -3 -12 -4 -19 -1 -8 3 -5
6 6 6 11 1 17 -2 13 -5z m312 -12 c9 -16 6 -19 -19 -20 -23 0 -30 4 -30 19 0
25 36 26 49 1z m307 5 c3 -3 17 -2 31 4 15 6 31 5 43 -1 11 -6 21 -6 24 -1 7
11 46 2 46 -10 0 -6 -65 -8 -150 -7 -140 3 -159 6 -144 20 7 8 142 3 150 -5z
m-546 -22 c0 -1 -12 -2 -26 -2 -17 0 -22 2 -13 7 10 7 39 3 39 -5z m1100 7 c0
-5 -14 -21 -31 -38 -17 -16 -44 -51 -60 -79 -27 -47 -29 -48 -29 -21 0 37 84
146 112 146 4 0 8 -4 8 -8z m-1177 -9 c-7 -2 -19 -2 -25 0 -7 3 -2 5 12 5 14
0 19 -2 13 -5z m722 -12 c3 -6 -36 -11 -97 -13 -120 -4 -168 0 -168 12 0 12
257 13 265 1z m590 -21 c-16 -16 -31 -28 -33 -25 -9 9 29 55 45 55 13 0 10 -7
-12 -30z m-860 -9 c3 -5 1 -12 -5 -16 -5 -3 -10 1 -10 9 0 18 6 21 15 7z m-75
-21 c0 -5 -2 -10 -4 -10 -3 0 -8 5 -11 10 -3 6 -1 10 4 10 6 0 11 -4 11 -10z
m1050 6 c0 -3 -4 -8 -10 -11 -5 -3 -10 -1 -10 4 0 6 5 11 10 11 6 0 10 -2 10
-4z m-1130 -32 c0 -19 -5 -25 -17 -22 -24 4 -28 35 -6 41 10 3 19 5 21 6 1 0
2 -11 2 -25z m80 -4 c0 -5 -4 -10 -10 -10 -5 0 -10 5 -10 10 0 6 5 10 10 10 6
0 10 -4 10 -10z m60 -30 c0 -5 -4 -10 -10 -10 -5 0 -10 5 -10 10 0 6 5 10 10
10 6 0 10 -4 10 -10z m-60 -10 c0 -5 -4 -10 -10 -10 -5 0 -10 5 -10 10 0 6 5
10 10 10 6 0 10 -4 10 -10z m-5 -30 c3 -5 1 -10 -4 -10 -6 0 -11 5 -11 10 0 6
2 10 4 10 3 0 8 -4 11 -10z m-1665 -30 c0 -5 -11 -10 -25 -10 -14 0 -25 5 -25
10 0 6 11 10 25 10 14 0 25 -4 25 -10z m1900 -1 c0 -5 -43 -9 -95 -9 -58 0
-95 4 -95 10 0 6 36 10 95 9 52 -1 95 -5 95 -10z m-310 -15 c0 -8 -5 -25 -12
-37 -11 -21 -11 -21 -19 -2 -14 36 -10 55 11 55 11 0 20 -7 20 -16z m80 6 c0
-5 -4 -10 -10 -10 -5 0 -10 5 -10 10 0 6 5 10 10 10 6 0 10 -4 10 -10z m-5
-30 c3 -5 1 -10 -4 -10 -6 0 -11 5 -11 10 0 6 2 10 4 10 3 0 8 -4 11 -10z
m703 -137 c-3 -76 -14 -167 -23 -203 -9 -36 -21 -85 -25 -110 -5 -25 -16 -63
-24 -85 -12 -33 -12 -41 -1 -45 10 -4 7 -11 -11 -27 l-24 -21 0 69 c0 38 3 68
8 68 22 -4 32 3 32 22 0 20 -4 21 -67 15 -38 -3 -165 -8 -283 -11 -118 -3
-263 -8 -322 -11 l-108 -6 0 29 0 30 253 7 c138 3 318 9 398 12 l147 7 21 156
c12 86 21 175 21 199 0 23 3 42 8 42 4 0 4 -62 0 -137z m-428 106 c0 -5 -11
-9 -25 -9 -17 0 -25 -6 -25 -17 0 -16 -11 -18 -90 -19 -50 -1 -90 3 -90 7 0 5
5 9 10 9 6 0 10 5 10 10 0 6 -7 10 -15 10 -8 0 -15 4 -15 8 0 5 54 9 120 10
69 0 120 -3 120 -9z m-270 -3 c0 -3 -4 -8 -10 -11 -5 -3 -10 -1 -10 4 0 6 5
11 10 11 6 0 10 -2 10 -4z m-5 -36 c3 -5 1 -10 -4 -10 -6 0 -11 5 -11 10 0 6
2 10 4 10 3 0 8 -4 11 -10z m106 -32 c0 -10 2 -10 6 0 6 15 143 17 143 2 0 -9
-18 -11 -120 -12 -55 -1 -80 2 -80 12 0 15 50 12 51 -2z m-101 -2 c0 -3 -4 -8
-10 -11 -5 -3 -10 -1 -10 4 0 6 5 11 10 11 6 0 10 -2 10 -4z m-5 -36 c3 -5 -1
-10 -9 -10 -9 0 -16 5 -16 10 0 6 4 10 9 10 6 0 13 -4 16 -10z m-1579 -32 l29
-31 -32 23 c-18 13 -33 27 -33 32 0 13 5 10 36 -24z m2554 -8 c0 -5 -9 -10
-21 -10 -11 0 -17 5 -14 10 3 6 13 10 21 10 8 0 14 -4 14 -10z m-540 -10 c0
-6 -11 -10 -25 -10 -14 0 -28 0 -32 -1 -4 0 -9 4 -11 9 -1 5 13 9 33 10 19 1
35 -3 35 -8z m-380 -10 c0 -5 -15 -10 -34 -10 -19 0 -38 5 -41 10 -4 6 10 10
34 10 23 0 41 -4 41 -10z m100 0 c0 -5 -13 -10 -30 -10 -16 0 -30 5 -30 10 0
6 14 10 30 10 17 0 30 -4 30 -10z m168 5 c-7 -8 -108 -9 -115 -1 -3 3 22 6 57
6 35 0 61 -2 58 -5z m212 -45 c0 -6 -53 -10 -147 -11 -82 0 -203 -2 -270 -5
-83 -4 -123 -2 -123 5 0 7 53 11 148 13 81 2 202 4 270 6 79 2 122 -1 122 -8z
m-150 -40 c0 -6 -35 -10 -90 -10 -49 0 -90 4 -90 8 0 5 41 10 90 11 57 1 90
-2 90 -9z m-1190 -10 c0 -5 -6 -10 -14 -10 -8 0 -23 -3 -33 -6 -16 -6 -16 -5
2 9 23 19 45 22 45 7z m850 0 c0 -5 -11 -10 -25 -10 -14 0 -25 5 -25 10 0 6
11 10 25 10 14 0 25 -4 25 -10z m-2680 -55 c-7 -20 -14 -25 -21 -18 -8 8 -5
21 7 44 21 39 31 20 14 -26z m2780 33 c0 -4 -19 -8 -42 -9 -24 0 -58 -2 -75
-4 -18 -2 -33 0 -33 5 0 8 43 13 123 16 15 0 27 -3 27 -8z m285 2 c-4 -6 -53
-10 -116 -10 -66 0 -109 4 -109 10 0 6 45 10 116 10 74 0 113 -4 109 -10z
m-1325 -20 c0 -5 -7 -10 -16 -10 -8 0 -12 5 -9 10 3 6 10 10 16 10 5 0 9 -4 9
-10z m-424 -38 c-7 -7 -46 9 -46 18 0 5 11 4 25 -2 14 -6 23 -13 21 -16z m364
12 c-38 -8 -90 -9 -90 -2 0 4 24 7 53 7 28 -1 45 -3 37 -5z m-220 -14 c0 -5
-4 -10 -10 -10 -5 0 -10 5 -10 10 0 6 5 10 10 10 6 0 10 -4 10 -10z m63 3 c-7
-2 -21 -2 -30 0 -10 3 -4 5 12 5 17 0 24 -2 18 -5z m1030 -7 c7 -19 -18 -42
-28 -26 -8 13 1 40 14 40 5 0 11 -6 14 -14z m-1168 -6 c-3 -5 -12 -7 -20 -3
-21 7 -19 13 6 13 11 0 18 -4 14 -10z m1341 -8 c-7 -12 -96 -15 -96 -2 0 5 22
10 51 10 27 0 48 -4 45 -8z m-728 -208 c-10 -10 -28 6 -28 24 0 15 1 15 17 -1
9 -9 14 -19 11 -23z m383 7 c-7 -13 -8 -22 -1 -26 5 -3 10 0 10 8 0 8 7 20 15
27 13 10 15 9 15 -9 0 -13 4 -19 11 -16 11 7 49 -22 49 -37 0 -4 -38 -8 -85
-8 -88 0 -103 7 -60 30 14 7 25 17 25 22 0 10 23 37 28 33 2 -2 -1 -12 -7 -24z
m-1106 9 c4 -6 -6 -10 -22 -10 -22 0 -25 2 -13 10 19 12 27 12 35 0z m2229
-12 c-3 -7 -16 -21 -30 -32 -26 -18 -26 -18 -22 4 2 13 11 24 21 26 11 1 21 5
25 8 9 10 12 7 6 -6z m-3547 -71 c1 -28 -5 -80 -14 -115 -15 -58 -18 -62 -45
-62 -16 0 -31 6 -34 14 -10 26 27 136 52 155 13 11 24 25 24 33 0 11 8 28 14
28 1 0 2 -24 3 -53z m2790 6 c-3 -10 -5 -4 -5 12 0 17 2 24 5 18 2 -7 2 -21 0
-30z m773 33 c0 -3 -13 -14 -30 -26 -16 -12 -30 -18 -30 -13 0 4 12 15 28 25
32 19 32 19 32 14z m-1376 -71 c16 -24 16 -25 -9 -25 -20 0 -25 5 -25 25 0 14
4 25 9 25 5 0 16 -11 25 -25z m416 16 c0 -10 -159 -35 -187 -28 -10 2 10 7 45
12 34 4 62 11 62 14 0 4 18 8 40 9 22 2 40 -1 40 -7z m860 -25 c0 -2 -7 -6
-15 -10 -8 -3 -15 -1 -15 4 0 6 7 10 15 10 8 0 15 -2 15 -4z m-905 -36 c54 -6
50 -7 -45 -8 -58 0 -123 3 -145 7 -33 7 -26 9 45 9 47 0 112 -4 145 -8z m882
-15 c-15 -16 -22 -11 -13 10 3 9 10 13 16 10 6 -4 5 -11 -3 -20z m-191 -43
c-18 -18 -29 -12 -20 11 3 9 12 13 21 10 13 -5 13 -8 -1 -21z m189 -12 c-3 -5
-11 -10 -16 -10 -6 0 -7 5 -4 10 3 6 11 10 16 10 6 0 7 -4 4 -10z"/>
<path d="M3856 1641 c-3 -5 5 -16 19 -25 21 -14 25 -14 25 -2 0 18 -36 40 -44
27z"/>
<path d="M3863 1603 c-14 -5 -18 -73 -5 -73 12 0 42 34 42 47 0 15 -23 31 -37
26z"/>
<path d="M3070 830 c0 -4 32 -8 70 -7 39 0 70 4 70 8 0 5 -31 8 -70 8 -38 0
-70 -4 -70 -9z"/>
<path d="M3823 3513 c-14 -5 -18 -39 -5 -47 10 -6 143 31 156 44 10 10 -126
13 -151 3z"/>
<path d="M4008 3513 c7 -3 16 -2 19 1 4 3 -2 6 -13 5 -11 0 -14 -3 -6 -6z"/>
<path d="M4092 3508 c-12 -16 -9 -61 5 -65 6 -2 48 5 93 16 46 12 84 21 86 21
2 0 4 9 4 20 0 18 -7 20 -89 20 -59 0 -92 -4 -99 -12z"/>
<path d="M4300 3505 c0 -19 20 -19 85 -1 l50 14 -67 1 c-54 1 -68 -2 -68 -14z"/>
<path d="M4475 3506 c-28 -7 -56 -16 -63 -20 -15 -9 -16 -72 -2 -81 10 -6 53
1 153 26 35 9 37 12 37 49 0 40 0 40 -37 39 -21 0 -61 -6 -88 -13z"/>
<path d="M4625 3498 c1 -13 3 -28 4 -35 0 -6 11 -13 24 -16 19 -3 19 -4 -8
-11 -98 -23 -115 -34 -115 -74 0 -32 13 -33 110 -14 l85 17 0 53 c-1 48 1 52
23 52 19 0 22 -3 13 -14 -6 -7 -8 -27 -5 -45 l7 -32 51 6 c28 4 59 11 68 16 9
5 28 9 42 9 24 0 26 4 26 39 0 61 -7 71 -51 71 -21 0 -39 -4 -39 -10 0 -5 5
-10 12 -10 20 0 -4 -17 -34 -24 -17 -4 -28 -2 -28 4 0 5 5 10 10 10 6 0 10 7
10 15 0 12 -18 15 -104 15 -101 0 -103 0 -101 -22z"/>
<path d="M3709 3485 c-65 -18 -89 -33 -82 -50 4 -12 14 -14 42 -9 71 13 106
30 109 52 4 25 -2 25 -69 7z"/>
<path d="M3979 3481 c-83 -23 -89 -26 -89 -58 0 -25 1 -26 56 -19 30 3 71 13
89 20 28 12 33 19 31 42 -2 16 -7 29 -12 30 -5 1 -39 -6 -75 -15z"/>
<path d="M4275 3456 l-80 -23 -3 -36 c-4 -43 -1 -43 92 -26 98 18 104 22 97
65 -3 20 -11 38 -16 40 -6 1 -46 -8 -90 -20z"/>
<path d="M3510 3430 c-33 -10 -56 -24 -58 -34 -4 -19 21 -21 82 -7 46 11 59
22 50 44 -7 20 -4 20 -74 -3z"/>
<path d="M3775 3431 c-53 -14 -60 -19 -63 -44 -5 -38 14 -42 89 -20 60 18 64
21 64 48 0 36 -11 38 -90 16z"/>
<path d="M4075 3407 l-80 -22 0 -35 c0 -31 3 -35 29 -40 l30 -5 -28 -13 c-52
-23 -61 -18 -58 38 4 58 5 57 -82 33 -75 -20 -88 -29 -84 -62 3 -23 7 -26 43
-26 22 1 56 4 75 9 l35 8 -19 -21 c-11 -12 -25 -20 -31 -17 -6 2 -71 -11 -144
-30 -73 -19 -146 -35 -163 -36 -16 -1 -32 -6 -34 -10 -3 -4 -17 -8 -31 -8 -25
0 -68 -11 -120 -31 -16 -6 -23 -17 -23 -35 0 -25 2 -25 43 -19 23 4 60 13 82
21 22 8 49 14 59 14 19 0 65 13 114 31 12 5 22 17 22 26 1 17 2 17 15 -1 13
-17 18 -17 92 -4 71 13 78 16 78 38 0 13 6 25 13 28 7 2 12 -5 12 -17 0 -25
-3 -25 93 -4 76 18 77 18 77 50 0 19 -7 36 -16 41 -12 7 -6 11 26 16 68 11 76
19 72 65 -2 23 -7 41 -11 40 -3 0 -42 -10 -86 -22z"/>
<path d="M3343 3389 c-38 -12 -63 -25 -63 -34 0 -24 18 -27 80 -9 52 14 60 20
60 40 0 28 3 28 -77 3z"/>
<path d="M3580 3374 c-36 -13 -76 -24 -88 -24 -50 0 -133 -31 -142 -53 -7 -18
-9 -18 -9 -4 -1 21 -22 22 -89 2 -47 -14 -52 -18 -52 -45 0 -35 17 -38 71 -16
19 8 77 21 129 30 52 9 102 23 110 31 9 8 19 12 23 9 10 -10 146 40 150 56 12
45 -9 48 -103 14z"/>
<path d="M4410 3383 c-36 -8 -72 -18 -80 -22 -17 -9 -26 -59 -13 -71 10 -10
140 12 171 29 15 8 21 18 18 28 -3 8 -6 23 -6 34 0 22 -3 22 -90 2z"/>
<path d="M4888 3369 c-19 -10 -25 -63 -9 -73 5 -3 23 -3 40 0 28 6 31 10 31
45 0 34 -3 39 -22 39 -13 0 -31 -5 -40 -11z"/>
<path d="M4722 3338 l-83 -20 3 -42 c2 -29 7 -41 18 -39 48 5 148 26 167 33
19 8 23 17 21 50 -2 47 -2 47 -126 18z"/>
<path d="M4195 3331 c-76 -16 -80 -18 -83 -45 -2 -16 1 -33 6 -38 11 -11 140
8 159 24 14 11 18 79 6 77 -5 -1 -44 -9 -88 -18z"/>
<path d="M3702 3314 c-78 -16 -90 -25 -84 -64 5 -35 10 -36 97 -14 64 16 65
17 65 50 0 18 -3 35 -7 37 -5 2 -37 -2 -71 -9z"/>
<path d="M3005 3292 c-33 -11 -51 -23 -53 -36 -3 -15 0 -17 14 -11 11 4 43 13
72 18 39 8 52 14 50 26 -4 22 -25 23 -83 3z"/>
<path d="M4495 3281 l-70 -17 0 -40 c0 -29 4 -38 15 -36 8 2 50 11 93 19 l77
16 0 38 c0 46 -6 47 -115 20z"/>
<path d="M3515 3264 c-33 -8 -67 -23 -76 -33 -13 -16 -17 -17 -25 -4 -8 12
-19 11 -76 -7 -60 -18 -68 -24 -68 -46 0 -14 7 -27 16 -31 23 -8 116 16 131
34 8 10 16 12 28 5 12 -6 38 -4 79 6 33 8 62 15 63 16 0 1 4 18 8 39 8 42 10
42 -80 21z"/>
<path d="M3125 3255 c-16 -8 -43 -14 -58 -15 -25 0 -27 -3 -23 -27 2 -16 5
-29 5 -29 1 -1 22 3 49 8 26 5 53 11 60 12 7 1 12 5 12 9 0 4 0 18 0 32 0 28
-3 29 -45 10z"/>
<path d="M4909 3256 c-5 -5 -141 -36 -179 -41 -36 -4 -161 -35 -187 -46 -17
-6 -23 -17 -23 -38 0 -16 3 -32 8 -34 12 -8 188 27 204 40 8 7 18 10 21 7 3
-4 49 2 102 12 l95 19 0 42 c0 35 -3 43 -18 43 -10 0 -21 -2 -23 -4z"/>
<path d="M4325 3239 c-112 -26 -115 -28 -115 -59 0 -27 3 -30 33 -29 17 0 57
6 87 12 54 12 55 13 58 50 4 41 3 41 -63 26z"/>
<path d="M4075 3187 c-44 -11 -50 -15 -53 -40 -4 -36 10 -40 88 -28 74 12 83
19 74 55 -7 30 -25 32 -109 13z"/>
<path d="M3940 3159 c-112 -29 -110 -28 -110 -59 0 -16 4 -31 8 -34 4 -2 40 3
80 11 l72 16 0 39 c0 21 -3 38 -7 37 -5 0 -24 -5 -43 -10z"/>
<path d="M4455 3150 c-11 -4 -43 -11 -70 -14 -65 -9 -77 -17 -77 -51 0 -25 18
-48 32 -41 3 2 40 11 83 20 74 17 77 19 77 45 0 35 -18 51 -45 41z"/>
<path d="M3700 3108 c-46 -13 -60 -26 -60 -54 0 -28 16 -30 103 -13 44 9 57
16 57 30 0 49 -25 59 -100 37z"/>
<path d="M4180 3094 c-35 -8 -67 -18 -71 -22 -4 -4 -5 -22 -2 -40 4 -24 10
-32 20 -28 8 3 44 11 81 16 71 12 82 20 82 63 0 32 -10 33 -110 11z"/>
<path d="M3522 3067 c-42 -8 -53 -14 -58 -33 -12 -49 -2 -54 71 -35 67 18 85
31 85 64 0 19 -16 20 -98 4z"/>
<path d="M4005 3054 c-33 -7 -68 -18 -78 -24 -10 -6 -22 -8 -27 -5 -11 7 -152
-23 -164 -35 -6 -6 -5 -18 1 -33 10 -22 15 -23 66 -16 85 11 97 17 98 47 0 27
0 27 10 4 6 -16 15 -22 26 -18 16 4 131 26 140 26 2 0 3 16 3 35 0 19 -3 35
-7 34 -5 0 -35 -7 -68 -15z"/>
<path d="M3375 3028 c-22 -6 -50 -12 -63 -14 -19 -4 -23 -10 -20 -32 3 -24 7
-27 34 -25 18 2 49 8 70 15 31 10 39 18 39 37 0 29 -8 31 -60 19z"/>
<path d="M3615 2976 c-48 -11 -50 -12 -50 -46 0 -34 1 -35 35 -32 19 1 52 7
73 13 34 9 37 13 37 44 0 40 -8 42 -95 21z"/>
<path d="M3469 2945 c-69 -14 -79 -20 -79 -50 0 -37 4 -38 128 -10 17 4 22 12
22 35 0 16 -3 31 -7 33 -5 2 -33 -1 -64 -8z"/>
<path d="M3275 2899 c-38 -11 -92 -22 -120 -25 -75 -9 -97 -20 -93 -47 3 -20
7 -22 63 -18 33 2 62 6 65 11 3 4 31 10 62 14 88 10 108 20 108 56 0 16 -3 30
-7 29 -5 0 -39 -9 -78 -20z"/>
<path d="M4915 2911 c-25 -5 -30 -11 -33 -40 -4 -42 4 -50 46 -44 30 5 32 8
32 44 0 44 -4 48 -45 40z"/>
<path d="M4893 2783 c-8 -2 -13 -22 -13 -44 0 -41 8 -46 58 -33 18 5 22 13 22
45 0 36 -2 39 -27 38 -16 0 -34 -3 -40 -6z"/>
<path d="M4915 2671 c-23 -5 -31 -12 -33 -31 -4 -39 11 -53 47 -45 28 6 31 10
31 46 0 21 -3 38 -7 38 -5 -1 -21 -4 -38 -8z"/>
<path d="M4898 2549 c-22 -13 -24 -67 -3 -75 8 -4 26 -3 40 0 21 5 25 12 25
46 0 35 -3 40 -22 40 -13 0 -31 -5 -40 -11z"/>
<path d="M4915 2441 c-26 -5 -30 -11 -33 -44 l-3 -37 40 0 c40 0 44 3 44 35 0
38 -4 55 -10 54 -5 -1 -21 -4 -38 -8z"/>
<path d="M4892 2318 c-15 -15 -16 -50 -1 -65 6 -6 24 -7 42 -4 28 6 32 11 35
44 3 36 2 37 -30 37 -19 0 -39 -5 -46 -12z"/>
<path d="M4907 2213 c-14 -4 -17 -13 -15 -41 3 -35 5 -37 38 -37 34 0 35 1 35
40 0 42 -13 50 -58 38z"/>
<path d="M4894 2086 c-3 -8 -4 -27 -2 -43 3 -25 7 -28 38 -28 34 0 35 1 38 43
l3 42 -36 0 c-21 0 -38 -6 -41 -14z"/>
<path d="M4930 1981 c-32 -5 -35 -9 -35 -41 0 -33 2 -35 38 -38 l37 -3 0 45
c0 25 -1 45 -2 45 -2 -1 -19 -4 -38 -8z"/>
<path d="M4901 1856 c-6 -7 -8 -27 -5 -45 6 -27 10 -31 40 -31 34 0 34 1 34
45 0 43 -1 45 -29 45 -16 0 -34 -6 -40 -14z"/>
<path d="M4907 1623 c-13 -13 -7 -61 9 -67 41 -16 54 -7 54 34 0 37 -2 40 -28
40 -16 0 -32 -3 -35 -7z"/>
<path d="M4912 1511 c-5 -3 -12 -22 -14 -41 -3 -34 -2 -35 35 -38 l37 -3 0 43
c0 38 -3 43 -24 44 -13 1 -28 -1 -34 -5z"/>
<path d="M5431 684 c0 -11 3 -14 6 -6 3 7 2 16 -1 19 -3 4 -6 -2 -5 -13z"/>
<path d="M6057 203 c-4 -3 -24 -9 -44 -13 -36 -7 -36 -8 -7 -9 16 0 39 6 50
14 10 8 16 15 13 15 -3 0 -9 -3 -12 -7z"/>
<path d="M6138 163 c17 -2 47 -2 65 0 17 2 3 4 -33 4 -36 0 -50 -2 -32 -4z"/>
<path d="M5841 144 c0 -11 3 -14 6 -6 3 7 2 16 -1 19 -3 4 -6 -2 -5 -13z"/>
<path d="M5773 114 c-10 -33 -9 -34 18 -34 25 0 29 4 29 29 0 44 -33 48 -47 5z"/>
<path d="M6190 16 c0 -11 10 -16 31 -16 38 0 35 24 -4 28 -19 2 -27 -1 -27
-12z"/>
</g>
</svg>
