<?xml version="1.0" standalone="no"?>
<!DOCTYPE svg PUBLIC "-//W3C//DTD SVG 20010904//EN"
 "http://www.w3.org/TR/2001/REC-SVG-20010904/DTD/svg10.dtd">
<svg version="1.0" xmlns="http://www.w3.org/2000/svg"
 width="470.000000pt" height="626.000000pt" viewBox="0 0 470.000000 626.000000"
 preserveAspectRatio="xMidYMid meet">

<g transform="translate(0.000000,626.000000) scale(0.100000,-0.100000)"
fill="#000000" stroke="none">
<path d="M0 3130 l0 -3130 2350 0 2350 0 0 761 c0 663 -2 762 -15 775 -8 9
-15 20 -15 25 0 5 7 9 15 9 8 0 15 5 15 10 0 6 -9 10 -20 10 -11 0 -20 5 -20
11 0 6 9 9 20 6 13 -3 20 0 20 9 0 9 -11 14 -30 14 -16 0 -30 5 -30 10 0 6 10
9 23 8 12 -2 24 2 27 7 3 6 -10 11 -27 13 -18 2 -33 8 -33 14 0 6 10 8 25 4
18 -5 25 -2 25 9 0 10 -10 15 -30 15 -16 0 -30 5 -30 11 0 5 10 9 22 7 11 -2
23 3 25 10 3 8 -6 12 -26 12 -16 0 -33 5 -37 11 -4 7 2 10 17 8 13 -2 26 1 29
6 3 6 -10 11 -27 13 -38 4 -45 22 -8 22 14 0 25 5 25 10 0 6 -13 10 -30 10
-16 0 -30 5 -30 11 0 5 9 9 20 7 10 -2 20 2 22 7 2 6 -12 11 -29 13 -18 2 -33
8 -33 13 0 6 11 9 25 7 13 -2 25 2 27 7 2 6 -12 11 -29 13 -18 2 -33 8 -33 14
0 6 10 8 25 4 18 -5 25 -2 25 9 0 10 -10 15 -30 15 -16 0 -30 5 -30 11 0 7 10
9 26 5 19 -5 25 -3 22 6 -3 7 -15 15 -29 16 -13 2 -28 8 -34 14 -7 7 -2 9 17
4 15 -3 29 -2 33 3 6 10 -25 23 -45 19 -7 -2 -15 3 -17 10 -4 9 2 11 21 6 38
-9 32 11 -6 24 -33 10 -33 10 -5 11 32 1 37 20 5 22 -13 1 -26 1 -30 0 -5 0
-8 4 -8 10 0 5 9 9 20 7 10 -2 19 2 20 7 0 6 -10 12 -22 13 -13 2 -27 8 -33
14 -7 7 -2 9 17 4 15 -3 29 -2 32 3 7 10 -16 21 -45 21 -10 0 -19 5 -19 10 0
6 11 8 25 4 15 -4 25 -2 25 5 0 6 -7 12 -15 12 -29 3 -33 4 -42 13 -4 5 4 6
20 2 20 -5 27 -3 27 9 0 10 -10 15 -30 15 -16 0 -30 5 -30 10 0 6 11 8 25 4
16 -4 25 -2 25 5 0 6 -13 14 -30 18 -16 3 -30 9 -30 13 0 4 11 5 25 2 15 -2
25 0 25 7 0 6 -13 11 -30 11 -16 0 -30 5 -30 10 0 6 11 8 25 4 27 -7 33 4 13
24 -7 7 -8 12 -2 12 16 0 54 -44 54 -63 0 -10 7 -20 15 -23 8 -4 15 -12 15
-20 0 -8 3 -14 8 -14 4 0 39 -29 77 -64 l70 -64 3 50 c2 30 -2 56 -10 66 -10
12 -10 14 0 8 7 -4 12 -2 12 7 0 13 -108 115 -159 149 -29 20 -45 23 -36 8 4
-7 -3 -8 -22 -4 -42 10 -64 24 -57 36 4 5 0 14 -7 19 -11 7 -10 9 4 9 16 0 16
2 4 14 -8 8 -24 12 -40 9 -22 -4 -27 -2 -27 13 0 18 10 19 170 16 l170 -4 0
1226 0 1225 -42 11 c-64 16 -95 28 -77 29 9 1 38 -6 65 -14 27 -8 50 -15 52
-15 1 0 2 288 2 640 0 562 -2 640 -15 640 -8 0 -15 -5 -15 -11 0 -18 -34 -54
-55 -57 -11 -2 -24 -8 -30 -13 -12 -12 -65 -12 -65 1 0 6 -7 10 -15 10 -8 0
-15 4 -15 8 0 5 -11 14 -25 20 -14 6 -25 18 -25 27 0 13 -239 15 -2220 15
l-2220 0 0 -3130z m2340 2999 l0 -59 -35 0 -35 0 0 54 c0 29 5 68 12 86 l11
33 24 -27 c18 -22 23 -39 23 -87z m2279 -112 c26 -22 40 -57 23 -57 -5 0 -19
11 -32 25 -12 13 -26 23 -29 20 -4 -2 -7 5 -7 16 0 25 12 24 45 -4z m-4121
-211 c3 -13 -1 -17 -14 -14 -11 2 -20 11 -22 22 -3 13 1 17 14 14 11 -2 20
-11 22 -22z m516 -7 c-3 -5 -11 -3 -18 4 -18 16 -8 31 10 16 7 -6 11 -15 8
-20z m160 24 c4 -4 21 -8 39 -9 62 -3 61 -7 -3 -14 -43 -5 -67 -4 -72 3 -13
21 18 38 36 20z m-519 -13 c4 -6 -7 -10 -27 -9 -27 0 -30 2 -13 9 27 12 33 12
40 0z m405 6 c0 -2 -7 -6 -15 -10 -8 -3 -15 -1 -15 4 0 6 7 10 15 10 8 0 15
-2 15 -4z m270 -6 c0 -5 -4 -10 -10 -10 -5 0 -10 5 -10 10 0 6 5 10 10 10 6 0
10 -4 10 -10z m63 -5 c-4 -16 -43 -14 -43 2 0 9 8 13 23 11 12 -2 21 -7 20
-13z m150 6 c10 -1 15 -5 12 -11 -8 -13 -95 -13 -95 -1 0 11 27 19 50 15 8 -1
23 -3 33 -3z m67 -5 c0 -8 -9 -14 -19 -13 -15 1 -17 4 -9 14 14 17 28 16 28
-1z m-165 -6 c-3 -5 -13 -10 -21 -10 -8 0 -14 5 -14 10 0 6 9 10 21 10 11 0
17 -4 14 -10z m1635 0 c-20 -13 -40 -13 -40 0 0 6 12 10 28 10 21 0 24 -2 12
-10z m60 -10 c0 -13 -7 -20 -20 -20 -13 0 -20 7 -20 20 0 13 7 20 20 20 13 0
20 -7 20 -20z m50 11 c0 -5 -9 -11 -20 -14 -20 -5 -26 3 -13 16 9 10 33 8 33
-2z m434 -1 c18 -1 18 -2 -2 -16 -32 -22 -212 -18 -212 5 0 12 -2 13 -8 4 -8
-13 -47 -18 -114 -15 -28 2 -38 6 -38 18 0 17 9 17 374 4z m-399 -9 c-3 -5 -1
-12 5 -16 17 -10 11 -35 -7 -35 -15 0 -16 2 -3 10 10 6 11 10 3 10 -7 0 -13 9
-13 20 0 11 5 20 11 20 5 0 8 -4 4 -9z m455 -6 c0 -8 -7 -15 -15 -15 -8 0 -15
7 -15 15 0 8 7 15 15 15 8 0 15 -7 15 -15z m56 6 c-10 -16 -46 -20 -46 -5 0 8
10 14 26 14 14 0 23 -4 20 -9z m35 -5 c-9 -10 -9 -15 -1 -18 8 -2 7 -37 -5
-123 -20 -156 -22 -165 -41 -165 -13 0 -15 7 -11 28 3 15 13 87 23 160 13 102
20 132 32 132 11 0 12 -3 3 -14z m-2661 -6 c-13 -8 -12 -10 3 -10 14 0 17 -8
16 -42 -2 -35 -3 -37 -6 -13 -3 17 -11 34 -19 38 -20 11 -17 37 4 37 14 0 15
-2 2 -10z m-610 -21 c0 -5 -4 -9 -10 -9 -5 0 -10 7 -10 16 0 8 5 12 10 9 6 -3
10 -10 10 -16z m55 10 c10 -15 -1 -23 -20 -15 -9 3 -13 10 -10 16 8 13 22 13
30 -1z m103 -7 c3 -9 -2 -13 -14 -10 -9 1 -19 9 -22 16 -3 9 2 13 14 10 9 -1
19 -9 22 -16z m39 12 c-3 -3 -12 -4 -19 -1 -8 3 -5 6 6 6 11 1 17 -2 13 -5z
m881 -11 c-10 -2 -26 -2 -35 0 -10 3 -2 5 17 5 19 0 27 -2 18 -5z m149 1 c-3
-3 -12 -4 -19 -1 -8 3 -5 6 6 6 11 1 17 -2 13 -5z m2148 -4 c3 -5 1 -10 -4
-10 -6 0 -11 5 -11 10 0 6 2 10 4 10 3 0 8 -4 11 -10z m85 -2 c0 -5 -13 -8
-30 -8 -16 0 -30 4 -30 8 0 4 14 8 30 7 17 0 30 -3 30 -7z m128 -3 c3 -3 -24
-5 -59 -4 -42 0 -57 3 -44 8 20 8 94 5 103 -4z m-768 -5 c0 -5 -4 -10 -10 -10
-5 0 -10 5 -10 10 0 6 5 10 10 10 6 0 10 -4 10 -10z m50 -6 c0 -8 -19 -13 -24
-6 -3 5 1 9 9 9 8 0 15 -2 15 -3z m-2870 -19 c0 -8 -4 -15 -10 -15 -5 0 -10 7
-10 15 0 8 5 15 10 15 6 0 10 -7 10 -15z m48 -4 c3 -8 -1 -12 -9 -9 -7 2 -15
10 -17 17 -3 8 1 12 9 9 7 -2 15 -10 17 -17z m559 -33 c-2 -13 -4 -5 -4 17 -1
22 1 32 4 23 2 -10 2 -28 0 -40z m516 35 c-7 -2 -19 -2 -25 0 -7 3 -2 5 12 5
14 0 19 -2 13 -5z m2287 -3 c0 -5 -4 -10 -10 -10 -5 0 -10 5 -10 10 0 6 5 10
10 10 6 0 10 -4 10 -10z m68 -5 c3 -3 -7 -5 -21 -5 -15 0 -27 4 -27 9 0 10 38
7 48 -4z m-668 -5 c0 -5 -5 -10 -11 -10 -5 0 -7 5 -4 10 3 6 8 10 11 10 2 0 4
-4 4 -10z m828 3 c-21 -2 -57 -2 -80 0 -24 2 -7 4 37 4 44 0 63 -2 43 -4z
m-768 -7 c0 -11 -19 -15 -25 -6 -3 5 1 10 9 10 9 0 16 -2 16 -4z m-2840 -22
c0 -17 -22 -14 -28 4 -2 7 3 12 12 12 9 0 16 -7 16 -16z m660 12 c0 -3 -4 -8
-10 -11 -5 -3 -10 -1 -10 4 0 6 5 11 10 11 6 0 10 -2 10 -4z m473 -13 c-7 -2
-19 -2 -25 0 -7 3 -2 5 12 5 14 0 19 -2 13 -5z m2327 -5 c0 -11 -41 -10 -59 1
-10 6 -2 9 22 8 21 0 37 -5 37 -9z m51 -6 c-7 -2 -18 1 -23 6 -8 8 -4 9 13 5
13 -4 18 -8 10 -11z m-2822 -769 c1 -14 -5 -23 -14 -23 -8 0 -15 6 -15 13 0 8
-18 174 -40 371 -40 353 -49 481 -24 316 l13 -85 -4 95 c-2 52 16 -76 40 -285
24 -209 44 -390 44 -402z m-681 746 c-2 -6 -8 -10 -13 -10 -5 0 -11 4 -13 10
-2 6 4 11 13 11 9 0 15 -5 13 -11z m872 7 c0 -3 -4 -8 -10 -11 -5 -3 -10 -1
-10 4 0 6 5 11 10 11 6 0 10 -2 10 -4z m43 -3 c-7 -2 -19 -2 -25 0 -7 3 -2 5
12 5 14 0 19 -2 13 -5z m217 -3 c0 -5 -10 -10 -22 -9 -22 0 -22 1 -3 9 11 5
21 9 23 9 1 1 2 -3 2 -9z m40 6 c0 -3 -4 -8 -10 -11 -5 -3 -10 -1 -10 4 0 6 5
11 10 11 6 0 10 -2 10 -4z m2295 -16 c-3 -5 -15 -10 -26 -10 -10 0 -19 5 -19
10 0 6 12 10 26 10 14 0 23 -4 19 -10z m-668 -6 c-3 -3 -12 -4 -19 -1 -8 3 -5
6 6 6 11 1 17 -2 13 -5z m286 -11 c-7 -2 -21 -2 -30 0 -10 3 -4 5 12 5 17 0
24 -2 18 -5z m-3078 -13 c3 -5 -1 -10 -9 -10 -9 0 -16 5 -16 10 0 6 4 10 9 10
6 0 13 -4 16 -10z m838 3 c-7 -2 -21 -2 -30 0 -10 3 -4 5 12 5 17 0 24 -2 18
-5z m1947 -13 c0 -5 -5 -10 -11 -10 -5 0 -7 5 -4 10 3 6 8 10 11 10 2 0 4 -4
4 -10z m671 1 c-12 -8 -51 -4 -51 5 0 2 15 4 33 4 22 0 28 -3 18 -9z m-781
-21 c0 -11 -7 -20 -15 -20 -8 0 -15 9 -15 20 0 11 7 20 15 20 8 0 15 -9 15
-20z m-2670 -5 c0 -8 -4 -15 -9 -15 -13 0 -22 16 -14 24 11 11 23 6 23 -9z
m650 5 c0 -5 -5 -10 -11 -10 -5 0 -7 5 -4 10 3 6 8 10 11 10 2 0 4 -4 4 -10z
m378 -7 c-10 -2 -26 -2 -35 0 -10 3 -2 5 17 5 19 0 27 -2 18 -5z m89 1 c-3 -3
-12 -4 -19 -1 -8 3 -5 6 6 6 11 1 17 -2 13 -5z m121 -1 c-10 -2 -26 -2 -35 0
-10 3 -2 5 17 5 19 0 27 -2 18 -5z m202 3 c0 -9 -39 -13 -51 -5 -10 6 -4 9 19
9 17 0 32 -2 32 -4z m50 -6 c0 -5 -4 -10 -9 -10 -6 0 -13 5 -16 10 -3 6 1 10
9 10 9 0 16 -4 16 -10z m1850 -5 c0 -9 -6 -12 -15 -9 -8 4 -12 10 -9 15 8 14
24 10 24 -6z m105 0 c6 -2 -11 -4 -37 -4 -27 -1 -48 3 -48 7 0 7 62 5 85 -3z
m55 -1 c0 -2 -9 -4 -20 -4 -11 0 -20 4 -20 9 0 5 9 7 20 4 11 -3 20 -7 20 -9z
m-720 -4 c0 -5 -7 -10 -16 -10 -8 0 -12 5 -9 10 3 6 10 10 16 10 5 0 9 -4 9
-10z m-2752 -28 c2 -7 -3 -12 -12 -12 -9 0 -16 7 -16 16 0 17 22 14 28 -4z
m642 8 c12 -8 11 -10 -7 -10 -13 0 -23 5 -23 10 0 13 11 13 30 0z m340 0 c0
-5 -9 -10 -21 -10 -11 0 -17 5 -14 10 3 6 13 10 21 10 8 0 14 -4 14 -10z m90
0 c0 -5 -10 -10 -22 -10 -19 0 -20 2 -8 10 19 13 30 13 30 0z m2320 -16 c0 -2
-16 -4 -35 -4 -19 0 -35 4 -35 8 0 4 16 6 35 4 19 -2 35 -6 35 -8z m41 -2 c-7
-2 -18 1 -23 6 -8 8 -4 9 13 5 13 -4 18 -8 10 -11z m-681 4 c0 -11 -19 -15
-25 -6 -3 5 1 10 9 10 9 0 16 -2 16 -4z m-2750 -26 c0 -5 -4 -10 -9 -10 -6 0
-13 5 -16 10 -3 6 1 10 9 10 9 0 16 -4 16 -10z m640 0 c0 -5 -4 -10 -9 -10 -6
0 -13 5 -16 10 -3 6 1 10 9 10 9 0 16 -4 16 -10z m158 3 c-10 -2 -28 -2 -40 0
-13 2 -5 4 17 4 22 1 32 -1 23 -4z m2765 -16 c-7 -11 -193 -7 -193 4 0 5 45 8
99 7 54 -2 97 -7 94 -11z m-826 -3 c-3 -3 -12 -4 -19 -1 -8 3 -5 6 6 6 11 1
17 -2 13 -5z m876 -1 c-7 -2 -19 -2 -25 0 -7 3 -2 5 12 5 14 0 19 -2 13 -5z
m-3603 -24 c0 -5 -7 -9 -15 -9 -15 0 -20 12 -9 23 8 8 24 -1 24 -14z m957 5
c-3 -3 -12 -4 -19 -1 -8 3 -5 6 6 6 11 1 17 -2 13 -5z m40 0 c-3 -3 -12 -4
-19 -1 -8 3 -5 6 6 6 11 1 17 -2 13 -5z m121 -1 c-16 -2 -40 -2 -55 0 -16 2
-3 4 27 4 30 0 43 -2 28 -4z m72 3 c0 -3 -4 -8 -10 -11 -5 -3 -10 -1 -10 4 0
6 5 11 10 11 6 0 10 -2 10 -4z m1540 -16 c0 -5 -7 -10 -16 -10 -8 0 -12 5 -9
10 3 6 10 10 16 10 5 0 9 -4 9 -10z m658 3 c-10 -2 -26 -2 -35 0 -10 3 -2 5
17 5 19 0 27 -2 18 -5z m52 3 c0 -2 -7 -6 -15 -10 -8 -3 -15 -1 -15 4 0 6 7
10 15 10 8 0 15 -2 15 -4z m-660 -10 c0 -2 -9 -6 -20 -9 -11 -3 -20 -1 -20 4
0 5 9 9 20 9 11 0 20 -2 20 -4z m40 -6 c0 -5 -2 -10 -4 -10 -3 0 -8 5 -11 10
-3 6 -1 10 4 10 6 0 11 -4 11 -10z m53 3 c-7 -2 -19 -2 -25 0 -7 3 -2 5 12 5
14 0 19 -2 13 -5z m87 -3 c0 -5 -4 -10 -10 -10 -5 0 -10 5 -10 10 0 6 5 10 10
10 6 0 10 -4 10 -10z m-2938 -15 c0 -5 -5 -11 -11 -13 -6 -2 -11 4 -11 13 0 9
5 15 11 13 6 -2 11 -8 11 -13z m613 5 c3 -5 -1 -10 -9 -10 -9 0 -16 5 -16 10
0 6 4 10 9 10 6 0 13 -4 16 -10z m465 0 c0 -5 -5 -10 -11 -10 -5 0 -7 5 -4 10
3 6 8 10 11 10 2 0 4 -4 4 -10z m37 -6 c-3 -3 -12 -4 -19 -1 -8 3 -5 6 6 6 11
1 17 -2 13 -5z m2138 -4 c-3 -5 -11 -10 -16 -10 -6 0 -7 5 -4 10 3 6 11 10 16
10 6 0 7 -4 4 -10z m135 -2 c0 -11 -108 -10 -114 0 -3 4 22 8 55 8 32 -1 59
-4 59 -8z m-680 -2 c0 -11 -19 -15 -25 -6 -3 5 1 10 9 10 9 0 16 -2 16 -4z
m58 -13 c-10 -2 -26 -2 -35 0 -10 3 -2 5 17 5 19 0 27 -2 18 -5z m120 0 c-16
-2 -40 -2 -55 0 -16 2 -3 4 27 4 30 0 43 -2 28 -4z m90 0 c-10 -2 -26 -2 -35
0 -10 3 -2 5 17 5 19 0 27 -2 18 -5z m-2968 -13 c0 -5 -7 -10 -15 -10 -8 0
-15 5 -15 10 0 6 7 10 15 10 8 0 15 -4 15 -10z m623 3 c-7 -2 -21 -2 -30 0
-10 3 -4 5 12 5 17 0 24 -2 18 -5z m130 0 c-7 -2 -21 -2 -30 0 -10 3 -4 5 12
5 17 0 24 -2 18 -5z m1937 -13 c0 -5 -8 -10 -17 -10 -15 0 -16 2 -3 10 19 12
20 12 20 0z m528 -11 c-10 -5 -18 -19 -18 -29 0 -11 -4 -20 -10 -20 -12 0 -12
2 0 34 5 15 17 26 27 26 17 -1 17 -1 1 -11z m52 1 c0 -5 -4 -10 -10 -10 -5 0
-10 5 -10 10 0 6 5 10 10 10 6 0 10 -4 10 -10z m181 -24 c5 -16 4 -24 -2 -20
-7 4 -8 -8 -3 -31 5 -29 4 -36 -5 -30 -9 5 -11 -1 -8 -24 4 -24 2 -31 -11 -31
-10 0 -13 -3 -7 -8 13 -9 15 -52 2 -52 -5 0 -7 -13 -5 -28 2 -18 0 -29 -8 -29
-7 0 -11 5 -9 11 22 74 3 93 -45 46 -16 -16 -30 -25 -30 -19 0 6 -4 7 -10 4
-5 -3 -10 3 -10 14 0 12 -4 21 -9 21 -6 0 -7 16 -4 36 5 29 3 36 -8 32 -8 -2
-15 -17 -17 -31 -3 -26 -13 -31 -52 -28 -24 2 -36 -12 -43 -46 l-6 -33 112 -2
112 -2 -109 -3 c-60 -2 -113 0 -117 4 -6 7 16 186 26 208 3 6 2 -18 -1 -52 -4
-41 -2 -63 4 -63 24 0 64 49 87 105 14 33 25 54 25 47 0 -7 4 -11 8 -8 5 3 16
-22 26 -55 9 -33 21 -57 26 -54 6 3 10 0 10 -7 0 -9 3 -9 10 2 8 13 10 12 10
-3 0 -33 26 4 34 48 4 22 9 52 12 68 l6 27 -76 0 c-42 0 -76 3 -76 8 0 4 35 7
77 6 74 -1 77 -2 84 -28z m258 -4 c-2 -24 -2 -24 -6 -4 -4 21 -8 22 -124 22
-66 0 -118 3 -116 8 3 4 59 6 126 4 l121 -3 -1 -27z m-3659 7 c0 -5 -4 -9 -10
-9 -5 0 -10 7 -10 16 0 8 5 12 10 9 6 -3 10 -10 10 -16z m580 9 c0 -4 -9 -8
-20 -8 -11 0 -20 4 -20 8 0 4 9 8 20 8 11 0 20 -4 20 -8z m345 2 c-3 -5 -12
-10 -18 -10 -7 0 -6 4 3 10 19 12 23 12 15 0z m42 -6 c-3 -3 -12 -4 -19 -1 -8
3 -5 6 6 6 11 1 17 -2 13 -5z m81 -1 c-10 -2 -26 -2 -35 0 -10 3 -2 5 17 5 19
0 27 -2 18 -5z m80 0 c-10 -2 -26 -2 -35 0 -10 3 -2 5 17 5 19 0 27 -2 18 -5z
m155 0 c-7 -2 -21 -2 -30 0 -10 3 -4 5 12 5 17 0 24 -2 18 -5z m74 1 c-3 -3
-12 -4 -19 -1 -8 3 -5 6 6 6 11 1 17 -2 13 -5z m143 2 c0 -2 -13 -6 -30 -8
-16 -3 -30 -1 -30 4 0 4 14 8 30 8 17 0 30 -2 30 -4z m245 -6 c-7 -12 -32 -13
-39 -2 -2 4 7 9 20 10 15 1 22 -2 19 -8z m95 -1 c0 -11 -47 -12 -54 -1 -3 5 8
9 24 10 17 0 30 -4 30 -9z m795 -9 c-3 -5 -11 -10 -16 -10 -6 0 -7 5 -4 10 3
6 11 10 16 10 6 0 7 -4 4 -10z m238 -7 c-7 -2 -21 -2 -30 0 -10 3 -4 5 12 5
17 0 24 -2 18 -5z m-2873 -13 c0 -5 -2 -10 -4 -10 -3 0 -8 5 -11 10 -3 6 -1
10 4 10 6 0 11 -4 11 -10z m580 0 c0 -5 -6 -10 -14 -10 -8 0 -18 5 -21 10 -3
6 3 10 14 10 12 0 21 -4 21 -10z m93 3 c-7 -2 -19 -2 -25 0 -7 3 -2 5 12 5 14
0 19 -2 13 -5z m-586 -9 c-3 -3 -12 -4 -19 -1 -8 3 -5 6 6 6 11 1 17 -2 13 -5z
m3449 -33 c11 -58 38 -87 55 -59 7 10 9 9 9 -5 0 -10 5 -15 10 -12 6 3 10 -4
10 -15 0 -16 -5 -20 -15 -16 -8 3 -15 0 -15 -6 0 -6 -3 -9 -6 -5 -3 3 -16 -5
-28 -17 -17 -20 -23 -21 -34 -10 -6 7 -12 18 -12 24 0 5 -5 10 -10 10 -6 0
-15 10 -20 23 -7 17 -9 18 -9 5 -1 -10 -4 -18 -8 -18 -5 -1 -25 -3 -45 -6 -24
-4 -38 -2 -38 5 0 6 10 11 22 11 26 0 61 37 84 90 21 47 42 47 50 1z m111 7
c-3 -8 -6 -5 -6 6 -1 11 2 17 5 13 3 -3 4 -12 1 -19z m-3699 -6 c2 -7 -3 -12
-12 -12 -9 0 -16 7 -16 16 0 17 22 14 28 -4z m617 8 c3 -5 -1 -10 -10 -10 -9
0 -13 5 -10 10 3 6 8 10 10 10 2 0 7 -4 10 -10z m2035 -20 c0 -5 -4 -10 -10
-10 -5 0 -10 5 -10 10 0 6 5 10 10 10 6 0 10 -4 10 -10z m-1910 -10 c0 -5 -12
-10 -27 -9 l-28 1 25 8 c14 4 26 8 28 9 1 1 2 -3 2 -9z m1965 0 c-3 -5 -12 -7
-20 -3 -21 7 -19 13 6 13 11 0 18 -4 14 -10z m255 0 c0 -5 -7 -7 -15 -4 -8 4
-15 8 -15 10 0 2 7 4 15 4 8 0 15 -4 15 -10z m200 -2 c0 -4 -7 -8 -15 -8 -8 0
-15 4 -15 8 0 5 7 9 15 9 8 0 15 -4 15 -9z m-3155 -8 c3 -5 -1 -10 -9 -10 -9
0 -16 5 -16 10 0 6 4 10 9 10 6 0 13 -4 16 -10z m635 0 c0 -5 -9 -10 -20 -10
-11 0 -20 5 -20 10 0 6 9 10 20 10 11 0 20 -4 20 -10z m193 3 c-13 -2 -35 -2
-50 0 -16 2 -5 4 22 4 28 0 40 -2 28 -4z m125 0 c-10 -2 -28 -2 -40 0 -13 2
-5 4 17 4 22 1 32 -1 23 -4z m122 -1 c0 -9 -80 -6 -88 3 -3 3 16 5 41 5 26 0
47 -4 47 -8z m80 0 c0 -4 -9 -8 -20 -8 -11 0 -20 4 -20 8 0 4 9 8 20 8 11 0
20 -4 20 -8z m2527 -24 c-3 -7 -5 -2 -5 12 0 14 2 19 5 13 2 -7 2 -19 0 -25z
m-1037 8 c0 -3 -4 -8 -10 -11 -5 -3 -10 -1 -10 4 0 6 5 11 10 11 6 0 10 -2 10
-4z m65 -7 c4 -5 -3 -9 -14 -9 -11 0 -22 4 -25 8 -2 4 4 8 14 9 11 1 22 -2 25
-8z m-2708 -25 c-9 -9 -28 6 -21 18 4 6 10 6 17 -1 6 -6 8 -13 4 -17z m643 10
c0 -2 -11 -4 -25 -4 -14 0 -25 4 -25 9 0 4 11 6 25 3 14 -2 25 -6 25 -8z
m2020 -14 c0 -5 -5 -10 -11 -10 -5 0 -7 5 -4 10 3 6 8 10 11 10 2 0 4 -4 4
-10z m83 -7 c-7 -2 -19 -2 -25 0 -7 3 -2 5 12 5 14 0 19 -2 13 -5z m77 -3 c0
-5 -7 -7 -15 -4 -8 4 -15 8 -15 10 0 2 7 4 15 4 8 0 15 -4 15 -10z m130 0 c0
-5 -7 -7 -15 -4 -8 4 -15 8 -15 10 0 2 7 4 15 4 8 0 15 -4 15 -10z m-2940 -10
c0 -5 -7 -10 -15 -10 -8 0 -15 5 -15 10 0 6 7 10 15 10 8 0 15 -4 15 -10z
m808 3 c-10 -2 -26 -2 -35 0 -10 3 -2 5 17 5 19 0 27 -2 18 -5z m152 -3 c0 -6
-11 -8 -27 -4 -40 10 -41 14 -5 14 18 0 32 -5 32 -10z m68 3 c-10 -2 -26 -2
-35 0 -10 3 -2 5 17 5 19 0 27 -2 18 -5z m52 -3 c0 -5 -7 -7 -15 -4 -8 4 -15
8 -15 10 0 2 7 4 15 4 8 0 15 -4 15 -10z m86 3 c-10 -10 -46 -11 -40 -1 3 4
15 8 26 8 12 0 18 -3 14 -7z m128 -5 c-3 -4 -12 -8 -20 -8 -8 0 -13 4 -10 8 3
5 12 9 20 9 8 0 13 -4 10 -9z m1833 6 c-3 -3 -12 -4 -19 -1 -8 3 -5 6 6 6 11
1 17 -2 13 -5z m-2930 -10 c-3 -3 -12 -4 -19 -1 -8 3 -5 6 6 6 11 1 17 -2 13
-5z m2450 -10 c-3 -3 -12 -4 -19 -1 -8 3 -5 6 6 6 11 1 17 -2 13 -5z m53 -2
c0 -4 -9 -8 -20 -9 -11 -1 -18 2 -15 8 7 11 35 12 35 1z m35 -2 c3 -5 1 -10
-4 -10 -6 0 -11 5 -11 10 0 6 2 10 4 10 3 0 8 -4 11 -10z m40 0 c3 -6 -1 -7
-9 -4 -18 7 -21 14 -7 14 6 0 13 -4 16 -10z m-2775 -15 c0 -8 -4 -15 -9 -15
-13 0 -22 16 -14 24 11 11 23 6 23 -9z m620 5 c-18 -12 -30 -13 -30 -2 0 4 10
9 22 9 18 2 20 0 8 -7z m246 -2 c4 -5 -4 -8 -19 -8 -14 0 -28 4 -31 8 -6 10
40 10 50 0z m44 2 c0 -5 -4 -10 -9 -10 -6 0 -13 5 -16 10 -3 6 1 10 9 10 9 0
16 -4 16 -10z m2737 -22 c-3 -7 -5 -2 -5 12 0 14 2 19 5 13 2 -7 2 -19 0 -25z
m-2499 15 c-10 -2 -28 -2 -40 0 -13 2 -5 4 17 4 22 1 32 -1 23 -4z m110 0
c-10 -2 -26 -2 -35 0 -10 3 -2 5 17 5 19 0 27 -2 18 -5z m139 1 c-3 -3 -12 -4
-19 -1 -8 3 -5 6 6 6 11 1 17 -2 13 -5z m81 -1 c-10 -2 -26 -2 -35 0 -10 3 -2
5 17 5 19 0 27 -2 18 -5z m1167 -13 c-3 -5 -11 -10 -16 -10 -6 0 -7 5 -4 10 3
6 11 10 16 10 6 0 7 -4 4 -10z m78 -7 c-13 -2 -33 -2 -45 0 -13 2 -3 4 22 4
25 0 35 -2 23 -4z m90 0 c-7 -2 -19 -2 -25 0 -7 3 -2 5 12 5 14 0 19 -2 13 -5z
m-2803 -13 c0 -5 -7 -10 -15 -10 -8 0 -15 5 -15 10 0 6 7 10 15 10 8 0 15 -4
15 -10z m813 3 c-7 -2 -21 -2 -30 0 -10 3 -4 5 12 5 17 0 24 -2 18 -5z m105 0
c-10 -2 -28 -2 -40 0 -13 2 -5 4 17 4 22 1 32 -1 23 -4z m110 0 c-10 -2 -28
-2 -40 0 -13 2 -5 4 17 4 22 1 32 -1 23 -4z m85 0 c-7 -2 -21 -2 -30 0 -10 3
-4 5 12 5 17 0 24 -2 18 -5z m1517 -13 c0 -5 -5 -10 -11 -10 -5 0 -7 5 -4 10
3 6 8 10 11 10 2 0 4 -4 4 -10z m90 -9 c0 -5 -9 -7 -20 -4 -11 3 -20 7 -20 9
0 2 9 4 20 4 11 0 20 -4 20 -9z m902 -13 c-3 -12 -7 -17 -10 -10 -2 8 -29 13
-75 14 l-72 2 80 6 c44 3 81 7 82 8 0 1 -1 -8 -5 -20z m-3622 -2 c0 -8 3 -21
6 -30 4 -10 1 -16 -8 -16 -10 0 -15 11 -15 30 0 17 4 30 9 30 4 0 8 -6 8 -14z
m790 10 c0 -2 -11 -6 -25 -8 -14 -3 -25 -1 -25 3 0 5 11 9 25 9 14 0 25 -2 25
-4z m2027 -2 c-3 -3 -12 -4 -19 -1 -8 3 -5 6 6 6 11 1 17 -2 13 -5z m302 -78
c-7 -45 -8 -71 -1 -78 18 -18 53 11 76 63 l23 49 6 -52 c7 -52 25 -85 34 -60
3 6 9 10 14 6 5 -3 9 0 9 5 0 6 3 10 8 9 4 -1 19 5 35 12 21 10 27 20 27 44 1
27 2 28 11 13 8 -13 7 -24 -5 -41 -11 -18 -12 -26 -3 -36 8 -9 9 -11 1 -6 -19
10 -24 -86 -6 -100 11 -8 -22 -10 -119 -7 -73 2 -137 7 -141 11 -4 4 -3 21 2
37 l10 30 -3 -32 -4 -33 114 0 c111 0 113 0 119 24 3 14 3 29 0 35 -14 21 -66
-8 -66 -38 0 -14 -2 -14 -10 -1 -5 8 -10 11 -10 5 0 -5 -9 3 -19 19 -12 18
-18 42 -16 64 2 24 0 31 -6 21 -5 -8 -9 -24 -9 -36 0 -14 -6 -23 -15 -23 -8 0
-15 -6 -15 -12 0 -9 -3 -9 -8 -3 -4 6 -15 11 -24 12 -10 0 -22 1 -26 2 -8 1 0
88 14 150 11 50 13 12 3 -53z m261 59 c-5 -7 -7 -15 -3 -18 3 -4 1 -7 -5 -7
-7 0 -12 8 -12 18 0 10 7 19 15 19 10 0 12 -4 5 -12z m-2620 -15 c0 -5 -5 -10
-11 -10 -5 0 -7 5 -4 10 3 6 8 10 11 10 2 0 4 -4 4 -10z m1943 3 c-13 -2 -33
-2 -45 0 -13 2 -3 4 22 4 25 0 35 -2 23 -4z m-2656 -9 c-3 -3 -12 -4 -19 -1
-8 3 -5 6 6 6 11 1 17 -2 13 -5z m2583 -14 c0 -5 -7 -10 -16 -10 -8 0 -12 5
-9 10 3 6 10 10 16 10 5 0 9 -4 9 -10z m73 -7 c-13 -2 -33 -2 -45 0 -13 2 -3
4 22 4 25 0 35 -2 23 -4z m84 1 c-3 -3 -12 -4 -19 -1 -8 3 -5 6 6 6 11 1 17
-2 13 -5z m-2777 -14 c0 -5 -4 -10 -10 -10 -5 0 -10 5 -10 10 0 6 5 10 10 10
6 0 10 -4 10 -10z m623 3 c-7 -2 -21 -2 -30 0 -10 3 -4 5 12 5 17 0 24 -2 18
-5z m90 0 c-7 -2 -19 -2 -25 0 -7 3 -2 5 12 5 14 0 19 -2 13 -5z m-726 -37
c-3 -7 -1 -18 5 -24 6 -6 6 -12 -2 -17 -14 -9 -16 -7 -24 28 -5 21 -3 27 10
27 10 0 14 -6 11 -14z m643 4 c0 -5 -2 -10 -4 -10 -3 0 -8 5 -11 10 -3 6 -1
10 4 10 6 0 11 -4 11 -10z m2855 -60 c8 0 15 6 15 13 0 8 4 7 10 -3 7 -11 10
-11 10 -2 0 7 5 10 10 7 6 -3 13 0 16 8 2 7 11 14 19 14 11 0 15 -12 14 -46
-1 -25 -3 -38 -6 -29 -3 13 -13 17 -38 15 -18 -1 -33 -4 -33 -7 2 -25 -5 -36
-22 -37 -14 -1 -22 6 -26 25 -10 41 -14 44 -37 30 -24 -14 -77 -12 -77 3 0 5
13 9 28 9 18 0 38 11 58 31 l29 30 8 -30 c4 -17 14 -31 22 -31z m-875 40 c0
-5 -2 -10 -4 -10 -3 0 -8 5 -11 10 -3 6 -1 10 4 10 6 0 11 -4 11 -10z m-1896
-12 c-3 -4 -9 -8 -15 -8 -5 0 -9 4 -9 8 0 5 7 9 15 9 8 0 12 -4 9 -9z m1994 5
c-10 -2 -28 -2 -40 0 -13 2 -5 4 17 4 22 1 32 -1 23 -4z m95 0 c-7 -2 -19 -2
-25 0 -7 3 -2 5 12 5 14 0 19 -2 13 -5z m-1830 -10 c-7 -2 -19 -2 -25 0 -7 3
-2 5 12 5 14 0 19 -2 13 -5z m100 0 c-7 -2 -19 -2 -25 0 -7 3 -2 5 12 5 14 0
19 -2 13 -5z m1537 -13 c0 -5 -7 -10 -16 -10 -8 0 -12 5 -9 10 3 6 10 10 16
10 5 0 9 -4 9 -10z m88 -7 c-10 -2 -28 -2 -40 0 -13 2 -5 4 17 4 22 1 32 -1
23 -4z m-2698 -13 c0 -5 -4 -10 -9 -10 -6 0 -13 5 -16 10 -3 6 1 10 9 10 9 0
16 -4 16 -10z m787 4 c-3 -3 -12 -4 -19 -1 -8 3 -5 6 6 6 11 1 17 -2 13 -5z
m83 2 c0 -2 -13 -6 -30 -8 -16 -3 -30 -1 -30 4 0 4 14 8 30 8 17 0 30 -2 30
-4z m97 -2 c-3 -3 -12 -4 -19 -1 -8 3 -5 6 6 6 11 1 17 -2 13 -5z m101 -1
c-10 -2 -26 -2 -35 0 -10 3 -2 5 17 5 19 0 27 -2 18 -5z m1999 1 c-3 -3 -12
-4 -19 -1 -8 3 -5 6 6 6 11 1 17 -2 13 -5z m-467 -14 c0 -5 -5 -10 -11 -10 -5
0 -7 5 -4 10 3 6 8 10 11 10 2 0 4 -4 4 -10z m94 -11 c-2 -4 -14 -6 -26 -4
-34 7 -35 16 -1 13 18 -1 30 -5 27 -9z m-2646 -16 c-1 -10 2 -31 6 -46 5 -21
3 -28 -5 -25 -7 2 -13 13 -14 24 -1 10 -5 29 -9 42 -5 16 -3 22 8 22 8 0 14
-8 14 -17z m592 7 c0 -5 -2 -10 -4 -10 -3 0 -8 5 -11 10 -3 6 -1 10 4 10 6 0
11 -4 11 -10z m157 4 c-3 -3 -12 -4 -19 -1 -8 3 -5 6 6 6 11 1 17 -2 13 -5z
m66 -1 c-7 -2 -19 -2 -25 0 -7 3 -2 5 12 5 14 0 19 -2 13 -5z m177 3 c0 -2 -7
-7 -16 -10 -8 -3 -12 -2 -9 4 6 10 25 14 25 6z m1585 -26 c3 -5 1 -10 -4 -10
-6 0 -11 5 -11 10 0 6 2 10 4 10 3 0 8 -4 11 -10z m45 0 c8 -5 11 -10 5 -10
-5 0 -17 5 -25 10 -8 5 -10 10 -5 10 6 0 17 -5 25 -10z m-2030 -10 c0 -5 -9
-10 -20 -10 -11 0 -20 5 -20 10 0 6 9 10 20 10 11 0 20 -4 20 -10z m220 -6 c0
-2 -7 -4 -15 -4 -8 0 -15 4 -15 10 0 5 7 7 15 4 8 -4 15 -8 15 -10z m80 6 c0
-5 -5 -10 -11 -10 -5 0 -7 5 -4 10 3 6 8 10 11 10 2 0 4 -4 4 -10z m1877 4
c-3 -3 -12 -4 -19 -1 -8 3 -5 6 6 6 11 1 17 -2 13 -5z m746 -25 c-5 -5 -34 -8
-64 -6 l-54 3 58 2 c36 1 57 6 57 14 0 6 3 8 7 5 4 -4 2 -12 -4 -18z m-963 7
c0 -3 -4 -8 -10 -11 -5 -3 -10 -1 -10 4 0 6 5 11 10 11 6 0 10 -2 10 -4z m790
-6 c0 -5 -5 -10 -11 -10 -5 0 -7 5 -4 10 3 6 8 10 11 10 2 0 4 -4 4 -10z
m-2755 -10 c3 -6 -4 -10 -17 -10 -18 0 -20 2 -8 10 19 12 18 12 25 0z m151 -8
c-10 -2 -22 0 -28 6 -6 6 0 7 19 4 21 -5 23 -7 9 -10z m1957 11 c-7 -2 -21 -2
-30 0 -10 3 -4 5 12 5 17 0 24 -2 18 -5z m74 1 c-3 -3 -12 -4 -19 -1 -8 3 -5
6 6 6 11 1 17 -2 13 -5z m616 -1 c-7 -2 -19 -2 -25 0 -7 3 -2 5 12 5 14 0 19
-2 13 -5z m-843 -23 c0 -5 -5 -10 -11 -10 -5 0 -7 5 -4 10 3 6 8 10 11 10 2 0
4 -4 4 -10z m720 6 c0 -3 -4 -8 -10 -11 -5 -3 -10 -1 -10 4 0 6 5 11 10 11 6
0 10 -2 10 -4z m160 -6 c0 -5 -5 -10 -11 -10 -5 0 -7 5 -4 10 3 6 8 10 11 10
2 0 4 -4 4 -10z m40 0 c0 -5 -4 -10 -10 -10 -5 0 -10 5 -10 10 0 6 5 10 10 10
6 0 10 -4 10 -10z m-3510 -10 c0 -5 -4 -10 -10 -10 -5 0 -10 5 -10 10 0 6 5
10 10 10 6 0 10 -4 10 -10z m40 0 c0 -5 -4 -10 -10 -10 -5 0 -10 5 -10 10 0 6
5 10 10 10 6 0 10 -4 10 -10z m530 -6 c0 -9 -5 -14 -12 -12 -18 6 -21 28 -4
28 9 0 16 -7 16 -16z m2197 10 c-3 -3 -12 -4 -19 -1 -8 3 -5 6 6 6 11 1 17 -2
13 -5z m-277 -19 c0 -8 -7 -15 -15 -15 -8 0 -15 7 -15 15 0 8 7 15 15 15 8 0
15 -7 15 -15z m100 -5 c0 -5 -5 -10 -11 -10 -5 0 -7 5 -4 10 3 6 8 10 11 10 2
0 4 -4 4 -10z m390 -5 c0 -8 -7 -15 -15 -15 -8 0 -15 7 -15 15 0 8 7 15 15 15
8 0 15 -7 15 -15z m-2287 -4 c9 -1 17 -4 17 -8 0 -5 -27 -9 -60 -11 -45 -2
-60 0 -60 10 0 13 6 13 103 9z m3066 -34 c-12 -43 -22 -50 -13 -9 9 42 14 55
19 50 2 -2 0 -21 -6 -41z m-3719 23 c0 -6 -13 -9 -30 -8 -16 1 -30 6 -30 10 0
4 14 8 30 8 17 0 30 -5 30 -10z m125 0 c4 -6 -15 -10 -49 -10 -30 0 -58 5 -61
10 -4 6 15 10 49 10 30 0 58 -4 61 -10z m310 0 c2 -4 -9 -7 -25 -8 -17 0 -30
3 -30 7 0 10 49 11 55 1z m45 0 c-19 -13 -30 -13 -30 0 0 6 10 10 23 10 18 0
19 -2 7 -10z m65 -85 c3 -33 8 -77 11 -97 4 -29 2 -38 -9 -38 -15 0 -20 26
-33 165 -6 64 -5 68 9 50 8 -11 18 -47 22 -80z m1875 80 c36 -2 136 -4 223 -5
99 0 157 -4 157 -10 0 -6 -12 -10 -27 -9 -59 2 -1252 19 -1498 20 -143 1 -282
5 -310 10 -49 7 1325 2 1455 -6z m565 5 c-3 -5 -2 -10 4 -10 5 0 11 6 14 13 3
9 7 9 19 -1 10 -8 26 -10 42 -6 15 4 26 2 26 -4 0 -6 -8 -13 -17 -15 -14 -4
-12 -5 5 -6 12 0 22 -5 22 -11 0 -6 -9 -6 -26 0 -19 8 -31 7 -41 -1 -9 -8 -17
-9 -24 -2 -13 13 -69 4 -76 -13 -2 -7 -10 -11 -17 -8 -14 6 -9 54 5 54 5 0 8
-4 7 -9 -2 -5 2 -11 7 -12 6 -2 11 6 13 19 2 14 10 22 23 22 11 0 17 -4 14
-10z m423 -19 c3 -19 0 -21 -25 -18 -26 3 -29 8 -24 37 3 20 46 3 49 -19z m68
19 c8 0 14 -9 14 -20 0 -21 -24 -28 -35 -10 -4 6 -11 8 -16 5 -5 -4 -9 4 -9
15 0 16 4 20 16 16 9 -3 22 -6 30 -6z m31 -32 c-3 -7 -5 -2 -5 12 0 14 2 19 5
13 2 -7 2 -19 0 -25z m-677 12 c0 -5 -5 -10 -11 -10 -5 0 -7 5 -4 10 3 6 8 10
11 10 2 0 4 -4 4 -10z m50 0 c-19 -13 -30 -13 -30 0 0 6 10 10 23 10 18 0 19
-2 7 -10z m-2253 -16 c-3 -3 -12 -4 -19 -1 -8 3 -5 6 6 6 11 1 17 -2 13 -5z
m156 -1 c-7 -2 -19 -2 -25 0 -7 3 -2 5 12 5 14 0 19 -2 13 -5z m97 -3 c0 -5
-4 -10 -10 -10 -5 0 -10 5 -10 10 0 6 5 10 10 10 6 0 10 -4 10 -10z m40 6 c0
-3 -4 -8 -10 -11 -5 -3 -10 -1 -10 4 0 6 5 11 10 11 6 0 10 -2 10 -4z m170 -6
c0 -5 -2 -10 -4 -10 -3 0 -8 5 -11 10 -3 6 -1 10 4 10 6 0 11 -4 11 -10z m90
0 c0 -5 -2 -10 -4 -10 -3 0 -8 5 -11 10 -3 6 -1 10 4 10 6 0 11 -4 11 -10z
m40 0 c0 -5 -2 -10 -4 -10 -3 0 -8 5 -11 10 -3 6 -1 10 4 10 6 0 11 -4 11 -10z
m90 0 c0 -5 -7 -10 -16 -10 -8 0 -12 5 -9 10 3 6 10 10 16 10 5 0 9 -4 9 -10z
m1730 -35 c0 -18 -12 -19 -28 -3 -9 9 -12 9 -12 -1 0 -15 -52 -11 -57 5 -2 7
16 11 47 13 39 1 50 -2 50 -14z m40 11 c0 -2 -7 -9 -15 -16 -12 -10 -15 -10
-15 4 0 9 7 16 15 16 8 0 15 -2 15 -4z m-2983 -32 c-3 -3 -12 -4 -19 -1 -8 3
-5 6 6 6 11 1 17 -2 13 -5z m-34 -31 c-7 -2 -21 -2 -30 0 -10 3 -4 5 12 5 17
0 24 -2 18 -5z m2853 -50 c-3 -16 -11 -72 -17 -125 -9 -69 -16 -98 -26 -98
-16 0 -16 11 2 135 8 55 15 103 15 108 0 4 7 7 16 7 12 0 14 -7 10 -27z
m-2776 -43 c0 -5 -2 -10 -4 -10 -3 0 -8 5 -11 10 -3 6 -1 10 4 10 6 0 11 -4
11 -10z m-63 -86 c-3 -3 -12 -4 -19 -1 -8 3 -5 6 6 6 11 1 17 -2 13 -5z m493
-49 c0 -8 -4 -15 -10 -15 -5 0 -10 7 -10 15 0 8 5 15 10 15 6 0 10 -7 10 -15z
m2360 -15 c0 -5 -7 -10 -15 -10 -8 0 -15 5 -15 10 0 6 7 10 15 10 8 0 15 -4
15 -10z m70 0 c12 -8 9 -10 -12 -10 -16 0 -28 5 -28 10 0 13 20 13 40 0z m86
-3 c4 -4 -7 -7 -24 -7 -17 0 -33 4 -36 9 -7 10 50 8 60 -2z m-2859 -33 c-3 -3
-12 -4 -19 -1 -8 3 -5 6 6 6 11 1 17 -2 13 -5z m43 -4 c0 -5 -4 -10 -9 -10 -6
0 -13 5 -16 10 -3 6 1 10 9 10 9 0 16 -4 16 -10z m40 0 c0 -5 -4 -10 -10 -10
-5 0 -10 5 -10 10 0 6 5 10 10 10 6 0 10 -4 10 -10z m40 0 c0 -5 -4 -10 -10
-10 -5 0 -10 5 -10 10 0 6 5 10 10 10 6 0 10 -4 10 -10z m50 0 c0 -5 -4 -10
-9 -10 -6 0 -13 5 -16 10 -3 6 1 10 9 10 9 0 16 -4 16 -10z m40 0 c0 -5 -4
-10 -10 -10 -5 0 -10 5 -10 10 0 6 5 10 10 10 6 0 10 -4 10 -10z m40 0 c0 -5
-4 -10 -10 -10 -5 0 -10 5 -10 10 0 6 5 10 10 10 6 0 10 -4 10 -10z m50 0 c0
-5 -7 -10 -15 -10 -8 0 -15 5 -15 10 0 6 7 10 15 10 8 0 15 -4 15 -10z m40 0
c0 -5 -4 -10 -10 -10 -5 0 -10 5 -10 10 0 6 5 10 10 10 6 0 10 -4 10 -10z m40
0 c0 -5 -4 -10 -10 -10 -5 0 -10 5 -10 10 0 6 5 10 10 10 6 0 10 -4 10 -10z
m45 0 c3 -5 -1 -10 -9 -10 -9 0 -16 5 -16 10 0 6 4 10 9 10 6 0 13 -4 16 -10z
m40 0 c3 -5 -1 -10 -10 -10 -9 0 -13 5 -10 10 3 6 8 10 10 10 2 0 7 -4 10 -10z
m45 0 c0 -5 -4 -10 -10 -10 -5 0 -10 5 -10 10 0 6 5 10 10 10 6 0 10 -4 10
-10z m45 0 c3 -5 -1 -10 -10 -10 -9 0 -13 5 -10 10 3 6 8 10 10 10 2 0 7 -4
10 -10z m42 -6 c-3 -3 -12 -4 -19 -1 -8 3 -5 6 6 6 11 1 17 -2 13 -5z m379
-13 c-3 -5 -15 -7 -26 -4 -28 7 -25 13 6 13 14 0 23 -4 20 -9z m-889 -7 c-3
-3 -12 -4 -19 -1 -8 3 -5 6 6 6 11 1 17 -2 13 -5z m40 0 c-3 -3 -12 -4 -19 -1
-8 3 -5 6 6 6 11 1 17 -2 13 -5z m90 0 c-3 -3 -12 -4 -19 -1 -8 3 -5 6 6 6 11
1 17 -2 13 -5z m40 0 c-3 -3 -12 -4 -19 -1 -8 3 -5 6 6 6 11 1 17 -2 13 -5z
m40 0 c-3 -3 -12 -4 -19 -1 -8 3 -5 6 6 6 11 1 17 -2 13 -5z m90 0 c-3 -3 -12
-4 -19 -1 -8 3 -5 6 6 6 11 1 17 -2 13 -5z m40 0 c-3 -3 -12 -4 -19 -1 -8 3
-5 6 6 6 11 1 17 -2 13 -5z m133 2 c0 -11 -19 -15 -25 -6 -3 5 1 10 9 10 9 0
16 -2 16 -4z m40 0 c0 -3 -4 -8 -10 -11 -5 -3 -10 -1 -10 4 0 6 5 11 10 11 6
0 10 -2 10 -4z m40 -6 c0 -5 -4 -10 -10 -10 -5 0 -10 5 -10 10 0 6 5 10 10 10
6 0 10 -4 10 -10z m-640 -20 c0 -5 -4 -10 -10 -10 -5 0 -10 5 -10 10 0 6 5 10
10 10 6 0 10 -4 10 -10z m50 6 c0 -11 -19 -15 -25 -6 -3 5 1 10 9 10 9 0 16
-2 16 -4z m40 -6 c0 -5 -4 -10 -10 -10 -5 0 -10 5 -10 10 0 6 5 10 10 10 6 0
10 -4 10 -10z m40 0 c0 -5 -4 -10 -10 -10 -5 0 -10 5 -10 10 0 6 5 10 10 10 6
0 10 -4 10 -10z m40 0 c0 -5 -4 -10 -10 -10 -5 0 -10 5 -10 10 0 6 5 10 10 10
6 0 10 -4 10 -10z m45 0 c3 -5 -1 -10 -10 -10 -9 0 -13 5 -10 10 3 6 8 10 10
10 2 0 7 -4 10 -10z m45 0 c0 -5 -4 -10 -10 -10 -5 0 -10 5 -10 10 0 6 5 10
10 10 6 0 10 -4 10 -10z m45 0 c3 -5 -1 -10 -10 -10 -9 0 -13 5 -10 10 3 6 8
10 10 10 2 0 7 -4 10 -10z m80 0 c3 -5 -1 -10 -10 -10 -9 0 -13 5 -10 10 3 6
8 10 10 10 2 0 7 -4 10 -10z m-38 -6 c-3 -3 -12 -4 -19 -1 -8 3 -5 6 6 6 11 1
17 -2 13 -5z m130 0 c-3 -3 -12 -4 -19 -1 -8 3 -5 6 6 6 11 1 17 -2 13 -5z
m40 0 c-3 -3 -12 -4 -19 -1 -8 3 -5 6 6 6 11 1 17 -2 13 -5z m40 0 c-3 -3 -12
-4 -19 -1 -8 3 -5 6 6 6 11 1 17 -2 13 -5z m90 0 c-3 -3 -12 -4 -19 -1 -8 3
-5 6 6 6 11 1 17 -2 13 -5z m343 -8 c0 -2 -13 -6 -30 -8 -16 -3 -30 -1 -30 4
0 4 14 8 30 8 17 0 30 -2 30 -4z m85 -7 c-6 -8 -63 -4 -73 5 -3 4 12 6 35 5
23 -2 40 -6 38 -10z m75 7 c0 -2 -9 -6 -20 -9 -11 -3 -20 -1 -20 4 0 5 9 9 20
9 11 0 20 -2 20 -4z m110 -9 c0 -4 -18 -7 -40 -5 -22 1 -40 6 -40 10 0 5 18 7
40 6 22 -2 40 -7 40 -11z m870 -2 c0 -8 -7 -15 -15 -15 -26 0 -18 20 13 29 1
1 2 -6 2 -14z m-2123 -1 c-3 -3 -12 -4 -19 -1 -8 3 -5 6 6 6 11 1 17 -2 13 -5z
m130 0 c-3 -3 -12 -4 -19 -1 -8 3 -5 6 6 6 11 1 17 -2 13 -5z m40 0 c-3 -3
-12 -4 -19 -1 -8 3 -5 6 6 6 11 1 17 -2 13 -5z m130 0 c-3 -3 -12 -4 -19 -1
-8 3 -5 6 6 6 11 1 17 -2 13 -5z m40 0 c-3 -3 -12 -4 -19 -1 -8 3 -5 6 6 6 11
1 17 -2 13 -5z m133 2 c0 -11 -19 -15 -25 -6 -3 5 1 10 9 10 9 0 16 -2 16 -4z
m40 -6 c0 -5 -4 -10 -9 -10 -6 0 -13 5 -16 10 -3 6 1 10 9 10 9 0 16 -4 16
-10z m40 0 c0 -5 -4 -10 -10 -10 -5 0 -10 5 -10 10 0 6 5 10 10 10 6 0 10 -4
10 -10z m40 0 c0 -5 -4 -10 -10 -10 -5 0 -10 5 -10 10 0 6 5 10 10 10 6 0 10
-4 10 -10z m50 0 c0 -5 -7 -10 -15 -10 -8 0 -15 5 -15 10 0 6 7 10 15 10 8 0
15 -4 15 -10z m1550 -2 c0 -4 -4 -8 -9 -8 -6 0 -12 4 -15 8 -3 5 1 9 9 9 8 0
15 -4 15 -9z m-2190 -18 c0 -5 -4 -10 -10 -10 -5 0 -10 5 -10 10 0 6 5 10 10
10 6 0 10 -4 10 -10z m40 0 c0 -5 -4 -10 -10 -10 -5 0 -10 5 -10 10 0 6 5 10
10 10 6 0 10 -4 10 -10z m45 0 c3 -5 -1 -10 -9 -10 -9 0 -16 5 -16 10 0 6 4
10 9 10 6 0 13 -4 16 -10z m40 0 c3 -5 1 -10 -4 -10 -6 0 -11 5 -11 10 0 6 2
10 4 10 3 0 8 -4 11 -10z m45 0 c0 -5 -4 -10 -10 -10 -5 0 -10 5 -10 10 0 6 5
10 10 10 6 0 10 -4 10 -10z m87 -6 c-3 -3 -12 -4 -19 -1 -8 3 -5 6 6 6 11 1
17 -2 13 -5z m40 0 c-3 -3 -12 -4 -19 -1 -8 3 -5 6 6 6 11 1 17 -2 13 -5z
m130 0 c-3 -3 -12 -4 -19 -1 -8 3 -5 6 6 6 11 1 17 -2 13 -5z m40 0 c-3 -3
-12 -4 -19 -1 -8 3 -5 6 6 6 11 1 17 -2 13 -5z m90 0 c-3 -3 -12 -4 -19 -1 -8
3 -5 6 6 6 11 1 17 -2 13 -5z m40 0 c-3 -3 -12 -4 -19 -1 -8 3 -5 6 6 6 11 1
17 -2 13 -5z m40 0 c-3 -3 -12 -4 -19 -1 -8 3 -5 6 6 6 11 1 17 -2 13 -5z
m342 -4 c-6 -5 -18 -6 -26 -3 -19 8 -16 11 13 11 17 0 22 -3 13 -8z m181 0 c0
-5 -5 -10 -11 -10 -5 0 -7 5 -4 10 3 6 8 10 11 10 2 0 4 -4 4 -10z m43 -7 c-7
-2 -19 -2 -25 0 -7 3 -2 5 12 5 14 0 19 -2 13 -5z m170 0 c-7 -2 -21 -2 -30 0
-10 3 -4 5 12 5 17 0 24 -2 18 -5z m170 0 c-13 -2 -33 -2 -45 0 -13 2 -3 4 22
4 25 0 35 -2 23 -4z m-1536 -9 c-3 -3 -12 -4 -19 -1 -8 3 -5 6 6 6 11 1 17 -2
13 -5z m40 0 c-3 -3 -12 -4 -19 -1 -8 3 -5 6 6 6 11 1 17 -2 13 -5z m40 0 c-3
-3 -12 -4 -19 -1 -8 3 -5 6 6 6 11 1 17 -2 13 -5z m90 0 c-3 -3 -12 -4 -19 -1
-8 3 -5 6 6 6 11 1 17 -2 13 -5z m40 0 c-3 -3 -12 -4 -19 -1 -8 3 -5 6 6 6 11
1 17 -2 13 -5z m40 0 c-3 -3 -12 -4 -19 -1 -8 3 -5 6 6 6 11 1 17 -2 13 -5z
m133 2 c0 -11 -19 -15 -25 -6 -3 5 1 10 9 10 9 0 16 -2 16 -4z m40 0 c0 -11
-19 -15 -25 -6 -3 5 1 10 9 10 9 0 16 -2 16 -4z m40 -6 c0 -5 -4 -10 -10 -10
-5 0 -10 5 -10 10 0 6 5 10 10 10 6 0 10 -4 10 -10z m40 0 c0 -5 -4 -10 -10
-10 -5 0 -10 5 -10 10 0 6 5 10 10 10 6 0 10 -4 10 -10z m50 0 c0 -5 -7 -10
-15 -10 -8 0 -15 5 -15 10 0 6 7 10 15 10 8 0 15 -4 15 -10z m40 0 c0 -5 -4
-10 -9 -10 -6 0 -13 5 -16 10 -3 6 1 10 9 10 9 0 16 -4 16 -10z m40 0 c0 -5
-4 -10 -10 -10 -5 0 -10 5 -10 10 0 6 5 10 10 10 6 0 10 -4 10 -10z m1563 3
c-7 -2 -21 -2 -30 0 -10 3 -4 5 12 5 17 0 24 -2 18 -5z m80 0 c-7 -2 -19 -2
-25 0 -7 3 -2 5 12 5 14 0 19 -2 13 -5z m137 3 c0 -8 -51 -13 -56 -5 -3 5 9 9
25 9 17 0 31 -2 31 -4z m60 -6 c0 -5 -2 -10 -4 -10 -3 0 -8 5 -11 10 -3 6 -1
10 4 10 6 0 11 -4 11 -10z m70 1 c0 -4 -11 -6 -25 -3 -14 2 -25 6 -25 8 0 2
11 4 25 4 14 0 25 -4 25 -9z m-1565 -11 c-3 -5 -12 -10 -20 -10 -8 0 -17 5
-20 10 -4 6 5 10 20 10 15 0 24 -4 20 -10z m-975 -10 c0 -5 -4 -10 -10 -10 -5
0 -10 5 -10 10 0 6 5 10 10 10 6 0 10 -4 10 -10z m40 0 c0 -5 -4 -10 -10 -10
-5 0 -10 5 -10 10 0 6 5 10 10 10 6 0 10 -4 10 -10z m40 0 c0 -5 -4 -10 -10
-10 -5 0 -10 5 -10 10 0 6 5 10 10 10 6 0 10 -4 10 -10z m1127 4 c-3 -3 -12
-4 -19 -1 -8 3 -5 6 6 6 11 1 17 -2 13 -5z m136 -1 c-7 -2 -19 -2 -25 0 -7 3
-2 5 12 5 14 0 19 -2 13 -5z m190 0 c-13 -2 -33 -2 -45 0 -13 2 -3 4 22 4 25
0 35 -2 23 -4z m-1406 -9 c-3 -3 -12 -4 -19 -1 -8 3 -5 6 6 6 11 1 17 -2 13
-5z m40 0 c-3 -3 -12 -4 -19 -1 -8 3 -5 6 6 6 11 1 17 -2 13 -5z m130 0 c-3
-3 -12 -4 -19 -1 -8 3 -5 6 6 6 11 1 17 -2 13 -5z m40 0 c-3 -3 -12 -4 -19 -1
-8 3 -5 6 6 6 11 1 17 -2 13 -5z m40 0 c-3 -3 -12 -4 -19 -1 -8 3 -5 6 6 6 11
1 17 -2 13 -5z m130 0 c-3 -3 -12 -4 -19 -1 -8 3 -5 6 6 6 11 1 17 -2 13 -5z
m40 0 c-3 -3 -12 -4 -19 -1 -8 3 -5 6 6 6 11 1 17 -2 13 -5z m40 0 c-3 -3 -12
-4 -19 -1 -8 3 -5 6 6 6 11 1 17 -2 13 -5z m1641 -1 c-10 -2 -28 -2 -40 0 -13
2 -5 4 17 4 22 1 32 -1 23 -4z m99 1 c-3 -3 -12 -4 -19 -1 -8 3 -5 6 6 6 11 1
17 -2 13 -5z m119 -1 c-10 -11 -36 -12 -36 -2 0 5 10 9 22 9 12 0 18 -3 14 -7z
m74 -5 c0 -11 -12 -10 -30 2 -12 7 -10 9 8 7 12 0 22 -5 22 -9z m60 2 c0 -13
-11 -13 -30 0 -12 8 -11 10 8 10 12 0 22 -4 22 -10z m-1605 -11 c-7 -11 -35
-12 -35 -1 0 4 9 8 20 9 11 1 18 -2 15 -8z m1692 5 c-3 -3 -12 -4 -19 -1 -8 3
-5 6 6 6 11 1 17 -2 13 -5z m-2620 -10 c-3 -3 -12 -4 -19 -1 -8 3 -5 6 6 6 11
1 17 -2 13 -5z m40 0 c-3 -3 -12 -4 -19 -1 -8 3 -5 6 6 6 11 1 17 -2 13 -5z
m40 0 c-3 -3 -12 -4 -19 -1 -8 3 -5 6 6 6 11 1 17 -2 13 -5z m170 0 c-3 -3
-12 -4 -19 -1 -8 3 -5 6 6 6 11 1 17 -2 13 -5z m43 2 c0 -11 -19 -15 -25 -6
-3 5 1 10 9 10 9 0 16 -2 16 -4z m40 -6 c0 -5 -4 -10 -10 -10 -5 0 -10 5 -10
10 0 6 5 10 10 10 6 0 10 -4 10 -10z m40 0 c0 -5 -4 -10 -10 -10 -5 0 -10 5
-10 10 0 6 5 10 10 10 6 0 10 -4 10 -10z m40 0 c0 -5 -2 -10 -4 -10 -3 0 -8 5
-11 10 -3 6 -1 10 4 10 6 0 11 -4 11 -10z m50 0 c0 -5 -4 -10 -9 -10 -6 0 -13
5 -16 10 -3 6 1 10 9 10 9 0 16 -4 16 -10z m40 0 c0 -5 -4 -10 -10 -10 -5 0
-10 5 -10 10 0 6 5 10 10 10 6 0 10 -4 10 -10z m40 0 c0 -5 -4 -10 -10 -10 -5
0 -10 5 -10 10 0 6 5 10 10 10 6 0 10 -4 10 -10z m40 0 c0 -5 -4 -10 -10 -10
-5 0 -10 5 -10 10 0 6 5 10 10 10 6 0 10 -4 10 -10z m577 4 c-3 -3 -12 -4 -19
-1 -8 3 -5 6 6 6 11 1 17 -2 13 -5z m56 -1 c-7 -2 -19 -2 -25 0 -7 3 -2 5 12
5 14 0 19 -2 13 -5z m100 0 c-7 -2 -21 -2 -30 0 -10 3 -4 5 12 5 17 0 24 -2
18 -5z m170 0 c-13 -2 -33 -2 -45 0 -13 2 -3 4 22 4 25 0 35 -2 23 -4z m725
-10 c-10 -2 -28 -2 -40 0 -13 2 -5 4 17 4 22 1 32 -1 23 -4z m99 1 c-3 -3 -12
-4 -19 -1 -8 3 -5 6 6 6 11 1 17 -2 13 -5z m103 -10 c0 -2 -7 -4 -15 -4 -8 0
-15 4 -15 10 0 5 7 7 15 4 8 -4 15 -8 15 -10z m85 -2 c-3 -3 -11 0 -18 7 -9
10 -8 11 6 5 10 -3 15 -9 12 -12z m65 8 c0 -13 -11 -13 -30 0 -12 8 -11 10 8
10 12 0 22 -4 22 -10z m-1640 -16 c0 -2 -7 -4 -15 -4 -8 0 -15 4 -15 10 0 5 7
7 15 4 8 -4 15 -8 15 -10z m-963 0 c-3 -3 -12 -4 -19 -1 -8 3 -5 6 6 6 11 1
17 -2 13 -5z m40 0 c-3 -3 -12 -4 -19 -1 -8 3 -5 6 6 6 11 1 17 -2 13 -5z
m170 0 c-3 -3 -12 -4 -19 -1 -8 3 -5 6 6 6 11 1 17 -2 13 -5z m43 2 c0 -3 -4
-8 -10 -11 -5 -3 -10 -1 -10 4 0 6 5 11 10 11 6 0 10 -2 10 -4z m40 0 c0 -3
-4 -8 -10 -11 -5 -3 -10 -1 -10 4 0 6 5 11 10 11 6 0 10 -2 10 -4z m40 -6 c0
-5 -4 -10 -10 -10 -5 0 -10 5 -10 10 0 6 5 10 10 10 6 0 10 -4 10 -10z m40 0
c0 -5 -4 -10 -10 -10 -5 0 -10 5 -10 10 0 6 5 10 10 10 6 0 10 -4 10 -10z m50
6 c0 -11 -19 -15 -25 -6 -3 5 1 10 9 10 9 0 16 -2 16 -4z m40 -6 c0 -5 -4 -10
-10 -10 -5 0 -10 5 -10 10 0 6 5 10 10 10 6 0 10 -4 10 -10z m40 0 c0 -5 -4
-10 -10 -10 -5 0 -10 5 -10 10 0 6 5 10 10 10 6 0 10 -4 10 -10z m40 0 c0 -5
-4 -10 -10 -10 -5 0 -10 5 -10 10 0 6 5 10 10 10 6 0 10 -4 10 -10z m40 0 c0
-5 -4 -10 -10 -10 -5 0 -10 5 -10 10 0 6 5 10 10 10 6 0 10 -4 10 -10z m45 0
c3 -5 -1 -10 -10 -10 -9 0 -13 5 -10 10 3 6 8 10 10 10 2 0 7 -4 10 -10z m568
3 c-7 -2 -19 -2 -25 0 -7 3 -2 5 12 5 14 0 19 -2 13 -5z m60 0 c-7 -2 -19 -2
-25 0 -7 3 -2 5 12 5 14 0 19 -2 13 -5z m100 0 c-7 -2 -21 -2 -30 0 -10 3 -4
5 12 5 17 0 24 -2 18 -5z m155 0 c-10 -2 -26 -2 -35 0 -10 3 -2 5 17 5 19 0
27 -2 18 -5z m720 -10 c-10 -2 -28 -2 -40 0 -13 2 -5 4 17 4 22 1 32 -1 23 -4z
m99 1 c-3 -3 -12 -4 -19 -1 -8 3 -5 6 6 6 11 1 17 -2 13 -5z m253 -4 c0 -5 -9
-10 -20 -10 -11 0 -20 5 -20 10 0 6 9 10 20 10 11 0 20 -4 20 -10z m-2585 -10
c3 -5 1 -10 -4 -10 -6 0 -11 5 -11 10 0 6 2 10 4 10 3 0 8 -4 11 -10z m969 -2
c-3 -4 -12 -8 -20 -8 -8 0 -14 4 -14 8 0 4 9 8 19 8 11 0 17 -4 15 -8z m1469
5 c-7 -2 -19 -2 -25 0 -7 3 -2 5 12 5 14 0 19 -2 13 -5z m-2306 -9 c-3 -3 -12
-4 -19 -1 -8 3 -5 6 6 6 11 1 17 -2 13 -5z m40 0 c-3 -3 -12 -4 -19 -1 -8 3
-5 6 6 6 11 1 17 -2 13 -5z m130 0 c-3 -3 -12 -4 -19 -1 -8 3 -5 6 6 6 11 1
17 -2 13 -5z m40 0 c-3 -3 -12 -4 -19 -1 -8 3 -5 6 6 6 11 1 17 -2 13 -5z m40
0 c-3 -3 -12 -4 -19 -1 -8 3 -5 6 6 6 11 1 17 -2 13 -5z m170 0 c-3 -3 -12 -4
-19 -1 -8 3 -5 6 6 6 11 1 17 -2 13 -5z m40 0 c-3 -3 -12 -4 -19 -1 -8 3 -5 6
6 6 11 1 17 -2 13 -5z m40 0 c-3 -3 -12 -4 -19 -1 -8 3 -5 6 6 6 11 1 17 -2
13 -5z m566 -1 c-7 -2 -19 -2 -25 0 -7 3 -2 5 12 5 14 0 19 -2 13 -5z m155 0
c-10 -2 -26 -2 -35 0 -10 3 -2 5 17 5 19 0 27 -2 18 -5z m160 0 c-10 -2 -26
-2 -35 0 -10 3 -2 5 17 5 19 0 27 -2 18 -5z m720 -10 c-10 -2 -28 -2 -40 0
-13 2 -5 4 17 4 22 1 32 -1 23 -4z m92 -3 c0 -5 -2 -10 -4 -10 -3 0 -8 5 -11
10 -3 6 -1 10 4 10 6 0 11 -4 11 -10z m260 -2 c0 -4 -6 -8 -14 -8 -8 0 -17 4
-20 8 -2 4 4 8 15 8 10 0 19 -4 19 -8z m-2533 -4 c-3 -3 -12 -4 -19 -1 -8 3
-5 6 6 6 11 1 17 -2 13 -5z m40 0 c-3 -3 -12 -4 -19 -1 -8 3 -5 6 6 6 11 1 17
-2 13 -5z m210 0 c-3 -3 -12 -4 -19 -1 -8 3 -5 6 6 6 11 1 17 -2 13 -5z m40 0
c-3 -3 -12 -4 -19 -1 -8 3 -5 6 6 6 11 1 17 -2 13 -5z m123 -4 c0 -5 -2 -10
-4 -10 -3 0 -8 5 -11 10 -3 6 -1 10 4 10 6 0 11 -4 11 -10z m40 0 c0 -5 -2
-10 -4 -10 -3 0 -8 5 -11 10 -3 6 -1 10 4 10 6 0 11 -4 11 -10z m90 0 c0 -5
-4 -10 -10 -10 -5 0 -10 5 -10 10 0 6 5 10 10 10 6 0 10 -4 10 -10z m40 0 c0
-5 -4 -10 -10 -10 -5 0 -10 5 -10 10 0 6 5 10 10 10 6 0 10 -4 10 -10z m1797
4 c-3 -3 -12 -4 -19 -1 -8 3 -5 6 6 6 11 1 17 -2 13 -5z m-1474 -11 c-7 -2
-19 -2 -25 0 -7 3 -2 5 12 5 14 0 19 -2 13 -5z m304 1 c-3 -3 -12 -4 -19 -1
-8 3 -5 6 6 6 11 1 17 -2 13 -5z m71 -1 c-10 -2 -28 -2 -40 0 -13 2 -5 4 17 4
22 1 32 -1 23 -4z m89 1 c-3 -3 -12 -4 -19 -1 -8 3 -5 6 6 6 11 1 17 -2 13 -5z
m61 -1 c-10 -2 -26 -2 -35 0 -10 3 -2 5 17 5 19 0 27 -2 18 -5z m69 1 c-3 -3
-12 -4 -19 -1 -8 3 -5 6 6 6 11 1 17 -2 13 -5z m167 -2 c3 -5 -1 -9 -9 -9 -8
0 -12 4 -9 9 3 4 7 8 9 8 2 0 6 -4 9 -8z m-1709 -12 c3 -5 1 -10 -4 -10 -6 0
-11 5 -11 10 0 6 2 10 4 10 3 0 8 -4 11 -10z m40 0 c3 -5 1 -10 -4 -10 -6 0
-11 5 -11 10 0 6 2 10 4 10 3 0 8 -4 11 -10z m45 0 c0 -5 -4 -10 -10 -10 -5 0
-10 5 -10 10 0 6 5 10 10 10 6 0 10 -4 10 -10z m40 0 c0 -5 -5 -10 -11 -10 -5
0 -7 5 -4 10 3 6 8 10 11 10 2 0 4 -4 4 -10z m127 -6 c-3 -3 -12 -4 -19 -1 -8
3 -5 6 6 6 11 1 17 -2 13 -5z m210 0 c-3 -3 -12 -4 -19 -1 -8 3 -5 6 6 6 11 1
17 -2 13 -5z m40 0 c-3 -3 -12 -4 -19 -1 -8 3 -5 6 6 6 11 1 17 -2 13 -5z
m580 -10 c-3 -3 -12 -4 -19 -1 -8 3 -5 6 6 6 11 1 17 -2 13 -5z m180 0 c-3 -3
-12 -4 -19 -1 -8 3 -5 6 6 6 11 1 17 -2 13 -5z m-1130 -10 c-3 -3 -12 -4 -19
-1 -8 3 -5 6 6 6 11 1 17 -2 13 -5z m40 0 c-3 -3 -12 -4 -19 -1 -8 3 -5 6 6 6
11 1 17 -2 13 -5z m250 0 c-3 -3 -12 -4 -19 -1 -8 3 -5 6 6 6 11 1 17 -2 13
-5z m1486 -1 c-7 -2 -19 -2 -25 0 -7 3 -2 5 12 5 14 0 19 -2 13 -5z m110 0
c-7 -2 -21 -2 -30 0 -10 3 -4 5 12 5 17 0 24 -2 18 -5z m-1923 -17 c0 -3 -4
-8 -10 -11 -5 -3 -10 -1 -10 4 0 6 5 11 10 11 6 0 10 -2 10 -4z m80 -6 c0 -5
-4 -10 -10 -10 -5 0 -10 5 -10 10 0 6 5 10 10 10 6 0 10 -4 10 -10z m40 0 c0
-5 -4 -10 -10 -10 -5 0 -10 5 -10 10 0 6 5 10 10 10 6 0 10 -4 10 -10z m40 0
c0 -5 -4 -10 -10 -10 -5 0 -10 5 -10 10 0 6 5 10 10 10 6 0 10 -4 10 -10z m40
0 c0 -5 -5 -10 -11 -10 -5 0 -7 5 -4 10 3 6 8 10 11 10 2 0 4 -4 4 -10z m337
-6 c-3 -3 -12 -4 -19 -1 -8 3 -5 6 6 6 11 1 17 -2 13 -5z m-370 -20 c-3 -3
-12 -4 -19 -1 -8 3 -5 6 6 6 11 1 17 -2 13 -5z m40 0 c-3 -3 -12 -4 -19 -1 -8
3 -5 6 6 6 11 1 17 -2 13 -5z m290 0 c-3 -3 -12 -4 -19 -1 -8 3 -5 6 6 6 11 1
17 -2 13 -5z m40 0 c-3 -3 -12 -4 -19 -1 -8 3 -5 6 6 6 11 1 17 -2 13 -5z
m-450 -20 c-3 -3 -12 -4 -19 -1 -8 3 -5 6 6 6 11 1 17 -2 13 -5z m40 0 c-3 -3
-12 -4 -19 -1 -8 3 -5 6 6 6 11 1 17 -2 13 -5z m123 -4 c0 -5 -2 -10 -4 -10
-3 0 -8 5 -11 10 -3 6 -1 10 4 10 6 0 11 -4 11 -10z m40 0 c0 -5 -2 -10 -4
-10 -3 0 -8 5 -11 10 -3 6 -1 10 4 10 6 0 11 -4 11 -10z m40 0 c0 -5 -2 -10
-4 -10 -3 0 -8 5 -11 10 -3 6 -1 10 4 10 6 0 11 -4 11 -10z m40 0 c0 -5 -4
-10 -10 -10 -5 0 -10 5 -10 10 0 6 5 10 10 10 6 0 10 -4 10 -10z m85 0 c3 -5
1 -10 -4 -10 -6 0 -11 5 -11 10 0 6 2 10 4 10 3 0 8 -4 11 -10z m-1129 -397
c-11 -11 -17 4 -9 23 7 18 8 18 11 1 2 -10 1 -21 -2 -24z m2711 -145 c-2 -24
-4 -5 -4 42 0 47 2 66 4 43 2 -24 2 -62 0 -85z m-452 32 c3 -5 -1 -10 -9 -10
-9 0 -16 5 -16 10 0 6 4 10 9 10 6 0 13 -4 16 -10z m-732 -7 c-7 -2 -21 -2
-30 0 -10 3 -4 5 12 5 17 0 24 -2 18 -5z m75 0 c-10 -2 -28 -2 -40 0 -13 2 -5
4 17 4 22 1 32 -1 23 -4z m49 1 c-3 -3 -12 -4 -19 -1 -8 3 -5 6 6 6 11 1 17
-2 13 -5z m116 -1 c-7 -2 -19 -2 -25 0 -7 3 -2 5 12 5 14 0 19 -2 13 -5z m44
1 c-3 -3 -12 -4 -19 -1 -8 3 -5 6 6 6 11 1 17 -2 13 -5z m191 -1 c-10 -2 -28
-2 -40 0 -13 2 -5 4 17 4 22 1 32 -1 23 -4z m30 -30 c-26 -2 -71 -2 -100 0
-29 2 -8 3 47 3 55 0 79 -1 53 -3z m233 -15 c0 -10 2 -10 6 0 2 6 9 12 14 12
5 0 4 -9 -3 -19 -9 -15 -9 -37 0 -97 7 -42 10 -79 8 -81 -5 -5 -26 115 -26
148 0 14 -5 30 -12 37 -9 9 -9 12 0 12 7 0 12 -6 13 -12z m-681 -14 c0 -2 -7
-4 -15 -4 -8 0 -15 4 -15 10 0 5 7 7 15 4 8 -4 15 -8 15 -10z m51 -2 c-13 -2
-27 0 -32 5 -6 6 3 7 23 4 28 -4 29 -6 9 -9z m-33 -39 c-15 -2 -42 -2 -60 0
-18 2 -6 4 27 4 33 0 48 -2 33 -4z m90 0 c-10 -2 -26 -2 -35 0 -10 3 -2 5 17
5 19 0 27 -2 18 -5z m1009 -495 c-1 -90 -3 -19 -3 157 0 176 2 249 3 163 2
-86 2 -230 0 -320z m-1027 442 c-11 -7 -6 -10 22 -10 20 0 39 6 41 13 4 7 6 6
6 -4 1 -21 -34 -31 -65 -19 -28 11 -32 30 -6 30 14 0 15 -2 2 -10z m105 0 c-3
-5 -10 -10 -16 -10 -5 0 -9 5 -9 10 0 6 7 10 16 10 8 0 12 -4 9 -10z m-140
-19 c-6 -4 -32 -5 -60 -1 l-50 7 60 2 c34 0 55 -3 50 -8z m-52 -18 c-7 -2 -19
-2 -25 0 -7 3 -2 5 12 5 14 0 19 -2 13 -5z m254 1 c-3 -3 -12 -4 -19 -1 -8 3
-5 6 6 6 11 1 17 -2 13 -5z m126 -1 c-7 -2 -21 -2 -30 0 -10 3 -4 5 12 5 17 0
24 -2 18 -5z m-245 -55 c-3 -7 -13 -15 -23 -16 -15 -4 -16 -2 -4 12 17 19 32
21 27 4z m217 2 c-3 -5 -12 -10 -18 -10 -7 0 -6 4 3 10 19 12 23 12 15 0z
m385 -5 c0 -8 -4 -15 -10 -15 -5 0 -10 7 -10 15 0 8 5 15 10 15 6 0 10 -7 10
-15z m-720 -9 c0 -3 -4 -8 -10 -11 -5 -3 -10 -1 -10 4 0 6 5 11 10 11 6 0 10
-2 10 -4z m680 -101 c0 -47 -4 -85 -8 -85 -7 0 -8 34 -3 143 0 15 3 27 6 27 3
0 5 -38 5 -85z m-785 -4 c-3 -6 -11 -11 -16 -11 -5 0 -4 6 3 14 14 16 24 13
13 -3z m190 -1 c3 -5 1 -10 -4 -10 -6 0 -11 5 -11 10 0 6 2 10 4 10 3 0 8 -4
11 -10z m188 -7 c-7 -2 -21 -2 -30 0 -10 3 -4 5 12 5 17 0 24 -2 18 -5z m-340
-20 c-7 -2 -21 -2 -30 0 -10 3 -4 5 12 5 17 0 24 -2 18 -5z m105 -20 c-16 -2
-40 -2 -55 0 -16 2 -3 4 27 4 30 0 43 -2 28 -4z m169 -49 c-3 -3 -12 -4 -19
-1 -8 3 -5 6 6 6 11 1 17 -2 13 -5z m73 -4 c-20 -13 -40 -13 -40 0 0 6 12 10
28 10 21 0 24 -2 12 -10z m390 -15 c0 -14 -4 -25 -8 -25 -4 0 -8 11 -8 25 0
14 4 25 8 25 4 0 8 -11 8 -25z m-750 7 c0 -13 -12 -22 -22 -16 -10 6 -1 24 13
24 5 0 9 -4 9 -8z m153 -29 c-7 -2 -19 -2 -25 0 -7 3 -2 5 12 5 14 0 19 -2 13
-5z m110 0 c-7 -2 -21 -2 -30 0 -10 3 -4 5 12 5 17 0 24 -2 18 -5z m160 0 c-7
-2 -21 -2 -30 0 -10 3 -4 5 12 5 17 0 24 -2 18 -5z m349 -39 c-6 -35 -12 -29
-12 14 0 23 3 32 9 24 4 -7 6 -24 3 -38z m-619 19 c-7 -2 -19 -2 -25 0 -7 3
-2 5 12 5 14 0 19 -2 13 -5z m130 0 c-7 -2 -21 -2 -30 0 -10 3 -4 5 12 5 17 0
24 -2 18 -5z m154 1 c-3 -3 -12 -4 -19 -1 -8 3 -5 6 6 6 11 1 17 -2 13 -5z
m-377 -28 c0 -2 -9 -6 -20 -9 -11 -3 -20 -1 -20 4 0 5 9 9 20 9 11 0 20 -2 20
-4z m160 -6 c0 -5 -7 -10 -16 -10 -8 0 -12 5 -9 10 3 6 10 10 16 10 5 0 9 -4
9 -10z m427 -6 c-3 -3 -12 -4 -19 -1 -8 3 -5 6 6 6 11 1 17 -2 13 -5z m1214
-151 c13 -17 13 -17 -6 -3 -11 8 -22 16 -24 17 -2 2 0 3 6 3 6 0 17 -8 24 -17z
m-2456 -13 c-11 -5 -78 -9 -149 -9 -71 -1 -127 -3 -124 -6 2 -3 17 -6 31 -7
38 -3 34 -18 -5 -20 -18 -1 59 -5 172 -8 113 -3 227 -2 253 1 l48 5 -6 -60
c-3 -34 -8 -80 -11 -103 l-5 -43 -77 0 c-95 0 -126 -14 -130 -58 -3 -26 1 -34
22 -42 36 -13 75 -79 69 -114 -4 -17 -1 -31 7 -36 25 -15 2 -40 -36 -40 -21 0
-46 -7 -56 -17 -12 -10 -38 -18 -66 -19 -26 -1 -59 -5 -73 -9 -22 -6 -27 -3
-32 16 -3 13 -1 29 5 36 11 14 -1 16 -78 13 -31 -1 -43 3 -48 16 -8 22 5 37
54 59 22 10 40 22 40 27 0 5 -16 23 -35 40 -23 19 -32 34 -27 42 5 6 10 33 11
59 l2 48 -113 -3 -112 -3 -7 -30 c-4 -16 -24 -105 -45 -197 -21 -92 -41 -173
-45 -180 -11 -17 -79 21 -79 44 0 15 -9 18 -47 19 -104 1 -120 16 -21 18 40 1
73 3 74 4 1 1 4 29 6 62 l3 60 -52 3 c-33 2 -53 8 -57 17 -4 12 6 15 52 15 31
0 62 4 67 8 12 8 35 79 35 106 0 13 -11 16 -62 16 -41 0 -58 3 -49 9 19 12 6
43 -16 39 -10 -2 -18 -12 -18 -22 0 -22 0 -22 -77 -31 -32 -3 -57 -9 -56 -13
3 -15 -15 -103 -22 -107 -5 -3 -6 4 -3 14 3 10 -1 29 -7 41 -7 12 -8 20 -2 16
5 -3 12 1 15 8 4 10 0 13 -14 11 -29 -6 -46 3 -53 28 -5 21 -6 21 -19 3 -12
-17 -12 -10 0 49 14 68 50 206 55 210 10 8 546 12 558 5 8 -5 19 -5 25 0 6 5
74 11 151 13 76 1 153 3 169 4 25 1 27 0 10 -7z m48 -27 c-7 -2 -21 -2 -30 0
-10 3 -4 5 12 5 17 0 24 -2 18 -5z m2640 -110 c-7 -2 -21 -2 -30 0 -10 3 -4 5
12 5 17 0 24 -2 18 -5z m-845 -90 c-27 -2 -69 -2 -95 0 -27 2 -5 3 47 3 52 0
74 -1 48 -3z m165 0 c-7 -2 -21 -2 -30 0 -10 3 -4 5 12 5 17 0 24 -2 18 -5z
m-2276 -48 c-6 -39 -24 -59 -84 -98 -24 -15 -43 -30 -43 -33 0 -7 20 -26 50
-47 15 -10 25 -27 25 -42 1 -24 -2 -25 -57 -25 -36 0 -58 -4 -58 -11 0 -7 -16
-34 -35 -60 -19 -27 -35 -56 -35 -64 0 -21 -20 -19 -21 3 0 9 -5 2 -11 -17 -5
-19 -7 -43 -5 -53 3 -10 1 -16 -3 -13 -5 3 -11 -1 -14 -7 -3 -7 -4 -4 -1 7 2
11 12 57 21 102 9 45 21 80 26 77 4 -3 5 1 2 9 -3 8 6 63 20 123 13 60 26 123
28 139 3 30 4 30 78 36 41 3 86 6 99 7 22 2 23 -1 18 -33z m3363 -9 c0 -11
-19 -15 -25 -6 -3 5 1 10 9 10 9 0 16 -2 16 -4z m-3853 -13 c-11 -10 -57 -13
-57 -2 0 5 14 9 32 9 17 0 28 -3 25 -7z m56 -4 c-8 -8 -16 -8 -30 0 -16 9 -14
10 12 11 21 0 26 -3 18 -11z m89 -34 c-13 -42 -17 -45 -50 -45 -33 0 -34 1
-17 14 18 13 14 14 -33 13 -50 0 -72 7 -59 19 3 4 36 7 73 8 41 0 69 6 71 13
3 7 -7 10 -26 9 -16 -1 -28 2 -25 6 3 4 22 8 43 8 l38 0 -15 -45z m-195 1 c25
7 25 7 8 -20 -22 -34 -60 -36 -51 -3 3 12 6 31 7 42 2 17 2 17 6 -3 4 -18 9
-21 30 -16z m2223 24 c0 -5 -5 -10 -11 -10 -5 0 -7 5 -4 10 3 6 8 10 11 10 2
0 4 -4 4 -10z m120 -1 c0 -7 -11 -8 -30 -4 -32 7 -44 -10 -12 -18 11 -3 7 -5
-10 -6 -28 -1 -43 12 -33 29 8 14 85 13 85 -1z m119 -11 c0 -13 -3 -17 -6 -10
-2 6 -9 12 -14 12 -6 0 -7 -4 -4 -10 4 -6 -8 -10 -29 -10 -29 0 -36 4 -36 20
0 17 7 20 45 20 40 0 45 -2 44 -22z m111 16 c0 -3 -7 -12 -15 -20 -13 -14 -15
-14 -15 0 0 10 -9 16 -22 16 -21 0 -21 0 -2 -15 19 -14 19 -14 -2 -15 -21 0
-39 22 -27 34 8 8 83 8 83 0z m120 -15 c0 -19 -1 -19 -16 -5 -15 15 -44 22
-44 11 0 -3 10 -10 23 -15 19 -8 17 -9 -13 -7 -24 1 -36 7 -38 20 -3 14 4 17
42 17 40 0 46 -3 46 -21z m120 1 c0 -17 -7 -20 -45 -20 -38 0 -45 3 -45 20 0
17 7 20 45 20 38 0 45 -3 45 -20z m-1053 -12 c-3 -8 -6 -5 -6 6 -1 11 2 17 5
13 3 -3 4 -12 1 -19z m58 0 c6 -4 2 -8 -7 -8 -10 0 -18 7 -18 17 0 9 3 12 8 7
4 -5 12 -12 17 -16z m231 13 c5 -5 18 -11 29 -14 11 -3 4 -5 -17 -6 -28 -1
-38 3 -38 14 0 17 11 20 26 6z m64 -6 c0 -8 -2 -15 -4 -15 -2 0 -6 7 -10 15
-3 8 -1 15 4 15 6 0 10 -7 10 -15z m47 -7 c-3 -8 -6 -5 -6 6 -1 11 2 17 5 13
3 -3 4 -12 1 -19z m1754 4 c-7 -2 -18 1 -23 6 -8 8 -4 9 13 5 13 -4 18 -8 10
-11z m44 -2 c3 -5 1 -10 -4 -10 -6 0 -11 5 -11 10 0 6 2 10 4 10 3 0 8 -4 11
-10z m-2258 -6 c-3 -3 -12 -4 -19 -1 -8 3 -5 6 6 6 11 1 17 -2 13 -5z m500 0
c-3 -3 -12 -4 -19 -1 -8 3 -5 6 6 6 11 1 17 -2 13 -5z m1942 -103 c14 -13 20
-22 14 -20 -14 5 -133 118 -133 127 0 3 21 -14 47 -38 25 -25 58 -56 72 -69z
m-3582 56 l32 -34 -39 -22 c-42 -23 -60 -20 -103 17 -17 15 -15 17 25 43 24
15 45 28 48 28 3 1 20 -14 37 -32z m3366 26 c-7 -2 -19 -2 -25 0 -7 3 -2 5 12
5 14 0 19 -2 13 -5z m-1847 -27 c2 -13 1 -13 -3 -1 -2 8 -9 13 -14 10 -5 -4
-17 -2 -26 4 -15 8 -12 9 12 7 19 -2 31 -9 31 -20z m64 0 c0 -30 -25 -42 -27
-13 -1 12 3 25 10 29 17 11 17 11 17 -16z m48 -22 c-3 -27 -4 -26 -9 8 -3 22
-1 34 4 29 5 -5 7 -21 5 -37z m65 27 c5 -22 0 -31 -20 -31 -7 0 -13 11 -13 25
0 30 25 34 33 6z m47 -2 c0 -10 3 -25 6 -34 5 -12 2 -16 -10 -14 -9 2 -17 9
-18 14 0 6 -4 20 -9 32 -7 18 -5 21 11 20 12 -1 20 -9 20 -18z m117 -19 c2
-28 1 -31 -7 -15 -8 18 -9 18 -9 2 -1 -14 -8 -18 -33 -15 -29 3 -33 7 -36 36
l-3 33 43 -3 c41 -3 43 -4 45 -38z m113 21 c0 -11 3 -26 6 -35 5 -13 -2 -16
-40 -16 -46 0 -46 0 -46 35 0 34 1 35 40 35 33 0 40 -3 40 -19z m110 0 c0 -11
3 -26 6 -35 4 -11 1 -16 -10 -16 -9 0 -19 7 -22 15 -4 8 -10 15 -15 15 -4 0
-6 -7 -2 -16 4 -12 1 -15 -13 -12 -13 2 -20 13 -22 36 -3 31 -2 32 37 32 34 0
41 -3 41 -19z m174 -3 c13 -49 11 -51 -61 -44 -67 7 -83 16 -83 49 0 14 10 17
69 17 63 0 69 -2 75 -22z m-1267 -35 c-3 -10 -5 -2 -5 17 0 19 2 27 5 18 2
-10 2 -26 0 -35z m190 0 c-3 -10 -5 -2 -5 17 0 19 2 27 5 18 2 -10 2 -26 0
-35z m55 17 c3 -20 0 -30 -9 -30 -13 0 -18 41 -6 53 10 10 10 9 15 -23z m55 8
c-3 -8 -6 -5 -6 6 -1 11 2 17 5 13 3 -3 4 -12 1 -19z m61 10 c6 -9 4 -19 -9
-32 -19 -19 -19 -19 -19 12 0 33 11 41 28 20z m1597 -22 c15 -10 35 -36 45
-59 24 -55 50 -212 50 -300 0 -65 -2 -71 -34 -103 -28 -28 -41 -34 -78 -34
-26 0 -38 4 -30 8 8 6 -7 13 -43 22 -31 7 -55 19 -55 26 0 7 -11 25 -24 41
-12 15 -27 41 -33 57 -12 39 -31 44 -35 9 -3 -19 -6 -8 -11 32 -5 33 -14 101
-22 151 -20 120 -19 151 3 164 29 18 234 7 267 -14z m-3467 -8 c-3 -8 -25 -13
-59 -14 -45 -1 -48 0 -14 4 l40 6 -40 6 c-38 7 -37 7 18 9 43 1 58 -2 55 -11z
m1927 -8 c3 -5 2 -10 -4 -10 -5 0 -13 5 -16 10 -3 6 -2 10 4 10 5 0 13 -4 16
-10z m-738 -6 c-3 -3 -12 -4 -19 -1 -8 3 -5 6 6 6 11 1 17 -2 13 -5z m1095
-58 c10 -19 8 -18 -16 3 -14 14 -26 29 -26 34 0 13 29 -12 42 -37z m-2385 2
c-3 -7 -5 -2 -5 12 0 14 2 19 5 13 2 -7 2 -19 0 -25z m133 28 c0 -2 -8 -10
-17 -17 -10 -8 -14 -9 -10 -2 5 8 -5 11 -37 10 -24 -1 -42 1 -39 6 4 7 103 10
103 3z m86 -18 c-3 -13 -6 -33 -6 -45 0 -18 -6 -23 -25 -23 -16 0 -25 6 -25
15 0 11 -11 15 -37 16 -31 0 -34 2 -18 9 11 5 34 6 51 4 20 -4 35 0 43 10 12
14 10 16 -8 17 -33 2 -39 4 -47 12 -4 4 12 7 35 7 40 0 43 -2 37 -22z m2324
-18 c0 -22 -4 -40 -9 -40 -11 0 -71 61 -71 72 0 4 18 8 40 8 l40 0 0 -40z
m118 3 c3 -31 1 -33 -27 -33 -47 0 -61 9 -61 42 0 28 1 29 43 26 39 -3 42 -5
45 -35z m112 2 c0 -34 -1 -35 -40 -35 -25 0 -40 5 -40 13 0 6 -3 22 -6 35 -6
20 -3 22 40 22 46 0 46 0 46 -35z m114 13 c10 -38 7 -48 -14 -48 -11 0 -20 7
-20 15 0 8 -4 15 -10 15 -5 0 -6 -8 -3 -17 5 -13 2 -15 -11 -10 -10 4 -20 7
-22 7 -2 0 -4 14 -4 30 0 28 2 30 39 30 32 0 40 -4 45 -22z m-2834 -32 c0 -9
-30 -14 -35 -6 -4 6 3 10 14 10 12 0 21 -2 21 -4z m624 -41 c-4 -8 -10 -15
-14 -15 -5 0 -10 -8 -12 -17 -3 -14 -12 -17 -53 -14 -74 4 -77 14 -10 28 37 8
46 11 23 10 -46 -4 -51 10 -5 16 69 8 77 8 71 -8z m-199 -16 c0 -27 -32 -61
-54 -57 -21 3 -21 3 5 41 25 37 49 45 49 16z m78 14 c-7 -2 -19 -2 -25 0 -7 3
-2 5 12 5 14 0 19 -2 13 -5z m2136 -16 c-1 -17 -2 -18 -6 -4 -2 9 -14 17 -25
17 -14 0 -18 -5 -14 -15 4 -13 2 -14 -14 -5 -31 17 -24 27 20 28 36 2 40 -1
39 -21z m205 7 c3 -9 6 -24 6 -35 0 -17 -8 -19 -85 -19 -61 0 -85 3 -85 13 0
6 -3 22 -6 35 -6 22 -5 22 79 22 68 0 86 -3 91 -16z m-2213 -31 c-8 -15 -10
-15 -11 -2 0 17 10 32 18 25 2 -3 -1 -13 -7 -23z m-166 7 c3 -5 2 -10 -4 -10
-5 0 -13 5 -16 10 -3 6 -2 10 4 10 5 0 13 -4 16 -10z m2109 -16 c3 -8 2 -12
-4 -9 -6 3 -10 10 -10 16 0 14 7 11 14 -7z m-2424 -6 c0 -10 -17 -12 -62 -8
l-63 4 60 7 c33 3 61 6 63 7 1 1 2 -4 2 -10z m449 -38 c-23 -12 -119 -20 -119
-10 0 6 25 10 55 10 32 0 55 4 55 11 0 5 5 7 11 3 8 -5 8 -9 -2 -14z m-419 6
c0 -3 -4 -8 -10 -11 -5 -3 -10 -1 -10 4 0 6 5 11 10 11 6 0 10 -2 10 -4z
m2678 -22 c2 -13 -3 -21 -12 -21 -8 0 -13 4 -10 9 3 4 0 8 -6 8 -15 0 -41 -26
-33 -34 4 -3 -20 -5 -53 -4 l-59 1 50 6 c54 6 42 20 -18 22 -27 0 -29 2 -12 9
11 5 16 10 10 11 -12 3 103 16 125 15 8 -1 16 -11 18 -22z m-2426 9 c-15 -3
-22 -10 -18 -19 7 -19 1 -18 -19 3 -14 13 -21 14 -36 5 -24 -16 -29 -15 -29 3
0 12 13 15 63 14 34 -1 52 -4 39 -6z m-219 -30 c-7 -2 -19 -2 -25 0 -7 3 -2 5
12 5 14 0 19 -2 13 -5z m24 -15 c-3 -8 -6 -5 -6 6 -1 11 2 17 5 13 3 -3 4 -12
1 -19z m-107 2 c0 -5 -5 -10 -11 -10 -5 0 -7 5 -4 10 3 6 8 10 11 10 2 0 4 -4
4 -10z m297 -15 c0 -8 -4 -12 -9 -9 -5 3 -6 10 -3 15 9 13 12 11 12 -6z m-68
1 c-20 -17 -49 -25 -55 -14 -4 6 -3 8 2 5 6 -3 16 -2 24 4 14 8 38 13 29 5z
m-132 -38 c-3 -7 -5 -2 -5 12 0 14 2 19 5 13 2 -7 2 -19 0 -25z m128 -7 c-8
-14 -25 -14 -25 0 0 5 5 7 10 4 6 -3 10 -1 10 6 0 7 3 10 6 6 3 -3 3 -10 -1
-16z m-43 -25 c7 4 8 2 4 -4 -11 -18 -26 -14 -25 6 0 10 3 12 6 4 2 -6 10 -9
15 -6z m2558 -10 c0 -2 3 -12 6 -21 6 -15 2 -16 -32 -11 -21 3 -42 5 -45 6 -4
0 -9 7 -13 15 -4 12 4 15 39 15 25 0 45 -2 45 -4z m430 -5 c0 -6 -4 -13 -10
-16 -5 -3 -10 1 -10 9 0 9 5 16 10 16 6 0 10 -4 10 -9z m-600 -13 c0 -9 3 -9
12 0 17 17 38 15 38 -4 0 -11 -9 -14 -37 -12 -35 3 -61 28 -29 28 9 0 16 -5
16 -12z m-2493 -40 c-3 -7 -5 -2 -5 12 0 14 2 19 5 13 2 -7 2 -19 0 -25z
m2448 -308 c3 -5 25 -14 48 -21 23 -6 50 -18 61 -27 17 -16 213 -262 229 -289
5 -7 -15 -2 -44 11 -55 26 -109 72 -109 93 0 7 -4 13 -10 13 -5 0 -10 7 -10
15 0 8 -11 25 -25 37 -14 12 -25 25 -25 30 0 7 -54 63 -68 70 -17 8 -75 78
-65 78 7 0 15 -4 18 -10z m-3050 -82 c-4 -26 -3 -29 5 -16 8 14 22 16 78 11
37 -2 71 -9 76 -14 6 -5 18 -9 28 -9 11 0 15 -5 12 -15 -4 -8 -11 -12 -16 -9
-6 4 -5 -1 1 -12 23 -41 40 -54 77 -63 38 -9 38 -9 -26 -12 -36 -2 39 -6 165
-9 230 -6 230 -6 -114 -8 -309 -2 -343 0 -337 14 3 9 6 20 6 25 0 6 4 7 10 4
5 -3 7 0 4 9 -3 8 2 42 12 75 18 65 30 82 19 29z"/>
<path d="M3752 5690 c0 -14 2 -19 5 -12 2 6 2 18 0 25 -3 6 -5 1 -5 -13z"/>
<path d="M3731 5544 c0 -11 3 -14 6 -6 3 7 2 16 -1 19 -3 4 -6 -2 -5 -13z"/>
<path d="M1143 5445 c0 -22 2 -30 4 -17 2 12 2 30 0 40 -3 9 -5 -1 -4 -23z"/>
<path d="M1153 5360 c0 -25 2 -35 4 -22 2 12 2 32 0 45 -2 12 -4 2 -4 -23z"/>
<path d="M1162 5260 c0 -19 2 -27 5 -17 2 9 2 25 0 35 -3 9 -5 1 -5 -18z"/>
<path d="M1173 5175 c0 -22 2 -30 4 -17 2 12 2 30 0 40 -3 9 -5 -1 -4 -23z"/>
<path d="M1182 5090 c0 -19 2 -27 5 -17 2 9 2 25 0 35 -3 9 -5 1 -5 -18z"/>
<path d="M1192 4995 c0 -16 2 -22 5 -12 2 9 2 23 0 30 -3 6 -5 -1 -5 -18z"/>
<path d="M1201 4904 c0 -11 3 -14 6 -6 3 7 2 16 -1 19 -3 4 -6 -2 -5 -13z"/>
<path d="M3912 5300 c-12 -31 -4 -59 10 -38 7 9 8 6 5 -12 -3 -14 1 -43 9 -65
13 -39 13 -38 7 35 -6 90 -17 117 -31 80z"/>
<path d="M4162 5265 c-27 -45 -28 -51 -1 -24 11 11 24 18 27 14 4 -3 1 -9 -5
-13 -15 -10 -4 -62 13 -62 8 0 14 9 14 20 0 11 -4 20 -9 20 -4 0 -6 11 -4 24
3 13 1 32 -4 41 -9 15 -13 12 -31 -20z"/>
<path d="M4221 5191 c-1 -8 -9 -20 -18 -27 -17 -13 -17 -13 0 -14 19 0 32 22
24 42 -4 10 -6 10 -6 -1z"/>
<path d="M4141 4884 c0 -11 3 -14 6 -6 3 7 2 16 -1 19 -3 4 -6 -2 -5 -13z"/>
<path d="M1231 4644 c0 -11 3 -14 6 -6 3 7 2 16 -1 19 -3 4 -6 -2 -5 -13z"/>
<path d="M1241 4554 c0 -11 3 -14 6 -6 3 7 2 16 -1 19 -3 4 -6 -2 -5 -13z"/>
<path d="M895 2690 c28 -12 65 -12 65 0 0 6 -19 10 -42 9 -33 0 -38 -2 -23 -9z"/>
<path d="M1398 2653 c7 -3 16 -2 19 1 4 3 -2 6 -13 5 -11 0 -14 -3 -6 -6z"/>
<path d="M708 2273 c7 -3 16 -2 19 1 4 3 -2 6 -13 5 -11 0 -14 -3 -6 -6z"/>
<path d="M3260 2400 c0 -5 5 -10 10 -10 6 0 10 5 10 10 0 6 -4 10 -10 10 -5 0
-10 -4 -10 -10z"/>
<path d="M1007 2333 c-15 -14 -7 -43 12 -43 14 0 17 6 13 25 -4 25 -13 31 -25
18z"/>
<path d="M2880 2325 c0 -14 4 -25 9 -25 5 0 8 11 7 25 -1 33 -16 33 -16 0z"/>
<path d="M3100 2340 c0 -5 5 -10 10 -10 6 0 10 5 10 10 0 6 -4 10 -10 10 -5 0
-10 -4 -10 -10z"/>
<path d="M3265 2310 c3 -5 17 -10 31 -10 13 0 24 5 24 10 0 6 -14 10 -31 10
-17 0 -28 -4 -24 -10z"/>
<path d="M2940 2242 c0 -4 9 -13 20 -20 17 -10 20 -10 20 4 0 8 -4 12 -10 9
-5 -3 -10 -1 -10 4 0 6 -4 11 -10 11 -5 0 -10 -3 -10 -8z"/>
<path d="M1040 2146 c0 -2 11 -6 25 -8 13 -3 22 -1 19 3 -5 9 -44 13 -44 5z"/>
<path d="M875 2120 c3 -5 8 -10 11 -10 2 0 4 5 4 10 0 6 -5 10 -11 10 -5 0 -7
-4 -4 -10z"/>
<path d="M3308 2163 c7 -3 16 -2 19 1 4 3 -2 6 -13 5 -11 0 -14 -3 -6 -6z"/>
<path d="M3300 2130 c-24 -8 -23 -8 8 -9 20 -1 31 3 27 9 -3 6 -7 10 -8 9 -1
-1 -13 -5 -27 -9z"/>
<path d="M3320 1919 c0 -5 5 -7 10 -4 6 3 10 8 10 11 0 2 -4 4 -10 4 -5 0 -10
-5 -10 -11z"/>
</g>
</svg>
