<?xml version="1.0" standalone="no"?>
<!DOCTYPE svg PUBLIC "-//W3C//DTD SVG 20010904//EN"
 "http://www.w3.org/TR/2001/REC-SVG-20010904/DTD/svg10.dtd">
<svg version="1.0" xmlns="http://www.w3.org/2000/svg"
 width="626.000000pt" height="418.000000pt" viewBox="0 0 626.000000 418.000000"
 preserveAspectRatio="xMidYMid meet">

<g transform="translate(0.000000,418.000000) scale(0.100000,-0.100000)"
fill="#000000" stroke="none">
<path d="M0 4155 c0 -20 5 -25 26 -25 32 0 28 -24 -5 -28 -22 -3 -22 -6 -20
-128 2 -69 7 -128 11 -131 5 -2 4 -11 -2 -18 -8 -10 -8 -19 2 -35 11 -17 11
-22 -2 -30 -13 -8 -12 -11 5 -24 19 -13 19 -15 2 -21 -21 -9 -23 -45 -2 -45 8
0 15 -7 15 -15 0 -8 -7 -15 -15 -15 -8 0 -15 -4 -15 -10 0 -5 9 -10 20 -10 26
0 26 -26 0 -33 -11 -3 -20 -11 -20 -17 0 -7 8 -10 19 -7 11 3 22 -1 25 -8 6
-17 -3 -25 -26 -25 -10 0 -18 -6 -18 -14 0 -9 8 -12 25 -8 19 3 25 0 25 -13 0
-13 -6 -16 -25 -13 l-24 5 -1 -1437 0 -1436 96 47 c53 27 101 52 108 58 6 5
63 36 126 68 63 33 138 74 166 91 28 18 109 60 180 94 71 33 147 73 169 88 22
15 85 51 140 80 55 29 123 65 150 80 115 63 375 190 390 190 8 0 95 -25 192
-56 98 -31 217 -67 264 -79 47 -12 94 -27 105 -34 15 -10 15 -11 2 -7 -10 3
-20 1 -23 -4 -7 -11 -1 -12 120 -15 44 -1 103 -10 130 -20 28 -9 95 -27 150
-40 55 -12 136 -32 180 -43 44 -11 98 -24 120 -28 30 -6 34 -9 17 -12 -15 -2
-29 -18 -42 -48 -11 -24 -26 -44 -34 -44 -25 0 -106 -89 -107 -118 0 -15 -4
-36 -8 -47 -11 -27 -3 -45 16 -38 11 4 14 2 9 -5 -11 -18 19 -15 34 3 13 16
30 12 30 -7 0 -6 -3 -8 -6 -5 -4 3 -15 2 -26 -4 -16 -8 -17 -13 -7 -25 6 -8
10 -16 8 -17 -2 -2 -40 -14 -84 -26 -85 -25 -148 -32 -178 -22 -15 6 -10 13
30 41 26 19 51 38 55 44 6 9 -16 27 -111 84 -63 39 -74 37 -165 -27 -44 -31
-62 -38 -72 -30 -7 6 -17 8 -22 5 -6 -3 -23 -1 -40 5 -25 9 -32 17 -37 52 -9
50 -22 69 -44 63 -9 -3 -66 -8 -128 -11 -92 -6 -115 -4 -135 9 -14 9 -27 14
-30 11 -3 -3 -50 5 -104 18 -76 18 -104 21 -119 13 -10 -6 -56 -34 -101 -62
-44 -29 -98 -59 -118 -69 -60 -29 -53 -34 94 -70 107 -26 414 -122 595 -185
66 -23 134 -46 152 -51 18 -5 35 -14 38 -19 3 -5 -18 -25 -46 -44 l-51 -34
-51 15 c-28 8 -61 19 -74 24 -43 16 -64 10 -137 -39 -66 -45 -126 -69 -139
-55 -4 3 30 29 73 57 44 28 80 56 80 63 0 6 -30 18 -67 27 -38 8 -98 24 -135
34 l-67 19 -96 -53 c-52 -29 -97 -49 -100 -45 -2 4 -21 8 -41 9 -20 1 -39 3
-41 6 -3 2 32 28 76 57 45 29 81 56 81 59 0 9 -217 80 -243 80 -11 0 -58 -20
-106 -45 -89 -46 -146 -59 -135 -30 8 21 -19 29 -63 18 -23 -5 -39 -15 -41
-26 -3 -14 4 -17 35 -17 21 0 45 -5 53 -10 18 -12 16 -14 -79 -73 -63 -38 -76
-57 -41 -57 29 0 140 -32 140 -40 0 -14 -71 -19 -96 -8 -19 9 -36 9 -68 0 -29
-7 -54 -8 -81 -1 -22 6 -121 13 -220 15 -186 5 -256 16 -377 59 l-68 24 0
-240 0 -239 776 0 c515 0 773 3 769 10 -3 6 5 14 18 19 14 5 36 20 50 33 45
41 57 49 66 43 5 -3 12 3 15 12 5 15 15 17 60 15 50 -4 59 -1 108 36 66 50
189 135 246 170 23 15 41 31 39 37 -2 5 -22 14 -45 19 l-41 9 52 38 c28 22 54
39 57 39 3 0 50 -14 105 -31 193 -59 271 -81 335 -95 36 -8 112 -28 170 -45
103 -31 105 -31 138 -13 l33 17 37 -36 c21 -20 42 -37 47 -37 14 0 128 80 138
97 5 7 14 10 20 7 7 -4 9 -4 5 1 -9 9 92 91 107 87 5 -2 7 0 3 4 -5 4 6 15 22
25 32 20 38 37 19 56 -9 9 -6 11 12 7 19 -5 21 -4 9 5 -13 9 -13 11 3 12 61 3
96 1 107 -6 7 -4 15 -4 19 1 3 5 96 9 206 9 191 0 201 -1 231 -22 17 -12 34
-20 38 -16 7 7 9 -10 6 -46 -1 -14 2 -21 9 -17 8 5 8 -1 1 -20 -15 -38 -7 -51
40 -65 38 -12 68 -34 58 -44 -5 -5 -45 -13 -71 -14 -11 -1 -15 -5 -11 -13 5
-7 2 -9 -8 -6 -12 5 -13 1 -4 -27 6 -19 14 -31 18 -29 4 3 8 -1 8 -8 0 -8 -43
-56 -95 -108 -52 -52 -95 -98 -95 -102 0 -5 547 -8 1215 -8 l1215 0 0 1040 0
1040 -29 0 c-16 0 -33 -6 -39 -13 -6 -7 -30 -14 -54 -15 -72 -4 -172 -23 -178
-33 -4 -5 -49 -10 -101 -10 -139 -1 -255 -6 -332 -14 -46 -5 -72 -4 -80 4 -6
6 -8 13 -6 16 3 3 86 9 185 15 523 28 556 33 612 83 21 19 22 28 22 169 0 81
-3 148 -6 148 -4 0 -41 -34 -84 -76 -92 -89 -116 -108 -131 -98 -7 4 10 28 43
63 30 31 61 65 69 76 14 19 14 19 -12 0 -15 -11 -43 -33 -63 -49 -20 -16 -39
-26 -43 -22 -3 3 -4 7 -2 9 2 2 38 33 80 70 42 37 81 67 86 67 11 0 53 42 53
53 0 18 -29 2 -99 -51 -117 -90 -141 -102 -184 -95 -20 3 -37 10 -37 14 0 5
-15 8 -32 8 -18 -1 -58 2 -88 6 -30 4 -71 8 -90 9 -19 1 -41 5 -47 9 -7 4 -23
5 -36 1 -14 -3 -28 -1 -32 6 -4 7 -18 9 -36 5 -19 -4 -29 -3 -29 5 0 8 -10 9
-30 5 -19 -4 -30 -3 -30 5 0 7 -12 9 -35 4 -24 -4 -35 -3 -35 6 0 8 -10 9 -30
5 -20 -4 -30 -3 -30 5 0 8 -10 9 -29 5 -21 -4 -30 -2 -35 10 -5 13 -9 13 -26
3 -17 -11 -22 -11 -29 1 -6 9 -18 11 -34 7 -15 -3 -29 -1 -32 5 -4 5 -19 7
-35 4 -20 -4 -29 -2 -34 11 -6 15 -8 16 -24 0 -24 -21 -29 -20 -35 6 -6 21 -7
21 -26 4 -19 -17 -20 -17 -31 4 -9 16 -15 19 -23 11 -16 -16 -37 -13 -37 5 0
10 -5 14 -15 10 -8 -3 -22 -9 -30 -12 -10 -4 -15 0 -15 11 0 16 7 17 68 11 37
-3 209 -9 382 -13 l316 -6 17 27 c10 14 15 30 12 35 -14 24 -484 51 -870 51
-167 0 -193 -7 -154 -39 l24 -20 -32 -1 c-21 0 -37 -7 -47 -22 -9 -12 -19 -19
-23 -15 -3 4 -1 13 5 19 7 7 12 16 12 20 0 14 -27 9 -40 -7 -17 -20 -41 -20
-33 1 4 12 1 15 -13 12 -11 -2 -20 -13 -22 -26 -5 -34 -22 -26 -22 11 -1 30
-2 31 -15 13 -8 -10 -16 -23 -18 -29 -6 -18 -57 2 -57 22 0 26 25 45 115 85
94 41 236 113 250 127 5 5 -4 9 -27 9 -60 0 -79 52 -23 66 28 7 75 -18 75 -40
0 -9 30 -22 83 -36 92 -25 89 -25 532 -80 377 -47 562 -72 740 -99 72 -11 138
-20 148 -21 15 0 17 12 17 111 l0 111 -32 -7 c-45 -10 -160 -64 -173 -82 -7
-9 -23 -13 -40 -11 l-30 3 24 24 c33 33 13 50 -27 21 -36 -27 -88 -25 -86 3 2
14 -4 17 -24 15 -46 -5 -39 27 10 47 23 9 55 31 70 48 26 28 34 31 86 30 31 0
94 -4 140 -8 l82 -8 0 637 0 636 -1655 0 -1655 0 2 -227 c1 -126 -1 -340 -4
-476 -6 -210 -9 -253 -25 -285 -19 -39 -2 -32 -271 -118 -11 -3 -9 -12 7 -37
30 -45 91 -165 89 -174 -3 -15 14 -43 26 -43 10 0 90 -110 105 -144 2 -4 68
-104 147 -222 79 -117 144 -216 144 -219 0 -3 9 -18 21 -34 14 -19 19 -39 17
-62 -3 -30 -6 -34 -32 -34 -16 -1 -31 -6 -34 -13 -4 -14 -32 -16 -32 -2 0 6
-12 10 -26 10 -16 0 -23 -4 -18 -11 4 -8 -20 -10 -85 -6 -52 3 -91 1 -91 -4 0
-5 -9 -9 -20 -9 -33 0 -23 14 29 38 27 12 51 29 55 37 3 8 28 29 56 46 27 17
50 38 50 47 0 9 -11 32 -24 51 -110 167 -177 271 -191 301 -10 19 -24 39 -31
43 -8 4 -14 13 -14 18 0 6 -7 17 -16 26 -8 9 -13 22 -10 30 3 8 2 11 -3 8 -12
-7 -42 35 -35 47 3 4 1 8 -5 8 -5 0 -12 8 -16 19 -3 10 -17 31 -31 47 -13 16
-37 49 -51 74 -15 25 -54 78 -87 118 -54 64 -71 77 -156 118 -52 26 -126 60
-164 75 -38 16 -75 34 -81 39 -12 10 -41 9 -172 -5 -31 -3 -42 -1 -40 8 1 7
-12 13 -35 15 -21 2 -38 7 -38 12 0 4 -11 11 -25 14 -14 4 -25 10 -25 14 0 9
92 44 195 73 177 50 240 70 243 79 2 6 14 7 27 4 13 -3 33 -1 44 5 16 9 26 8
43 -3 21 -14 39 -11 198 29 227 58 276 72 297 84 17 10 17 10 1 11 -10 0 -27
17 -38 38 -22 40 -61 96 -87 124 -14 15 -15 45 -11 218 l5 200 -1009 0 c-889
0 -1011 -2 -1024 -15 -9 -8 -20 -13 -25 -10 -5 4 -9 2 -9 -2 0 -5 -16 -7 -37
-5 -36 5 -36 5 -12 17 20 11 -28 14 -293 15 l-318 1 0 -26z m230 -21 c0 -16
-35 -19 -45 -5 -6 11 26 32 37 25 5 -3 8 -12 8 -20z m-63 -1 c2 -6 -1 -14 -7
-18 -17 -10 -40 2 -34 19 6 16 36 15 41 -1z m-57 -7 c0 -16 -37 -28 -46 -15
-8 14 5 29 27 29 10 0 19 -6 19 -14z m2250 4 c0 -5 -5 -10 -11 -10 -5 0 -7 5
-4 10 3 6 8 10 11 10 2 0 4 -4 4 -10z m-1350 -26 c0 -10 -14 -14 -43 -14 -30
0 -44 4 -44 14 0 9 14 13 44 13 29 0 43 -4 43 -13z m-130 -16 c0 -5 -4 -7 -9
-3 -5 3 -12 1 -15 -4 -8 -12 -46 -2 -46 13 0 8 12 11 35 8 19 -2 35 -8 35 -14z
m-645 3 c3 -6 -3 -15 -14 -21 -21 -11 -37 2 -26 20 8 13 32 13 40 1z m562 -18
c-4 -3 -26 -8 -52 -10 -55 -7 -62 13 -7 22 20 4 42 8 47 9 11 3 20 -12 12 -21z
m-683 -15 c-3 -4 -14 -8 -25 -8 -24 0 -25 27 -1 32 18 4 34 -11 26 -24z m61
17 c0 -5 -10 -11 -22 -13 -16 -2 -23 2 -23 13 0 11 7 15 23 13 12 -2 22 -7 22
-13z m1184 1 c-11 -11 -79 -17 -79 -8 0 6 17 12 38 14 37 3 49 1 41 -6z
m-1309 -16 c0 -13 -7 -20 -20 -20 -13 0 -20 7 -20 20 0 13 7 20 20 20 13 0 20
-7 20 -20z m637 5 c-2 -5 -14 -12 -28 -13 -13 -2 -29 -8 -35 -13 -8 -7 -13 -2
-16 15 -5 23 -3 25 39 23 25 -1 42 -6 40 -12z m457 -22 c-9 -7 -21 -10 -26 -7
-14 9 1 23 23 21 19 -1 19 -2 3 -14z m-904 -19 c0 -8 -9 -14 -20 -14 -22 0
-28 26 -7 33 16 6 27 -1 27 -19z m-62 -1 c-5 -26 -38 -29 -38 -4 0 15 6 21 21
21 14 0 19 -5 17 -17z m797 -2 c-3 -6 -16 -11 -28 -11 -21 1 -21 1 3 15 27 14
36 13 25 -4z m75 10 c0 -5 -11 -8 -25 -8 -14 0 -25 3 -25 8 0 5 11 9 25 9 14
0 25 -4 25 -9z m-930 -15 c0 -18 -37 -28 -44 -11 -6 17 3 25 26 25 10 0 18 -6
18 -14z m800 5 c0 -5 -7 -11 -15 -15 -15 -5 -20 5 -8 17 9 10 23 9 23 -2z
m440 -1 c0 -5 -4 -10 -9 -10 -5 0 -23 -3 -40 -6 -19 -4 -31 -2 -31 4 0 10 23
18 63 21 9 0 17 -3 17 -9z m-1300 -15 c0 -16 -35 -21 -44 -6 -8 12 4 21 26 21
10 0 18 -7 18 -15z m755 5 c-3 -5 3 -10 14 -10 12 0 21 5 21 10 0 6 8 10 17
10 15 0 15 -2 3 -14 -20 -18 -100 -30 -100 -14 0 6 3 9 6 5 4 -3 13 0 21 8 17
17 27 20 18 5z m-70 -9 c3 -5 1 -12 -5 -16 -5 -3 -10 1 -10 9 0 18 6 21 15 7z
m-45 -17 c0 -7 -11 -14 -25 -16 -19 -4 -25 -1 -25 12 0 13 7 17 25 16 14 0 25
-6 25 -12z m17 -6 c-3 -8 -6 -5 -6 6 -1 11 2 17 5 13 3 -3 4 -12 1 -19z m423
12 c0 -5 -4 -10 -10 -10 -5 0 -10 5 -10 10 0 6 5 10 10 10 6 0 10 -4 10 -10z
m-954 -29 c-10 -16 -46 -13 -46 3 0 16 30 27 44 15 4 -4 5 -12 2 -18z m59 20
c3 -6 -3 -15 -14 -21 -21 -11 -37 2 -26 20 8 13 32 13 40 1z m811 -10 c-7 -11
-46 -11 -46 0 0 7 41 17 49 13 1 -2 0 -7 -3 -13z m-930 -20 c-10 -16 -46 -13
-46 3 0 16 30 27 44 15 4 -4 5 -12 2 -18z m853 8 c-8 -5 -21 -9 -29 -9 -12 1
-11 4 4 15 10 8 23 12 29 8 5 -3 3 -9 -4 -14z m381 1 c-16 -11 -77 -14 -67 -4
8 8 71 22 77 17 2 -2 -2 -8 -10 -13z m-1295 -10 c0 -8 -10 -16 -22 -18 -22 -3
-32 16 -16 32 12 11 38 2 38 -14z m847 -2 c-6 -6 -15 -8 -19 -4 -4 4 -1 11 7
16 19 12 27 3 12 -12z m-34 0 c-2 -6 -11 -12 -20 -14 -11 -1 -15 3 -11 12 6
17 36 19 31 2z m-94 -14 c3 -8 2 -12 -4 -9 -6 3 -10 10 -10 16 0 14 7 11 14
-7z m46 1 c0 -2 -7 -5 -15 -9 -9 -3 -15 0 -15 9 0 9 6 12 15 9 8 -4 15 -7 15
-9z m-580 -9 c0 -8 -7 -17 -16 -20 -23 -9 -24 -8 -24 14 0 13 7 20 20 20 11 0
20 -6 20 -14z m470 -2 c8 -8 7 -11 -2 -12 -7 0 -23 -3 -35 -6 -23 -5 -38 7
-29 22 7 12 53 9 66 -4z m30 6 c0 -5 -2 -10 -4 -10 -3 0 -8 5 -11 10 -3 6 -1
10 4 10 6 0 11 -4 11 -10z m390 0 c0 -5 -4 -10 -10 -10 -5 0 -10 5 -10 10 0 6
5 10 10 10 6 0 10 -4 10 -10z m-950 -14 c0 -8 -7 -17 -16 -20 -23 -9 -24 -8
-24 14 0 13 7 20 20 20 11 0 20 -6 20 -14z m866 -5 c-7 -11 -46 -11 -46 0 0 7
41 17 49 13 1 -2 0 -7 -3 -13z m-926 -6 c0 -8 -9 -15 -20 -15 -11 0 -20 7 -20
15 0 8 9 15 20 15 11 0 20 -7 20 -15z m-60 -10 c0 -16 -35 -21 -44 -6 -8 12 4
21 26 21 10 0 18 -7 18 -15z m860 6 c0 -12 -20 -25 -27 -18 -7 7 6 27 18 27 5
0 9 -4 9 -9z m55 -1 c-3 -5 -10 -10 -16 -10 -5 0 -9 5 -9 10 0 6 7 10 16 10 8
0 12 -4 9 -10z m375 0 c-8 -5 -28 -10 -45 -10 -23 0 -27 3 -15 10 8 5 29 10
45 10 23 0 27 -3 15 -10z m-480 -15 c-7 -8 -19 -15 -27 -15 -11 0 -11 3 -1 15
18 20 45 21 28 0z m-627 -26 c-13 -13 -43 -5 -43 10 0 13 33 20 45 9 5 -5 5
-12 -2 -19z m577 16 c0 -2 -7 -5 -15 -9 -9 -3 -15 0 -15 9 0 9 6 12 15 9 8 -4
15 -7 15 -9z m-632 -13 c5 -16 -27 -27 -40 -14 -6 6 -7 15 -4 20 8 13 39 9 44
-6z m512 2 c0 -11 -22 -24 -41 -24 -5 0 -9 8 -9 18 0 12 8 17 25 17 14 0 25
-5 25 -11z m45 6 c-4 -6 -11 -8 -16 -5 -5 4 -9 1 -9 -6 0 -7 -3 -10 -6 -6 -9
9 5 27 22 27 8 0 12 -5 9 -10z m414 -1 c-18 -11 -39 -11 -39 0 0 5 12 9 26 9
18 0 22 -3 13 -9z m-1031 -17 c5 -16 -27 -27 -40 -14 -6 6 -7 15 -4 20 8 13
39 9 44 -6z m-63 -11 c0 -16 -32 -24 -41 -10 -8 14 6 30 24 27 10 -2 17 -10
17 -17z m910 0 c-3 -6 -16 -11 -28 -11 -21 1 -21 1 3 15 27 14 36 13 25 -4z
m81 12 c-10 -10 -46 -11 -46 -1 0 4 12 8 27 8 14 0 23 -3 19 -7z m304 -2 c0
-10 -69 -25 -77 -17 -7 7 35 24 60 25 9 1 17 -3 17 -8z m-448 -23 c-6 -6 -15
-8 -19 -4 -4 4 -1 11 7 16 19 12 27 3 12 -12z m-34 0 c-3 -7 -12 -14 -21 -16
-12 -2 -15 1 -11 12 7 19 38 22 32 4z m682 3 c0 -14 -42 -21 -59 -10 -13 9
-12 10 5 6 12 -3 28 -1 35 4 18 11 19 11 19 0z m-1310 -16 c0 -8 -9 -15 -20
-15 -11 0 -20 7 -20 15 0 8 9 15 20 15 11 0 20 -7 20 -15z m575 -7 c6 -4 -3
-8 -18 -8 -23 0 -26 2 -15 14 7 8 15 11 18 8 3 -4 10 -10 15 -14z m-635 -3 c0
-8 -9 -15 -20 -15 -11 0 -20 7 -20 15 0 8 9 15 20 15 11 0 20 -7 20 -15z m560
5 c0 -5 -2 -10 -4 -10 -3 0 -8 5 -11 10 -3 6 -1 10 4 10 6 0 11 -4 11 -10z
m390 0 c0 -5 -4 -10 -10 -10 -5 0 -10 5 -10 10 0 6 5 10 10 10 6 0 10 -4 10
-10z m620 0 c0 -5 -8 -10 -17 -10 -15 0 -16 2 -3 10 19 12 20 12 20 0z m-1690
-26 c0 -8 -9 -14 -20 -14 -22 0 -28 26 -7 33 16 6 27 -1 27 -19z m60 11 c0 -8
-9 -15 -20 -15 -11 0 -20 7 -20 15 0 8 9 15 20 15 11 0 20 -7 20 -15z m577 1
c0 -16 -49 -16 -54 0 -2 6 9 11 25 12 17 0 29 -5 29 -12z m353 5 c0 -5 -11
-11 -25 -13 -14 -3 -25 -2 -25 3 0 4 10 10 23 12 12 2 23 5 25 6 1 0 2 -3 2
-8z m383 2 c-7 -2 -19 -2 -25 0 -7 3 -2 5 12 5 14 0 19 -2 13 -5z m-63 -13 c0
-5 -4 -10 -9 -10 -6 0 -13 5 -16 10 -3 6 1 10 9 10 9 0 16 -4 16 -10z m-460
-15 c-7 -9 -15 -13 -17 -11 -7 7 7 26 19 26 6 0 6 -6 -2 -15z m70 11 c0 -2 -7
-6 -15 -10 -8 -3 -15 -1 -15 4 0 6 7 10 15 10 8 0 15 -2 15 -4z m300 -6 c0 -5
-9 -10 -21 -10 -11 0 -17 5 -14 10 3 6 13 10 21 10 8 0 14 -4 14 -10z m-1035
-19 c0 -16 -32 -24 -41 -10 -8 14 6 30 24 27 10 -2 17 -10 17 -17z m635 14 c0
-2 -7 -8 -15 -15 -12 -10 -15 -10 -15 2 0 8 7 15 15 15 8 0 15 -1 15 -2z
m-695 -24 c0 -16 -32 -24 -41 -10 -8 14 6 30 24 27 10 -2 17 -10 17 -17z m625
-2 c0 -5 -4 -9 -10 -9 -5 0 -10 7 -10 16 0 8 5 12 10 9 6 -3 10 -10 10 -16z
m327 7 c-5 -15 -71 -30 -75 -17 -2 7 -9 5 -19 -5 -8 -8 -18 -13 -20 -10 -10
10 25 34 53 38 50 5 64 4 61 -6z m-1007 -10 c0 -16 -37 -28 -46 -15 -8 14 5
29 27 29 10 0 19 -6 19 -14z m1337 8 c-3 -3 -12 -4 -19 -1 -8 3 -5 6 6 6 11 1
17 -2 13 -5z m-1397 -18 c0 -16 -37 -28 -46 -15 -8 14 5 29 27 29 10 0 19 -6
19 -14z m628 1 c-6 -17 -48 -22 -48 -5 0 8 12 15 26 16 17 1 24 -2 22 -11z
m622 -7 c0 -5 -5 -10 -11 -10 -5 0 -7 5 -4 10 3 6 8 10 11 10 2 0 4 -4 4 -10z
m-55 -10 c-3 -5 -11 -10 -16 -10 -6 0 -7 5 -4 10 3 6 11 10 16 10 6 0 7 -4 4
-10z m-35 -4 c0 -3 -4 -8 -10 -11 -5 -3 -10 -1 -10 4 0 6 5 11 10 11 6 0 10
-2 10 -4z m-980 -21 c0 -8 -9 -15 -20 -15 -11 0 -20 7 -20 15 0 8 9 15 20 15
11 0 20 -7 20 -15z m600 11 c0 -2 -7 -9 -15 -16 -12 -10 -15 -10 -15 4 0 9 7
16 15 16 8 0 15 -2 15 -4z m325 -6 c3 -5 -1 -10 -10 -10 -9 0 -13 5 -10 10 3
6 8 10 10 10 2 0 7 -4 10 -10z m-980 -15 c0 -5 -10 -11 -22 -13 -16 -2 -23 2
-23 13 0 11 7 15 23 13 12 -2 22 -7 22 -13z m595 11 c0 -2 -7 -9 -15 -16 -12
-10 -15 -10 -15 4 0 9 7 16 15 16 8 0 15 -2 15 -4z m-655 -21 c0 -5 -10 -11
-22 -13 -16 -2 -23 2 -23 13 0 11 7 15 23 13 12 -2 22 -7 22 -13z m935 10 c0
-2 -9 -9 -20 -15 -16 -9 -20 -8 -20 5 0 8 9 15 20 15 11 0 20 -2 20 -5z m-995
-20 c0 -5 -10 -11 -22 -13 -16 -2 -23 2 -23 13 0 11 7 15 23 13 12 -2 22 -7
22 -13z m615 1 c0 -15 -42 -16 -47 -1 -2 6 8 12 22 13 15 1 25 -3 25 -12z
m295 4 c3 -5 2 -10 -4 -10 -5 0 -13 5 -16 10 -3 6 -2 10 4 10 5 0 13 -4 16
-10z m-35 -10 c0 -5 -7 -7 -15 -4 -8 4 -15 8 -15 10 0 2 7 4 15 4 8 0 15 -4
15 -10z m-693 -16 c2 -6 -5 -14 -17 -17 -15 -4 -20 0 -20 15 0 21 30 23 37 2z
m-57 -8 c0 -7 -9 -16 -20 -19 -15 -4 -20 0 -20 14 0 12 7 19 20 19 11 0 20 -6
20 -14z m660 9 c0 -2 -9 -9 -20 -15 -16 -9 -20 -8 -20 5 0 8 9 15 20 15 11 0
20 -2 20 -5z m-720 -19 c0 -7 -9 -16 -20 -19 -15 -4 -20 0 -20 14 0 12 7 19
20 19 11 0 20 -6 20 -14z m664 -1 c-4 -8 -15 -15 -25 -15 -21 0 -26 16 -6 23
24 10 36 7 31 -8z m-724 -9 c0 -18 -37 -28 -44 -11 -6 17 3 25 26 25 10 0 18
-6 18 -14z m670 10 c0 -2 -7 -9 -15 -16 -12 -10 -15 -10 -15 4 0 9 7 16 15 16
8 0 15 -2 15 -4z m-58 -18 c-8 -8 -17 -8 -34 0 -22 10 -21 11 12 11 26 1 31
-2 22 -11z m-432 -13 c0 -8 -2 -15 -4 -15 -2 0 -11 -3 -20 -6 -10 -4 -16 -1
-16 9 0 14 13 24 33 26 4 1 7 -6 7 -14z m-54 -24 c-10 -16 -46 -13 -46 3 0 16
30 27 44 15 4 -4 5 -12 2 -18z m-60 -10 c-10 -16 -46 -13 -46 3 0 16 30 27 44
15 4 -4 5 -12 2 -18z m-63 -12 c-13 -13 -43 -5 -43 10 0 13 33 20 45 9 5 -5 5
-12 -2 -19z m183 -18 c-10 -16 -36 -13 -36 3 0 17 21 27 34 16 4 -5 5 -13 2
-19z m-60 -10 c-10 -16 -36 -13 -36 3 0 17 21 27 34 16 4 -5 5 -13 2 -19z
m-56 -6 c0 -8 -9 -15 -20 -15 -11 0 -20 7 -20 15 0 8 9 15 20 15 11 0 20 -7
20 -15z m-60 -10 c0 -8 -9 -15 -20 -15 -11 0 -20 7 -20 15 0 8 9 15 20 15 11
0 20 -7 20 -15z m180 -20 c0 -8 -9 -15 -20 -15 -11 0 -20 7 -20 15 0 8 9 15
20 15 11 0 20 -7 20 -15z m-55 -4 c3 -6 -3 -15 -14 -21 -21 -11 -37 2 -26 20
8 13 32 13 40 1z m-60 -10 c3 -6 -3 -15 -14 -21 -21 -11 -37 2 -26 20 8 13 32
13 40 1z m-58 -17 c5 -14 -35 -26 -43 -13 -8 14 6 30 24 27 8 -2 17 -8 19 -14z
m553 0 c0 -8 -5 -12 -10 -9 -6 4 -8 11 -5 16 9 14 15 11 15 -7z m-615 -13 c0
-16 -32 -24 -41 -10 -8 14 6 30 24 27 10 -2 17 -10 17 -17z m245 -1 c0 -5 -9
-14 -20 -20 -17 -9 -20 -8 -20 10 0 13 7 20 20 20 11 0 20 -4 20 -10z m-60
-14 c0 -14 -29 -31 -38 -22 -2 3 -2 12 1 21 8 19 37 20 37 1z m-60 -11 c0 -8
-2 -15 -4 -15 -2 0 -11 -3 -20 -6 -10 -4 -16 -1 -16 9 0 14 13 24 33 26 4 1 7
-6 7 -14z m-62 -12 c-4 -22 -38 -30 -38 -10 0 14 13 24 33 26 5 1 7 -7 5 -16z
m-58 -18 c0 -8 -9 -15 -20 -15 -11 0 -20 7 -20 15 0 8 9 15 20 15 11 0 20 -7
20 -15z m240 1 c0 -17 -27 -29 -35 -16 -4 6 -3 15 0 20 9 15 35 12 35 -4z
m-57 -9 c-2 -4 -3 -11 -3 -17 0 -5 -6 -10 -14 -10 -18 0 -29 16 -22 29 7 10
42 8 39 -2z m-60 -28 c-7 -7 -20 -8 -30 -5 -17 7 -17 8 1 22 23 17 48 2 29
-17z m-55 -1 c-5 -15 -48 -24 -48 -10 0 14 12 22 33 22 10 0 17 -5 15 -12z
m-58 -8 c0 -15 -38 -32 -45 -20 -3 5 -3 15 0 20 8 13 45 13 45 0z m230 -20
c-21 -14 -30 -12 -30 4 0 18 22 27 35 14 6 -6 5 -12 -5 -18z m-54 -9 c-10 -16
-36 -13 -36 3 0 17 21 27 34 16 4 -5 5 -13 2 -19z m-56 -6 c0 -8 -9 -15 -20
-15 -11 0 -20 7 -20 15 0 8 9 15 20 15 11 0 20 -7 20 -15z m-60 -10 c0 -8 -9
-15 -20 -15 -11 0 -20 7 -20 15 0 8 9 15 20 15 11 0 20 -7 20 -15z m-60 -9 c0
-14 -29 -31 -38 -22 -2 3 -2 12 1 21 8 19 37 20 37 1z m3775 -148 c-4 -24 -12
-47 -17 -53 -7 -7 -9 -2 -4 15 3 14 6 37 6 53 0 15 5 27 11 27 7 0 8 -14 4
-42z m-918 -124 c-3 -3 -12 -4 -19 -1 -8 3 -5 6 6 6 11 1 17 -2 13 -5z m-137
-53 c0 -5 -6 -14 -14 -20 -16 -13 -32 2 -21 19 8 12 35 13 35 1z m3110 -26
c58 -10 62 -12 36 -19 -17 -4 -33 -3 -39 3 -6 6 -30 11 -53 11 -49 0 -74 8
-74 22 0 7 12 8 33 3 17 -4 61 -13 97 -20z m-1947 -187 c8 -24 18 -55 21 -70
3 -14 9 -34 13 -45 3 -10 2 -15 -2 -10 -5 4 -17 0 -27 -10 -23 -20 -26 -17
-44 48 -26 90 -27 99 -14 114 21 25 37 17 53 -27z m1917 3 c0 -22 -27 -36 -33
-18 -6 18 3 37 19 37 8 0 14 -9 14 -19z m100 -40 c-12 -23 -29 -35 -36 -28 -6
6 27 45 39 46 4 1 3 -8 -3 -18z m-2092 -44 c2 -10 -3 -17 -12 -17 -10 0 -16 9
-16 21 0 24 23 21 28 -4z m-124 -27 c19 -17 36 -26 38 -21 5 15 70 18 75 4 3
-7 -2 -13 -11 -13 -16 0 -20 -10 -17 -42 3 -27 -22 -21 -41 10 l-17 27 -1 -32
c0 -70 -51 -41 -64 36 -3 23 -11 41 -17 41 -5 0 -7 5 -4 10 10 16 22 12 59
-20z m886 -65 c-7 -9 -15 -13 -17 -11 -7 7 7 26 19 26 6 0 6 -6 -2 -15z m64 0
c-4 -8 -10 -15 -15 -15 -4 0 -6 7 -3 15 4 8 10 15 15 15 4 0 6 -7 3 -15z m66
1 c0 -2 -7 -9 -15 -16 -12 -10 -15 -10 -15 4 0 9 7 16 15 16 8 0 15 -2 15 -4z
m60 -3 c0 -5 -4 -15 -10 -23 -11 -18 -25 -7 -17 15 6 15 27 21 27 8z m-1234
-39 c-3 -9 -6 -38 -6 -65 0 -60 -17 -65 -21 -6 -5 60 0 87 18 87 10 0 13 -6 9
-16z m384 0 c0 -21 -24 -94 -31 -94 -12 0 -11 17 2 63 5 20 14 37 19 37 6 0
10 -3 10 -6z m-180 -123 c-13 -32 -37 -57 -45 -49 -3 3 4 27 15 53 15 35 24
45 32 37 8 -8 8 -19 -2 -41z m-3117 12 c-7 -2 -19 -2 -25 0 -7 3 -2 5 12 5 14
0 19 -2 13 -5z m-35 -25 c-7 -20 -71 -47 -117 -50 -23 -1 -45 -6 -47 -10 -3
-4 -27 -8 -53 -8 -26 0 -52 -5 -59 -12 -6 -6 -15 -9 -19 -5 -10 11 -5 13 122
55 125 42 180 51 173 30z m4108 -19 c139 -25 235 -53 321 -95 127 -61 153
-106 85 -146 -50 -30 -100 -31 -172 -4 -163 60 -239 90 -289 114 -53 26 -58
27 -247 27 -218 0 -247 8 -173 46 97 50 177 68 300 69 63 0 142 -5 175 -11z
m-792 -57 c-3 -20 -11 -43 -17 -51 -7 -8 -12 -28 -12 -45 -1 -25 -7 -34 -35
-48 -19 -9 -41 -22 -47 -28 -21 -18 -63 -30 -89 -26 -13 3 -24 0 -24 -6 0 -5
7 -8 15 -4 30 11 14 -11 -18 -26 -33 -16 -82 -14 -93 3 -5 8 9 13 29 10 4 0 7
4 7 9 0 6 5 10 10 10 6 0 10 -7 10 -15 0 -9 6 -12 15 -9 12 5 13 10 5 19 -9
11 -5 18 17 31 15 9 39 24 53 34 38 25 62 34 95 35 29 0 30 1 30 51 1 52 27
110 45 99 5 -3 7 -23 4 -43z m16 -137 c0 -5 -49 -31 -86 -45 -42 -16 -17 9 30
30 43 20 56 23 56 15z m-3750 -45 c0 -5 -5 -10 -11 -10 -5 0 -7 5 -4 10 3 6 8
10 11 10 2 0 4 -4 4 -10z m3555 -66 c-20 -19 -43 -34 -52 -32 -10 2 2 14 33
35 27 18 50 33 52 33 1 0 -13 -16 -33 -36z m1204 -5 c28 -18 51 -34 51 -36 0
-2 -27 11 -60 28 -33 17 -60 33 -60 35 0 10 23 1 69 -27z m-1339 1 c0 -5 10
-10 23 -10 22 -1 22 -1 -3 -15 -16 -9 -38 -13 -61 -9 -41 6 -60 -9 -32 -25 16
-9 15 -11 -10 -20 -35 -13 -57 -14 -77 -1 -11 7 -5 13 30 29 25 11 59 30 75
41 33 22 55 26 55 10z m74 -49 c11 -4 15 -10 10 -13 -5 -4 -18 0 -29 8 -20 15
-12 17 19 5z m-19 -28 c19 -15 18 -15 -15 -9 -43 8 -64 26 -29 26 13 0 33 -8
44 -17z m-105 -23 c0 -5 -8 -10 -17 -10 -15 0 -16 2 -3 10 19 12 20 12 20 0z
m63 0 c7 0 7 -4 -2 -9 -16 -10 -41 -4 -41 11 0 6 7 7 16 4 9 -3 21 -6 27 -6z
m-149 -11 c-2 -4 -19 -14 -39 -23 -26 -13 -40 -14 -55 -6 -16 9 -20 8 -20 -6
0 -10 5 -14 15 -10 33 12 13 -12 -23 -28 -30 -14 -43 -15 -67 -6 -39 15 -16
30 34 23 35 -4 35 -4 16 13 -17 14 -17 16 -2 11 11 -4 17 -1 17 8 0 19 35 28
60 15 18 -10 24 -7 22 11 -1 4 9 6 22 5 13 0 22 -4 20 -7z m-2812 -39 c22 -36
20 -35 -22 14 -14 16 -19 27 -12 25 7 -3 23 -20 34 -39z m3729 -13 c-14 -18
-4 -27 27 -27 24 0 24 -1 8 -19 -15 -16 -22 -18 -49 -9 -50 17 -52 25 -16 47
40 24 45 26 30 8z m-992 -34 c-10 -2 -19 -13 -22 -24 -4 -13 -10 -17 -22 -13
-15 6 -15 9 6 25 13 10 31 18 39 18 12 -1 11 -2 -1 -6z m-150 -33 c6 0 11 6
11 14 0 10 7 12 21 9 20 -6 18 -8 -15 -25 -38 -19 -106 -17 -106 4 0 5 14 7
33 4 17 -3 26 -3 19 0 -6 3 -9 11 -6 16 5 7 11 5 19 -5 7 -10 17 -17 24 -17z
m-1496 -60 c-3 -3 -8 1 -10 8 -3 7 -14 22 -25 32 -11 10 -17 24 -13 30 5 7 16
-2 30 -27 13 -21 21 -40 18 -43z m1560 43 c-19 -7 -16 -23 4 -23 16 0 16 -1 2
-16 -13 -12 -20 -13 -42 -3 -32 15 -36 29 -5 21 13 -3 19 -1 15 6 -7 10 7 20
28 20 6 0 4 -2 -2 -5z m-141 -23 c4 -3 -1 -11 -11 -17 -16 -10 -18 -8 -16 10
3 30 4 32 13 21 4 -5 10 -11 14 -14z m1326 -7 c-2 -10 -14 -19 -26 -21 -22 -3
-23 -3 -5 17 21 26 36 27 31 4z m-1368 -24 c0 -4 -16 -2 -35 4 -22 6 -31 13
-24 18 13 8 59 -9 59 -22z m-73 -5 c-3 -3 -12 -4 -19 -1 -8 3 -5 6 6 6 11 1
17 -2 13 -5z m243 -14 c0 -5 -4 -10 -9 -10 -6 0 -13 5 -16 10 -3 6 1 10 9 10
9 0 16 -4 16 -10z m-227 -24 c-36 -21 -48 -23 -78 -15 -49 14 -44 23 10 17 29
-4 51 -1 62 8 10 7 25 13 33 14 8 0 -4 -11 -27 -24z m131 13 c22 -6 47 -13 54
-15 7 -2 11 -8 7 -13 -6 -10 -92 14 -109 30 -13 12 -2 11 48 -2z m-24 -34 c0
-12 -19 -12 -23 0 -4 9 -1 12 9 8 7 -3 14 -7 14 -8z m-252 -9 c-25 -18 -22
-26 8 -26 14 0 23 -4 19 -10 -4 -6 -11 -8 -16 -5 -5 4 -9 2 -9 -3 0 -6 -13 -6
-35 0 -19 6 -32 15 -29 19 2 5 12 5 22 2 9 -3 13 -2 9 2 -4 5 3 15 15 22 30
16 38 16 16 -1z m82 -1 c0 -2 -10 -9 -22 -15 -22 -11 -22 -10 -4 4 21 17 26
19 26 11z m114 -16 c-3 -6 6 -7 23 -4 21 5 24 4 13 -4 -13 -10 -13 -11 0 -12
8 -1 18 -1 23 0 4 0 7 -3 7 -9 0 -13 -10 -13 -61 5 -75 26 -76 27 -49 35 29 8
52 2 44 -11z m1376 -31 c0 -12 -6 -9 -26 13 -19 22 -19 22 4 8 12 -8 22 -17
22 -21z m-1440 12 c11 -8 7 -10 -17 -8 -17 1 -29 6 -27 10 7 11 26 10 44 -2z
m-195 -20 c7 -12 -2 -12 -30 0 -19 8 -19 9 2 9 12 1 25 -3 28 -9z m25 -15 c-7
-8 -17 -15 -23 -15 -6 0 -2 7 9 15 25 19 30 19 14 0z m172 -26 c51 -23 20 -22
-42 1 -37 14 -57 26 -49 30 6 4 23 2 38 -5 14 -7 38 -19 53 -26z m-236 -4 c2
-11 -3 -14 -17 -10 -10 3 -28 8 -39 11 -11 3 -18 9 -15 14 3 5 17 5 31 -1 23
-8 25 -7 20 8 -6 14 -5 15 5 6 7 -7 14 -20 15 -28z m-71 -14 c3 -5 1 -12 -5
-16 -5 -3 -10 1 -10 9 0 18 6 21 15 7z m153 -3 c-2 -6 17 -22 42 -34 51 -26
40 -31 -17 -10 -21 8 -47 17 -58 21 -18 6 -18 7 5 20 14 7 26 13 28 14 1 1 1
-4 0 -11z m-212 -6 c-2 -4 2 -15 9 -25 8 -12 15 -14 20 -8 3 6 11 11 18 11 6
0 1 -7 -11 -16 -19 -13 -27 -13 -57 -3 l-35 13 28 18 c30 20 36 22 28 10z
m444 -57 c0 -2 -16 2 -35 7 -19 6 -32 15 -30 19 5 7 65 -17 65 -26z m-2590 -9
c-19 -22 -80 -52 -80 -41 0 8 93 75 98 70 3 -3 -5 -16 -18 -29z m2345 16 c-3
-3 -11 0 -18 7 -9 10 -8 11 6 5 10 -3 15 -9 12 -12z m-265 -2 c0 -5 -5 -10
-11 -10 -5 0 -7 5 -4 10 3 6 8 10 11 10 2 0 4 -4 4 -10z m53 -10 c7 0 -8 -10
-33 -23 -25 -12 -48 -26 -52 -31 -7 -10 -68 12 -68 24 0 5 14 13 30 19 27 9
30 8 30 -9 0 -19 1 -19 35 -3 25 12 32 19 23 26 -9 6 -7 7 5 3 10 -3 24 -6 30
-6z m124 -11 c54 -22 73 -32 73 -40 0 -9 -109 29 -124 43 -14 12 18 10 51 -3z
m1844 -16 l24 -26 -27 19 c-15 10 -28 22 -28 27 0 12 5 8 31 -20z m-1871 -13
c10 -6 2 -7 -25 -3 -49 7 -58 13 -19 13 16 0 36 -5 44 -10z m267 -12 c18 -7
33 -15 33 -19 0 -7 -68 17 -79 27 -8 8 13 4 46 -8z m-332 -7 c3 -5 -3 -12 -12
-14 -10 -3 -3 -5 15 -6 17 0 32 -5 32 -11 0 -5 5 -10 11 -10 5 0 8 3 6 8 -3 4
6 7 19 7 13 0 24 -1 24 -1 0 -1 -12 -9 -26 -19 -25 -16 -29 -16 -85 5 -65 25
-74 36 -31 43 15 2 30 5 34 6 4 0 9 -3 13 -8z m135 -5 c0 -2 -7 -7 -16 -10 -8
-3 -12 -2 -9 4 6 10 25 14 25 6z m99 -112 c13 -12 -11 -12 -45 0 -81 29 -95
36 -89 45 4 8 119 -31 134 -45z m3171 22 c0 -14 -24 -29 -33 -19 -3 3 -3 11 0
19 7 18 33 18 33 0z m-3041 -68 c24 -10 42 -21 39 -23 -7 -8 -128 38 -128 48
0 9 25 3 89 -25z m165 -59 c31 -12 56 -26 56 -30 0 -9 -109 28 -124 42 -16 15
9 10 68 -12z m186 -69 c80 -33 102 -47 57 -36 -53 13 -137 47 -137 57 0 12 -2
13 80 -21z m57 -85 c0 -17 0 -17 -22 -9 -13 5 -14 8 -3 15 19 12 25 11 25 -6z
m-1930 -161 c40 -10 70 -21 67 -26 -4 -5 3 -12 15 -15 14 -4 25 -21 36 -61
l16 -55 87 6 c48 4 113 12 144 18 49 10 61 9 82 -5 14 -9 36 -16 48 -16 23 -1
23 -1 3 -16 -11 -8 -42 -29 -70 -47 -40 -25 -46 -32 -30 -35 11 -2 52 -24 92
-49 40 -24 80 -43 90 -41 13 3 8 10 -22 26 -22 11 -59 34 -83 50 -35 24 -40
31 -29 41 12 9 25 8 61 -4 l47 -16 39 33 c46 40 48 51 13 64 -26 9 -26 9 33
50 l59 41 66 -43 c80 -51 86 -59 57 -75 -13 -7 -25 -15 -28 -19 -8 -11 -150
-100 -159 -100 -5 0 -14 -7 -21 -15 -21 -26 9 -18 73 19 52 30 61 32 92 22 38
-12 36 -6 40 -135 1 -19 6 -36 13 -39 6 -2 51 5 99 16 181 41 271 55 318 48
25 -4 43 -11 40 -17 -4 -5 1 -9 10 -9 24 0 10 -38 -26 -73 -29 -28 -37 -47
-20 -47 4 0 21 -12 36 -26 23 -22 26 -28 14 -38 -24 -23 -439 87 -909 239
-340 110 -517 164 -635 192 -63 15 -115 30 -115 33 0 4 15 13 33 22 17 9 72
41 122 72 60 38 96 55 110 52 11 -3 52 -13 92 -22z m399 -51 c3 -16 7 -33 9
-40 2 -6 -2 -14 -10 -16 -28 -11 -172 -28 -210 -25 -37 3 -41 6 -53 42 -7 21
-10 41 -8 43 3 4 101 12 243 22 17 1 24 -6 29 -26z m161 -135 c-59 -32 -79
-18 -25 18 24 15 36 18 44 10 9 -8 4 -15 -19 -28z m543 0 c-15 -6 -27 -5 -34
3 -8 9 -8 10 1 5 6 -3 14 -2 18 3 3 6 13 7 22 4 13 -5 12 -8 -7 -15z m83 15
c-7 -2 -21 -2 -30 0 -10 3 -4 5 12 5 17 0 24 -2 18 -5z m56 -63 c0 -10 -3 -8
-9 5 -12 27 -12 43 0 25 5 -8 9 -22 9 -30z m-79 20 c-12 -8 -9 -10 11 -10 18
0 28 -6 32 -20 3 -13 1 -18 -6 -13 -7 4 -29 9 -49 10 -29 2 -38 -1 -38 -12 0
-8 6 -15 13 -15 8 0 7 -3 -3 -9 -8 -6 -17 -8 -21 -5 -4 2 -10 -3 -13 -12 -5
-12 -14 -14 -37 -9 -27 6 -31 5 -26 -9 4 -10 1 -16 -8 -16 -13 0 -17 -9 -14
-37 0 -8 -59 -27 -115 -37 -34 -6 -36 -5 -36 19 0 23 3 25 23 20 12 -4 30 -9
39 -11 10 -3 21 3 28 16 8 14 18 20 30 17 14 -4 18 0 15 14 -2 11 2 19 9 19 6
0 18 6 25 13 6 6 15 12 19 13 41 5 62 18 62 40 0 29 -14 30 -64 4 -22 -10 -44
-17 -50 -13 -6 3 -8 3 -4 -2 10 -11 -22 -34 -49 -35 -17 0 -20 -4 -15 -22 3
-13 1 -19 -5 -15 -6 4 -24 2 -42 -3 -30 -8 -31 -7 -31 21 0 35 6 37 150 74 54
14 106 22 114 19 9 -3 16 -1 16 5 0 6 12 11 28 11 21 0 24 -2 12 -10z m-1469
-91 l67 -22 -75 -49 c-74 -48 -102 -59 -63 -23 20 18 28 55 12 55 -5 0 -19
-11 -31 -24 -13 -14 -29 -22 -37 -19 -8 3 -16 -1 -19 -9 -3 -8 -21 -21 -40
-28 -19 -8 -35 -17 -35 -22 0 -5 -11 -6 -25 -2 -33 8 -32 -9 0 -24 37 -17 53
-15 67 8 7 11 19 20 26 20 7 0 15 7 18 15 7 16 34 21 34 6 0 -13 -43 -42 -108
-75 l-52 -26 -102 26 c-56 14 -109 29 -118 34 -24 14 -2 12 57 -7 52 -16 53
-16 76 5 13 12 29 22 35 22 7 0 12 7 12 15 0 9 6 12 15 9 8 -4 15 -1 15 5 0 6
-4 11 -10 11 -5 0 -7 7 -4 15 4 9 0 15 -10 15 -9 0 -16 -4 -16 -9 0 -4 -12 -6
-26 -3 -19 3 -25 1 -20 -7 4 -6 14 -11 23 -11 13 0 13 -3 3 -15 -10 -12 -15
-13 -21 -4 -6 10 -12 7 -26 -9 -14 -18 -24 -21 -50 -16 l-33 6 23 18 c33 26
226 140 261 155 32 14 29 14 177 -36z m1518 16 c9 5 23 -34 16 -45 -3 -4 -32
-13 -66 -19 -33 -7 -68 -15 -78 -18 -14 -4 -14 -3 -1 6 12 8 8 11 -19 11 -19
0 -31 3 -27 7 4 4 22 6 40 5 20 -2 37 3 45 12 8 9 20 16 28 16 9 0 13 6 9 15
-3 9 0 15 9 15 8 0 15 6 15 13 0 6 5 4 11 -6 6 -9 14 -15 18 -12z m84 -60 c15
-11 17 -15 6 -15 -24 0 -39 22 -38 55 2 30 2 30 6 3 2 -15 14 -35 26 -43z
m-2023 25 c-8 -5 -24 -10 -35 -10 -17 0 -17 2 -5 10 8 5 24 10 35 10 17 0 17
-2 5 -10z m2146 1 c-4 -5 0 -12 6 -14 8 -4 7 -6 -3 -6 -9 -1 -20 -8 -23 -17
-3 -8 -2 -12 4 -9 6 3 10 2 10 -3 0 -6 -7 -12 -15 -16 -9 -3 -15 0 -15 9 0 8
-7 15 -16 15 -13 0 -11 5 7 25 23 23 57 36 45 16z m59 -1 c3 -6 -4 -10 -17
-10 -18 0 -20 2 -8 10 19 12 18 12 25 0z m458 -33 c-7 -11 -23 2 -23 19 0 12
2 12 14 2 8 -7 12 -16 9 -21z m-55 6 c-10 -2 -26 -2 -35 0 -10 3 -2 5 17 5 19
0 27 -2 18 -5z m-366 -14 c2 -2 1 -3 -1 -2 -2 1 -11 -7 -21 -19 -12 -15 -22
-19 -36 -14 -15 7 -16 9 -4 14 8 3 18 11 23 18 6 11 33 14 39 3z m-1372 -79
c0 -3 -17 -14 -37 -25 -21 -11 -72 -42 -113 -70 -96 -66 -100 -68 -100 -57 0
5 31 30 70 57 38 26 67 52 64 56 -11 19 -53 7 -96 -26 -31 -23 -55 -33 -74
-32 -25 2 -28 -1 -29 -28 0 -25 4 -31 30 -35 20 -4 26 -8 18 -13 -7 -5 -17 -5
-23 -2 -5 3 -10 1 -10 -5 0 -10 -64 -5 -104 10 -17 6 -15 9 15 30 19 14 40 30
47 37 7 6 30 22 52 34 21 12 37 26 34 31 -3 4 2 8 10 8 9 0 16 4 16 9 0 5 9 7
20 4 12 -3 29 2 40 12 20 18 20 18 -1 33 -20 14 -23 13 -35 -2 -7 -10 -17 -15
-23 -12 -5 4 -19 -4 -30 -16 -12 -12 -21 -17 -21 -11 0 6 -11 8 -25 5 -24 -4
-36 -22 -15 -22 6 0 10 -4 10 -9 0 -5 -23 -11 -51 -15 -33 -5 -49 -11 -46 -19
4 -13 -29 -47 -46 -47 -6 0 -7 3 -4 7 4 3 -1 11 -10 18 -17 13 -19 12 165 119
l72 42 115 -30 c63 -17 115 -33 115 -36z m1479 56 l24 -13 -36 -14 c-20 -7
-37 -19 -37 -26 0 -10 -4 -9 -17 2 -10 8 -27 22 -38 30 -11 8 -15 15 -10 14
34 -5 85 2 80 11 -8 14 5 12 34 -4z m111 -16 c0 -15 -5 -12 -26 11 -19 22 -19
22 4 10 12 -6 22 -16 22 -21z m1785 2 c6 -4 11 -14 12 -22 3 -18 -76 -60 -112
-60 -14 0 -25 -4 -25 -9 0 -4 -26 -20 -57 -34 -32 -15 -77 -38 -100 -52 -24
-15 -43 -22 -43 -17 0 5 31 45 69 89 74 85 77 86 211 107 14 2 27 4 30 4 3 1
10 -2 15 -6z m-2160 -12 c-3 -5 -10 -10 -16 -10 -5 0 -9 5 -9 10 0 6 7 10 16
10 8 0 12 -4 9 -10z m95 1 c0 -17 -26 -30 -49 -24 l-23 6 23 13 c28 15 49 18
49 5z m225 -41 c-12 -8 -28 -21 -36 -27 -33 -29 -111 -90 -153 -121 -50 -37
-65 -35 -107 15 -13 16 -39 39 -56 51 -28 20 -31 26 -22 44 6 11 13 17 16 14
3 -3 13 3 22 12 9 10 12 12 8 5 -12 -17 0 -33 26 -33 12 0 29 -4 37 -10 9 -5
19 -5 27 2 7 6 13 7 13 2 0 -5 5 -2 10 6 7 12 12 8 21 -18 10 -30 15 -33 38
-28 14 4 32 7 39 8 6 1 12 6 12 12 1 22 38 56 54 50 12 -5 15 -2 10 10 -5 12
0 16 22 16 22 0 25 3 16 12 -7 7 -12 16 -12 22 0 5 8 1 19 -10 18 -19 17 -19
-4 -34z m-150 0 c11 -5 14 -9 7 -9 -7 -1 -10 -5 -7 -11 4 -6 -6 -7 -27 -3 -38
7 -49 13 -25 13 10 0 17 5 17 10 0 12 8 12 35 0z m-1880 -12 c55 -25 -8 -64
-115 -72 l-75 -6 62 35 c34 20 65 40 68 45 8 13 29 13 60 -2z m685 -33 c30 -9
59 -21 65 -26 5 -5 25 -9 45 -9 30 0 83 -19 55 -20 -6 0 -47 -25 -92 -55 -80
-52 -106 -60 -78 -21 9 11 20 16 31 12 12 -5 15 -2 10 10 -4 11 -2 15 7 11 18
-7 41 8 33 21 -12 20 -64 24 -90 7 -17 -12 -36 -15 -56 -11 -16 3 -43 9 -60
12 -21 4 -30 2 -30 -7 0 -7 -3 -9 -7 -6 -3 4 -16 1 -28 -7 -12 -8 -27 -11 -34
-6 -14 8 147 123 164 117 6 -2 35 -12 65 -22z m-320 -91 c11 -13 10 -16 -8
-21 -12 -3 -22 -9 -22 -13 0 -11 -50 -31 -89 -36 -41 -5 -41 -5 35 45 69 46
68 46 84 25z m230 -4 c0 -5 -5 -10 -11 -10 -5 0 -7 5 -4 10 3 6 8 10 11 10 2
0 4 -4 4 -10z m-168 -25 c-3 -19 -10 -24 -29 -23 l-25 3 29 22 c15 13 29 23
29 23 1 0 -1 -11 -4 -25z m133 6 c-3 -5 -1 -12 5 -16 15 -9 2 -25 -15 -19 -11
5 -12 11 -4 25 5 10 12 19 15 19 3 0 3 -4 -1 -9z m2293 -21 c-7 -10 -14 -17
-17 -15 -4 4 18 35 25 35 2 0 -1 -9 -8 -20z m-2758 -25 c0 -8 -2 -15 -4 -15
-2 0 -6 7 -10 15 -3 8 -1 15 4 15 6 0 10 -7 10 -15z m560 -20 c-7 -9 -19 -14
-27 -11 -9 4 -11 1 -7 -6 5 -8 2 -9 -10 -5 -9 4 -15 3 -12 -2 8 -12 -19 -33
-29 -23 -5 4 -5 2 -1 -5 8 -14 -10 -27 -29 -19 -11 4 -7 13 16 36 17 16 35 30
40 30 5 0 9 3 9 8 0 12 44 29 54 21 5 -5 4 -15 -4 -24z m-140 1 c0 -2 -7 -6
-15 -10 -8 -3 -15 -1 -15 4 0 6 7 10 15 10 8 0 15 -2 15 -4z"/>
<path d="M3798 2163 c-16 -2 -28 -9 -28 -14 0 -14 34 -11 56 6 10 8 15 14 9
13 -5 0 -22 -3 -37 -5z"/>
<path d="M3530 2004 c0 -9 5 -14 12 -12 18 6 21 28 4 28 -9 0 -16 -7 -16 -16z"/>
<path d="M2351 760 c-13 -11 -29 -20 -36 -20 -7 0 -18 -7 -25 -15 -8 -9 -22
-12 -41 -8 -18 3 -29 1 -29 -6 0 -6 5 -11 10 -11 6 0 10 -7 10 -15 0 -8 -4
-15 -10 -15 -5 0 -10 5 -10 10 0 12 -10 13 -29 1 -10 -7 -10 -12 5 -30 23 -26
40 -27 56 -1 7 11 21 20 30 20 10 0 18 6 18 13 0 7 27 26 60 41 62 30 71 40
44 50 -22 9 -26 8 -53 -14z"/>
<path d="M1806 840 c14 -14 82 -30 100 -23 22 8 16 21 -8 20 -13 0 -41 3 -63
8 -31 6 -37 5 -29 -5z"/>
<path d="M1154 615 c-3 -8 -10 -12 -15 -9 -16 10 -51 -7 -45 -22 6 -15 -9 -20
-18 -6 -4 7 -31 8 -56 3 -3 -1 3 -8 13 -15 16 -12 16 -15 2 -29 -11 -12 -12
-18 -3 -23 6 -4 14 -2 16 4 2 7 9 12 16 12 20 0 59 38 51 49 -4 7 4 9 22 5 16
-3 36 0 46 8 16 12 16 14 -3 26 -17 10 -21 10 -26 -3z"/>
<path d="M3076 533 c-6 -14 -5 -15 5 -6 7 7 10 15 7 18 -3 3 -9 -2 -12 -12z"/>
<path d="M3145 500 c-3 -5 -1 -10 4 -10 6 0 11 5 11 10 0 6 -2 10 -4 10 -3 0
-8 -4 -11 -10z"/>
<path d="M3015 490 c-3 -5 -1 -10 4 -10 6 0 11 5 11 10 0 6 -2 10 -4 10 -3 0
-8 -4 -11 -10z"/>
<path d="M2695 2850 c-3 -6 1 -7 9 -4 18 7 21 14 7 14 -6 0 -13 -4 -16 -10z"/>
<path d="M2750 2751 c0 -5 5 -13 10 -16 6 -3 10 -2 10 4 0 5 -4 13 -10 16 -5
3 -10 2 -10 -4z"/>
<path d="M48 473 c6 -2 18 -2 25 0 6 3 1 5 -13 5 -14 0 -19 -2 -12 -5z"/>
<path d="M2646 201 c-3 -5 -56 -12 -118 -16 -62 -4 -128 -13 -147 -21 -18 -8
-48 -14 -67 -14 -18 0 -36 -4 -39 -10 -3 -5 -15 -10 -26 -10 -34 0 -99 -24
-99 -37 0 -7 -11 -15 -24 -19 -14 -3 -27 -13 -30 -21 -4 -8 -12 -13 -20 -10
-8 3 -22 -1 -33 -8 -10 -8 -34 -15 -53 -16 -19 0 -46 -5 -60 -9 -14 -4 206 -8
488 -9 433 -1 516 1 528 13 18 19 18 44 -1 62 -8 9 -15 29 -15 45 l0 29 -64 0
c-36 0 -68 5 -71 10 -3 6 -21 10 -38 10 -18 0 -39 5 -47 10 -13 8 -12 10 3 10
10 0 15 5 12 10 -8 12 -72 13 -79 1z"/>
</g>
</svg>
