<?xml version="1.0" standalone="no"?>
<!DOCTYPE svg PUBLIC "-//W3C//DTD SVG 20010904//EN"
 "http://www.w3.org/TR/2001/REC-SVG-20010904/DTD/svg10.dtd">
<svg version="1.0" xmlns="http://www.w3.org/2000/svg"
 width="626.000000pt" height="626.000000pt" viewBox="0 0 626.000000 626.000000"
 preserveAspectRatio="xMidYMid meet">

<g transform="translate(0.000000,626.000000) scale(0.100000,-0.100000)"
fill="#000000" stroke="none">
<path d="M1290 5112 c-33 -16 -113 -108 -125 -143 -3 -9 92 -268 214 -580 282
-728 270 -697 294 -714 18 -13 96 -15 512 -15 l491 0 12 -58 c30 -146 131
-262 275 -317 35 -13 47 -23 47 -38 0 -16 -3 -18 -12 -9 -7 7 -19 12 -27 12
-10 0 -6 -5 9 -13 24 -12 25 -18 28 -106 3 -115 -6 -131 -79 -131 -47 0 -48 0
-80 -57 l-33 -58 -25 58 -26 57 -45 0 c-50 0 -61 5 -78 35 -10 17 -11 17 -12
3 0 -26 40 -48 87 -48 42 0 42 0 69 -60 l27 -61 38 61 c38 59 39 60 84 60 70
0 85 21 85 121 0 72 2 80 17 75 16 -6 16 -6 0 12 -13 14 -17 38 -17 103 0 127
-4 124 183 124 197 0 197 0 197 -122 0 -102 -14 -123 -85 -123 -44 0 -46 -2
-81 -56 l-36 -56 -25 56 -26 56 -46 -2 -46 -1 43 -4 c42 -4 45 -6 69 -59 13
-30 28 -54 31 -54 4 0 22 25 40 55 32 53 35 55 75 55 45 0 88 23 113 59 14 20
23 21 174 21 196 0 190 4 190 -120 0 -106 -9 -120 -79 -120 -46 0 -47 -1 -80
-55 -18 -30 -35 -55 -36 -55 -2 0 -15 25 -29 55 l-25 55 -50 0 c-40 0 -53 4
-65 22 -9 12 -16 18 -16 12 0 -24 38 -44 82 -44 l45 0 27 -62 27 -62 40 62
c39 61 40 62 84 62 72 0 85 20 85 132 0 72 3 89 12 80 7 -7 33 -12 59 -12 l46
0 27 -60 c15 -33 29 -60 31 -60 2 0 20 27 40 60 36 60 37 60 84 60 26 0 52 5
59 12 9 9 12 -6 12 -69 0 -106 18 -133 89 -133 l48 0 27 -62 27 -63 39 63 c39
61 40 62 85 62 72 0 85 20 85 130 0 131 2 130 -199 130 -101 0 -162 -4 -166
-11 -4 -5 -12 -8 -18 -6 -7 2 -16 -6 -22 -17 -8 -17 -22 -22 -63 -24 -51 -3
-53 -4 -89 -58 l-37 -56 -27 54 c-27 53 -27 53 -80 58 -44 4 -56 9 -66 30 -7
14 -13 19 -13 12 0 -9 -5 -10 -19 -2 -11 5 -86 10 -172 10 -128 0 -155 -3
-171 -17 -17 -15 -18 -15 -18 4 0 16 9 22 37 28 140 26 279 172 314 328 l12
57 534 0 c293 0 533 -2 533 -4 0 -2 -9 -23 -20 -47 -11 -24 -19 -51 -19 -59 0
-8 10 10 23 41 59 142 177 251 324 301 37 12 45 17 22 13 -56 -9 -155 -60
-205 -106 -25 -23 -47 -40 -49 -38 -1 2 100 267 226 589 125 322 228 597 228
611 0 18 -19 46 -63 93 -34 36 -68 66 -76 66 -8 0 1 -10 19 -22 18 -13 44 -38
58 -55 l25 -33 -2062 0 c-1133 0 -2061 2 -2061 5 0 12 46 66 69 83 24 16 147
17 1981 22 l1955 5 -1945 3 c-1835 2 -1947 1 -1980 -16z m4060 -127 c7 -8 10
-27 7 -43 -11 -50 -476 -1235 -493 -1253 -17 -18 -70 -19 -1594 -19 -1245 0
-1580 3 -1593 13 -14 10 -507 1253 -507 1278 0 4 7 15 16 23 14 14 217 16
2083 16 1828 0 2070 -2 2081 -15z m-1773 -1418 c-4 -28 -14 -49 -32 -64 -26
-23 -30 -23 -316 -23 l-290 0 -24 25 c-19 18 -25 35 -25 67 l0 43 346 -3 347
-3 -6 -42z m965 -324 c15 -13 18 -31 18 -101 0 -105 -11 -122 -80 -122 -46 0
-47 -1 -83 -57 l-35 -58 -26 58 -25 57 -50 0 c-68 0 -81 20 -81 120 0 121 -1
120 187 120 132 0 159 -3 175 -17z"/>
<path d="M1260 4926 c0 -5 389 -1049 416 -1115 l16 -41 1573 0 1573 0 26 68
c14 37 108 290 210 562 101 272 187 503 191 513 7 16 -92 17 -1999 17 -1103 0
-2006 -2 -2006 -4z m3453 -101 c-2 -16 -72 -248 -156 -515 l-154 -485 -1136
-3 -1136 -2 -49 157 c-28 87 -100 317 -161 511 -62 194 -109 357 -106 362 4 7
522 9 1453 8 l1447 -3 -2 -30z"/>
<path d="M1908 4719 c-6 -4 17 -94 57 -225 134 -438 195 -636 201 -645 3 -5
467 -9 1104 -9 l1098 0 16 48 c8 26 54 175 101 332 47 157 101 333 119 393 19
59 31 109 27 112 -11 6 -2712 1 -2723 -6z m567 -64 c0 -6 -88 -11 -237 -13
-209 -2 -238 0 -238 13 0 13 29 15 238 13 149 -2 237 -7 237 -13z m209 0 c4
-12 -4 -15 -39 -15 -33 0 -45 4 -45 15 0 11 11 15 39 15 25 0 41 -5 45 -15z
m664 -2 c3 -10 -58 -13 -282 -13 -258 0 -309 4 -289 23 3 4 132 6 286 4 214
-1 281 -5 285 -14z m765 2 c1 -6 -110 -11 -315 -13 -175 -1 -318 2 -318 6 0 5
3 12 7 15 11 12 623 3 626 -8z m-1415 -82 c2 -9 -10 -13 -42 -13 -35 0 -46 4
-46 16 0 12 9 14 42 12 23 -2 43 -9 46 -15z m1455 2 c1 -7 -148 -11 -430 -13
-238 -1 -433 2 -433 6 0 5 3 12 7 15 11 12 853 3 856 -8z m-1668 -5 c-4 -6
-72 -10 -170 -10 -98 0 -166 4 -170 10 -4 7 55 10 170 10 115 0 174 -3 170
-10z m2050 0 c-4 -6 -58 -10 -131 -10 -76 0 -124 4 -124 10 0 6 50 10 131 10
84 0 128 -4 124 -10z m-2037 -77 c3 -10 -46 -13 -222 -13 -205 0 -248 5 -229
24 4 3 106 5 227 4 165 -2 220 -6 224 -15z m210 -1 c3 -10 -7 -12 -39 -10 -24
2 -44 9 -47 16 -3 10 7 12 39 10 24 -2 44 -9 47 -16z m1805 3 c2 -10 -1075
-20 -1101 -10 -7 3 -10 9 -7 15 9 14 1104 9 1108 -5z m-2000 -80 c-4 -16 -385
-13 -391 3 -3 10 38 12 195 10 126 -2 197 -7 196 -13z m207 0 c0 -11 -11 -15
-39 -15 -25 0 -41 5 -45 15 -4 12 4 15 39 15 33 0 45 -4 45 -15z m484 6 c3 -5
-17 -11 -44 -13 -57 -3 -73 0 -64 13 7 12 101 12 108 0z m1284 -3 c-4 -10
-137 -13 -623 -13 -486 0 -619 3 -622 13 -4 9 125 12 622 12 497 0 626 -3 623
-12z m-1963 -73 c0 -6 -77 -11 -205 -13 -202 -2 -280 5 -190 19 71 10 395 6
395 -6z m195 0 c0 -10 -11 -15 -35 -15 -24 0 -35 5 -35 15 0 10 11 15 35 15
24 0 35 -5 35 -15z m565 0 c0 -6 -88 -11 -237 -13 -209 -2 -238 0 -238 13 0
13 29 15 238 13 149 -2 237 -7 237 -13z m695 0 c0 -6 -98 -11 -270 -13 -246
-2 -284 1 -263 21 11 12 533 3 533 -8z m-1442 -72 c3 -10 -28 -13 -132 -13
-115 0 -136 2 -136 15 0 13 19 15 132 13 94 -2 133 -7 136 -15z m192 2 c0 -10
-11 -15 -35 -15 -24 0 -35 5 -35 15 0 10 11 15 35 15 24 0 35 -5 35 -15z
m1085 0 c0 -10 -967 -20 -993 -10 -7 3 -10 9 -7 15 9 14 1000 9 1000 -5z m211
-3 c-7 -13 -103 -14 -111 -2 -4 6 15 10 55 10 34 0 59 -4 56 -8z m-1476 -67
c0 -16 -412 -13 -418 3 -3 10 40 12 207 10 132 -2 211 -7 211 -13z m190 0 c0
-10 -11 -15 -35 -15 -24 0 -35 5 -35 15 0 10 11 15 35 15 24 0 35 -5 35 -15z
m368 3 c-3 -9 -41 -14 -133 -16 -133 -3 -161 1 -150 18 10 16 288 13 283 -2z
m1002 -3 c0 -10 -882 -20 -908 -10 -7 3 -10 9 -7 15 9 14 915 9 915 -5z m210
6 c21 -6 18 -8 -24 -14 -50 -7 -71 -2 -61 14 7 10 48 10 85 0z m-1755 -71 c7
-11 1 -11 -200 -10 -77 1 -144 5 -149 10 -7 7 55 10 166 10 107 0 179 -4 183
-10z m185 0 c0 -5 -16 -10 -35 -10 -19 0 -35 5 -35 10 0 6 16 10 35 10 19 0
35 -4 35 -10z m180 0 c0 -5 -22 -10 -50 -10 -27 0 -50 5 -50 10 0 6 23 10 50
10 28 0 50 -4 50 -10z m1070 0 c0 -7 -170 -10 -490 -10 -320 0 -490 3 -490 10
0 7 170 10 490 10 320 0 490 -3 490 -10z m-1430 -65 c0 -16 -332 -13 -338 3
-3 10 32 12 167 10 106 -2 171 -7 171 -13z m190 0 c0 -10 -11 -15 -35 -15 -24
0 -35 5 -35 15 0 10 11 15 35 15 24 0 35 -5 35 -15z m1628 3 c-4 -10 -82 -14
-339 -16 -184 -1 -340 0 -347 3 -7 3 -10 9 -7 15 10 16 698 14 693 -2z m-880
-5 c-32 -2 -86 -2 -120 0 -35 2 -9 3 57 3 66 0 94 -1 63 -3z m-920 -60 c3 -10
-38 -13 -182 -13 -168 0 -208 5 -189 24 4 3 88 5 187 4 133 -2 180 -6 184 -15z
m180 0 c2 -9 -8 -13 -32 -13 -26 0 -36 4 -36 16 0 19 61 16 68 -3z m1607 2 c0
-10 -1197 -20 -1223 -10 -7 3 -10 9 -7 15 9 14 1230 9 1230 -5z m-1309 -4 c-6
-10 -92 -8 -103 2 -3 4 19 7 51 7 31 0 55 -4 52 -9z m-288 -58 c2 -9 -8 -13
-32 -13 -34 0 -52 11 -39 24 11 11 66 2 71 -11z m860 0 c3 -10 -80 -13 -392
-13 -218 0 -396 4 -396 8 0 5 3 12 7 15 4 4 180 6 391 5 298 -2 386 -6 390
-15z m-1041 1 c-8 -8 -236 -8 -244 0 -4 3 51 6 122 6 71 0 126 -3 122 -6z
m1186 -1 c-13 -2 -33 -2 -45 0 -13 2 -3 4 22 4 25 0 35 -2 23 -4z m-1183 -58
c0 -6 -66 -11 -172 -13 -178 -3 -223 1 -213 19 9 13 385 8 385 -6z m180 0 c0
-5 -15 -9 -32 -8 -42 2 -40 1 -33 13 7 12 65 8 65 -5z m1268 3 c-7 -19 -1179
-19 -1185 0 -4 9 119 12 592 12 473 0 596 -3 593 -12z"/>
<path d="M4358 3163 c12 -2 30 -2 40 0 9 3 -1 5 -23 4 -22 0 -30 -2 -17 -4z"/>
<path d="M4358 3123 c12 -2 30 -2 40 0 9 3 -1 5 -23 4 -22 0 -30 -2 -17 -4z"/>
<path d="M5315 3910 c109 -7 153 -18 233 -59 23 -12 42 -19 42 -16 0 9 -94 53
-149 69 -35 10 -87 15 -145 14 l-91 -1 110 -7z"/>
<path d="M5330 3830 c47 -4 99 -10 115 -14 20 -4 17 -1 -10 8 -22 8 -74 14
-115 14 l-75 -1 85 -7z"/>
<path d="M5218 3823 c7 -3 16 -2 19 1 4 3 -2 6 -13 5 -11 0 -14 -3 -6 -6z"/>
<path d="M5135 3798 c-64 -33 -114 -77 -151 -132 -19 -28 -34 -55 -34 -59 0
-5 17 16 38 46 43 64 96 110 167 143 28 13 43 24 35 23 -8 0 -33 -9 -55 -21z"/>
<path d="M5231 3734 c-67 -18 -109 -43 -154 -94 -62 -68 -72 -95 -72 -195 0
-81 3 -95 30 -143 35 -64 71 -96 145 -131 74 -35 201 -37 271 -5 104 48 175
145 185 251 5 59 -14 149 -32 147 -5 -1 -44 -10 -87 -19 -56 -12 -76 -20 -68
-28 31 -31 -3 -84 -68 -106 -42 -14 -111 -15 -111 -1 0 6 7 10 15 10 8 0 24 9
35 20 28 28 12 57 -35 66 -49 9 -51 20 -12 46 l34 22 -28 24 c-43 36 -39 72
13 116 38 33 40 36 17 35 -13 0 -48 -7 -78 -15z"/>
<path d="M5751 3645 c17 -30 37 -77 44 -105 l13 -50 -39 0 c-21 0 -39 4 -39
10 0 17 -42 122 -47 117 -2 -3 3 -31 13 -63 19 -66 15 -156 -11 -217 -8 -21
-14 -41 -11 -45 3 -5 0 -14 -6 -22 -8 -12 -9 -11 -4 5 5 17 3 16 -14 -5 -31
-38 -45 -70 -16 -35 31 35 34 23 6 -20 -37 -56 -113 -125 -169 -153 -50 -24
-67 -27 -161 -27 -95 0 -111 3 -162 28 -74 36 -139 100 -178 173 -17 33 -28
48 -24 34 19 -77 112 -176 203 -218 81 -37 213 -43 294 -12 78 29 147 86 198
164 41 63 43 64 97 71 41 5 57 3 63 -7 7 -10 9 -9 9 4 0 9 6 19 13 22 6 3 1 4
-13 2 -90 -16 -120 -18 -120 -7 0 6 15 12 33 12 30 2 30 2 5 6 -32 5 -31 3
-19 37 6 13 20 26 33 29 22 4 22 4 1 6 -19 1 -21 5 -17 39 9 62 9 62 76 62 79
0 105 -16 111 -68 l4 -37 1 37 c2 29 -4 41 -24 57 -15 12 -37 21 -50 21 -19 0
-25 9 -39 58 -18 60 -64 152 -78 152 -4 0 7 -25 24 -55z"/>
<path d="M4926 3529 c-9 -45 -6 -190 4 -214 8 -19 9 -19 9 -1 1 20 1 20 15 0
10 -12 7 2 -6 41 -16 47 -19 76 -15 133 6 77 3 91 -7 41z"/>
<path d="M4792 3510 c0 -14 2 -19 5 -12 2 6 2 18 0 25 -3 6 -5 1 -5 -13z"/>
<path d="M4783 3400 c0 -47 2 -66 4 -42 2 23 2 61 0 85 -2 23 -4 4 -4 -43z"/>
<path d="M3812 3444 c-12 -8 -22 -23 -22 -32 1 -14 2 -14 12 3 6 11 16 23 22
27 6 4 79 8 161 8 83 0 155 -4 161 -8 6 -4 16 -16 22 -27 10 -17 11 -17 12 -3
0 39 -37 48 -195 48 -120 0 -155 -3 -173 -16z"/>
<path d="M2247 3402 c-10 -10 -17 -23 -17 -28 0 -4 7 2 16 14 15 21 21 22 173
22 195 0 191 2 191 -123 0 -103 -9 -117 -79 -117 -46 0 -47 -1 -80 -55 -18
-30 -35 -55 -37 -55 -2 0 -15 25 -29 55 l-24 55 -50 0 c-44 0 -53 3 -68 28
-45 71 -48 72 -224 72 -201 0 -199 1 -199 -128 0 -80 2 -91 23 -110 17 -16 36
-22 68 -22 44 0 44 -1 68 -55 13 -30 27 -55 32 -55 4 0 23 25 41 55 32 54 34
55 79 55 71 0 89 26 89 124 l0 79 21 -27 c17 -22 29 -26 68 -26 l48 0 27 -62
27 -63 40 63 c39 61 40 62 84 62 72 0 85 20 85 130 0 131 2 130 -198 130 -141
0 -161 -2 -175 -18z m-55 -159 c15 -13 18 -31 18 -101 0 -105 -11 -122 -81
-122 -47 0 -48 -1 -83 -57 l-35 -57 -26 57 -26 57 -46 0 c-72 0 -83 16 -83
118 0 124 -3 122 188 122 131 0 158 -3 174 -17z"/>
<path d="M1990 3189 c0 -5 5 -7 10 -4 6 3 10 8 10 11 0 2 -4 4 -10 4 -5 0 -10
-5 -10 -11z"/>
<path d="M2036 3175 c-9 -14 -12 -25 -7 -25 5 0 12 -17 14 -37 l4 -38 1 38 c2
27 6 37 19 37 15 0 15 1 -2 14 -18 13 -18 13 1 24 16 9 16 11 3 12 -9 0 -24
-11 -33 -25z"/>
<path d="M1993 3125 c0 -27 2 -38 4 -22 2 15 2 37 0 50 -2 12 -4 0 -4 -28z"/>
<path d="M5788 3383 c12 -2 30 -2 40 0 9 3 -1 5 -23 4 -22 0 -30 -2 -17 -4z"/>
<path d="M5865 3370 c27 -12 43 -12 25 0 -8 5 -22 9 -30 9 -10 0 -8 -3 5 -9z"/>
<path d="M3150 3340 c0 -17 -5 -30 -12 -30 -9 0 -9 -3 0 -12 7 -7 12 -25 12
-40 0 -20 5 -28 18 -27 10 0 12 3 5 6 -8 3 -13 26 -13 63 0 37 5 60 13 63 7 3
5 6 -5 6 -13 1 -18 -7 -18 -29z"/>
<path d="M3238 3358 c16 -16 16 -100 0 -116 -9 -9 -8 -12 4 -12 11 0 17 11 20
35 7 58 -2 105 -20 105 -12 0 -13 -3 -4 -12z"/>
<path d="M3980 3360 c0 -5 5 -10 10 -10 6 0 10 5 10 10 0 6 -4 10 -10 10 -5 0
-10 -4 -10 -10z"/>
<path d="M2223 3300 c0 -36 2 -50 4 -32 2 17 2 47 0 65 -2 17 -4 3 -4 -33z"/>
<path d="M2360 3285 c0 -55 3 -75 13 -75 10 0 12 16 9 66 -3 49 -1 69 9 75 10
6 8 9 -8 9 -22 0 -23 -4 -23 -75z"/>
<path d="M2458 3353 c15 -6 17 -123 2 -123 -5 0 -10 -4 -10 -10 0 -5 6 -10 14
-10 11 0 15 18 18 75 3 70 2 75 -17 74 -11 0 -14 -3 -7 -6z"/>
<path d="M5860 3340 c-9 -6 -10 -10 -3 -10 6 0 15 5 18 10 8 12 4 12 -15 0z"/>
<path d="M5875 3323 c-28 -17 -33 -22 -15 -18 14 4 34 16 45 26 25 24 19 23
-30 -8z"/>
<path d="M5785 3320 c-27 -7 -28 -8 -5 -8 14 0 34 3 45 8 25 11 2 11 -40 0z"/>
<path d="M3980 3283 c0 -22 2 -25 10 -13 13 20 13 40 0 40 -5 0 -10 -12 -10
-27z"/>
<path d="M4796 3275 c17 -121 147 -282 275 -343 37 -18 73 -32 80 -31 8 0 -8
9 -35 20 -152 61 -266 188 -312 346 -13 46 -14 46 -8 8z"/>
<path d="M4986 3257 c3 -10 9 -15 12 -12 3 3 0 11 -7 18 -10 9 -11 8 -5 -6z"/>
<path d="M2647 3232 c-10 -10 -17 -23 -17 -28 0 -4 7 1 15 13 8 12 25 24 38
26 21 4 21 4 1 6 -11 0 -28 -7 -37 -17z"/>
<path d="M5766 3186 c-52 -120 -171 -226 -306 -274 -40 -14 -51 -21 -30 -18
66 11 176 74 239 137 55 54 143 200 130 214 -3 2 -17 -24 -33 -59z"/>
<path d="M5054 3181 c31 -34 136 -81 191 -85 28 -2 39 -2 25 1 -67 11 -133 36
-181 69 -34 23 -47 29 -35 15z"/>
<path d="M3403 3125 c0 -38 2 -53 4 -32 2 20 2 52 0 70 -2 17 -4 1 -4 -38z"/>
<path d="M3516 3165 c-9 -14 -12 -25 -7 -25 5 0 12 -17 14 -37 l4 -38 1 38 c1
22 7 37 15 37 8 0 7 4 -3 10 -13 9 -12 12 4 25 16 12 17 15 4 15 -9 0 -23 -11
-32 -25z"/>
<path d="M2770 3120 c0 -35 3 -60 7 -56 7 7 5 108 -3 115 -2 2 -4 -24 -4 -59z"/>
<path d="M3579 3141 c-41 -33 3 -87 51 -61 20 11 26 36 12 56 -14 21 -41 23
-63 5z m51 -25 c0 -28 -24 -41 -40 -21 -16 20 -5 45 20 45 14 0 20 -7 20 -24z"/>
<path d="M3693 3152 c-19 -3 -23 -10 -23 -37 0 -19 5 -37 10 -40 6 -4 10 6 10
24 0 18 7 34 17 40 22 12 15 18 -14 13z"/>
<path d="M2676 3134 c-23 -22 -20 -41 8 -60 19 -12 29 -13 43 -5 16 9 15 10
-9 11 -15 0 -30 5 -33 10 -4 6 8 10 29 10 20 0 36 4 36 9 0 14 -30 41 -45 41
-7 0 -21 -7 -29 -16z m54 -15 c0 -5 -11 -9 -25 -9 -26 0 -34 15 -12 23 16 5
37 -3 37 -14z"/>
<path d="M2814 3135 c-8 -20 4 -35 27 -35 10 0 19 -4 19 -10 0 -5 -12 -10 -27
-10 -24 -1 -25 -2 -11 -11 12 -7 24 -6 38 1 24 13 26 29 5 35 -50 16 -50 16
-36 25 8 4 20 6 28 3 7 -3 13 0 13 6 0 16 -50 13 -56 -4z"/>
<path d="M2906 3134 c-36 -35 1 -82 49 -63 18 7 17 8 -7 8 -38 1 -46 21 -9 21
32 0 41 16 19 38 -16 16 -33 15 -52 -4z m54 -15 c0 -5 -11 -9 -25 -9 -26 0
-34 15 -12 23 16 5 37 -3 37 -14z"/>
<path d="M5458 3120 c-9 -6 -40 -14 -70 -20 l-53 -9 50 4 c46 3 139 34 105 34
-8 0 -22 -4 -32 -9z"/>
<path d="M1406 3087 c-15 -62 -63 -144 -119 -204 -65 -69 -102 -95 -186 -129
-31 -13 -49 -24 -41 -24 26 0 143 60 189 97 24 20 63 63 87 95 42 58 88 160
81 182 -2 6 -7 -2 -11 -17z"/>
<path d="M526 3012 c-16 -27 84 -127 174 -172 137 -70 313 -66 444 10 61 34
151 122 118 113 -15 -3 -28 2 -43 19 l-21 24 -28 -28 c-31 -31 -56 -35 -85
-14 -16 12 -24 9 -62 -20 -56 -43 -102 -51 -166 -31 -53 17 -76 13 -126 -24
-42 -31 -83 -23 -97 19 -5 18 -13 30 -16 26 -17 -16 -67 29 -78 71 -4 15 -8
16 -14 7z"/>
<path d="M477 2942 c37 -68 172 -178 243 -197 14 -3 -4 9 -40 27 -60 31 -166
123 -204 178 -14 21 -14 20 1 -8z"/>
<path d="M5190 2889 c24 -7 215 -11 195 -4 -5 2 -57 5 -115 8 -58 2 -94 0 -80
-4z"/>
<path d="M1858 2852 l-38 -3 0 -615 0 -614 135 0 135 0 0 -177 c-1 -171 -2
-179 -25 -218 -14 -22 -25 -44 -25 -50 0 -5 14 13 31 42 l30 52 -4 278 c-2
183 -8 301 -17 346 -13 63 -13 71 3 99 14 25 15 29 2 18 -13 -11 -15 -8 -15
21 0 69 26 148 64 194 21 25 43 45 51 45 7 0 32 21 54 46 34 38 45 45 65 40
15 -4 28 -1 32 6 5 7 2 9 -8 6 -26 -10 -41 7 -21 24 13 11 25 13 41 7 30 -11
28 -45 -4 -93 -15 -21 -33 -66 -41 -100 -13 -55 -13 -66 3 -119 10 -32 25 -62
35 -67 19 -11 23 7 35 155 7 92 38 194 90 298 44 88 68 104 106 70 10 -9 18
-11 18 -5 0 18 -39 34 -66 28 -13 -4 -31 -20 -39 -36 -20 -40 -25 -38 -25 9 0
40 0 40 43 44 l42 4 -48 1 -48 2 2 -52 c1 -29 -4 -70 -12 -91 -13 -38 -14 -39
-64 -37 -27 2 -91 2 -142 1 l-92 -1 -3 -87 -3 -88 -127 -3 -128 -3 0 -79 0
-80 90 0 c116 0 118 -18 3 -22 l-88 -3 -3 -82 -3 -83 96 0 95 0 0 -90 c0 -53
4 -90 10 -90 6 0 10 -16 10 -35 l0 -35 -130 0 -130 0 0 605 0 605 1438 -2
1437 -3 0 -600 0 -600 -172 -3 -173 -2 0 35 c0 35 0 35 45 35 l45 0 0 80 0 80
-45 0 c-25 0 -45 5 -45 10 0 6 55 10 145 10 l146 0 -3 83 -3 82 -130 2 c-71 1
-131 5 -133 10 -1 4 16 9 38 11 l40 3 0 80 0 79 -45 0 c-25 0 -45 5 -45 10 0
6 11 10 26 10 25 0 25 0 23 80 l-2 80 -83 0 -84 0 0 -31 c0 -38 -24 -35 -28 4
-3 23 -8 27 -35 27 -18 0 -39 5 -47 10 -10 6 -11 10 -2 10 8 0 12 23 12 80 l0
80 -80 0 -80 0 0 -56 c0 -73 -24 -70 -28 4 l-3 52 -80 0 -79 0 0 -78 c0 -47
-5 -83 -12 -90 -7 -7 -34 -12 -60 -12 -47 0 -48 -1 -48 -30 0 -38 -17 -39 -26
-2 -4 15 -14 32 -23 39 -13 10 -1 12 62 13 l77 0 0 80 0 80 -80 0 -80 0 0 -67
c-1 -62 -2 -66 -15 -49 -9 11 -15 41 -15 68 0 46 -1 48 -27 47 -24 -2 -25 -2
-5 -6 14 -3 22 -12 22 -24 0 -25 -5 -24 -38 6 -34 31 -52 31 -76 -1 -15 -21
-17 -36 -12 -76 5 -39 4 -49 -6 -46 -9 3 -13 27 -13 76 0 40 -4 72 -8 72 -4 0
-7 -35 -5 -77 3 -72 5 -78 26 -81 29 -4 54 -63 49 -116 -2 -23 -2 -31 0 -18 6
29 17 28 31 -3 16 -34 16 -33 -15 -38 -28 -4 -28 -4 2 -6 l30 -1 -3 -77 c-3
-49 -9 -83 -18 -93 -12 -12 -14 -3 -14 68 l0 82 -80 0 -80 0 0 -80 0 -80 80 0
c78 0 106 -13 56 -26 -23 -5 -25 -11 -28 -77 -2 -40 0 -76 4 -81 4 -6 8 -14 8
-18 0 -4 -112 -8 -250 -8 -160 0 -250 4 -250 10 0 6 16 10 35 10 l35 0 0 85 0
85 -31 0 c-17 0 -28 4 -24 10 3 6 38 10 76 10 l70 0 -3 78 -3 77 -82 3 -82 3
-3 -83 c-2 -57 1 -86 9 -93 10 -8 10 -20 -2 -59 -8 -27 -15 -80 -15 -118 0
-46 -11 -109 -31 -186 -50 -186 -124 -317 -262 -466 -54 -58 -108 -126 -121
-153 -35 -69 -106 -253 -98 -253 4 0 18 30 31 68 57 161 94 222 197 333 98
105 170 215 226 348 l22 51 306 0 307 0 11 -38 c21 -69 87 -146 222 -257 l130
-108 67 -209 c37 -116 69 -206 70 -201 2 4 -26 98 -61 208 l-63 200 -74 63
c-250 213 -280 253 -300 396 -6 43 -19 106 -30 140 -22 71 -23 88 -7 104 6 6
13 20 14 29 2 10 6 40 10 66 5 33 14 53 31 66 13 11 19 21 13 23 -7 2 -10 27
-8 63 l3 60 38 -73 38 -73 -26 7 -26 6 31 -30 c27 -28 30 -37 30 -94 0 -38 8
-87 20 -121 23 -65 25 -93 8 -100 -8 -3 -6 -6 4 -6 12 -1 20 12 28 42 6 23 14
55 18 72 11 43 -11 101 -115 310 -154 308 -177 405 -96 405 25 0 35 -12 106
-133 29 -48 95 -144 147 -214 l94 -126 38 44 c37 43 49 67 27 53 -9 -5 -11 23
-8 107 3 63 3 102 1 87 -5 -39 -16 -35 -41 15 -12 23 -19 31 -15 17 3 -14 15
-38 25 -53 29 -41 22 -61 -25 -65 -43 -4 -76 18 -76 51 0 11 10 36 22 56 19
29 22 47 19 103 l-3 68 71 0 71 0 0 -40 0 -41 -34 6 c-35 7 -96 -16 -96 -36 0
-5 13 0 29 12 37 27 75 21 140 -20 25 -16 66 -32 91 -36 55 -9 87 -25 119 -58
13 -15 40 -28 63 -32 33 -6 45 -15 69 -53 33 -53 36 -72 12 -73 -16 0 -15 -1
1 -8 11 -4 25 -23 32 -42 13 -34 13 -34 7 14 l-6 47 37 0 36 0 0 -70 0 -70
-35 0 c-29 0 -35 4 -36 23 -1 12 -7 -12 -15 -53 -8 -50 -13 -174 -13 -370 -1
-263 1 -302 18 -355 11 -33 20 -55 20 -49 1 6 -6 33 -14 60 -9 31 -15 91 -15
166 l0 118 178 2 177 3 3 37 3 37 32 -19 c29 -18 49 -20 242 -18 l210 2 -217
6 c-212 5 -217 6 -242 29 l-26 24 0 507 c0 495 0 507 20 528 11 12 31 24 43
27 12 3 286 4 609 3 322 -2 581 0 575 4 -7 4 -275 8 -597 8 -566 0 -586 -1
-617 -20 l-33 -20 0 45 0 45 -1412 2 c-777 2 -1430 2 -1450 0z m1902 -342 l0
-70 -68 0 c-38 0 -71 2 -73 4 -2 2 -2 34 -1 70 l4 66 69 0 69 0 0 -70z m380 0
l0 -70 -52 0 c-74 1 -88 14 -88 84 l0 56 70 0 70 0 0 -70z m-1850 -116 c0 -17
-94 -112 -115 -116 -24 -5 -25 -4 -25 58 l0 64 70 0 c39 0 70 -3 70 -6z m124
-16 c-21 -68 -43 -113 -58 -116 -22 -5 -20 10 5 53 13 21 19 46 17 60 -4 21
-1 25 19 25 21 0 23 -3 17 -22z m1349 -12 c-4 -26 0 -39 16 -55 11 -11 28 -21
36 -21 8 0 15 -7 15 -15 0 -11 -12 -15 -49 -15 -43 0 -52 4 -70 29 -13 18 -21
45 -21 70 l0 41 39 0 c40 0 40 0 34 -34z m447 24 c0 -5 -4 -10 -9 -10 -6 0
-13 5 -16 10 -3 6 1 10 9 10 9 0 16 -4 16 -10z m198 -62 l3 -68 -28 0 c-22 0
-33 8 -47 34 -11 20 -31 39 -47 45 -22 8 -29 16 -29 36 0 26 0 26 73 23 l72
-3 3 -67z m-521 -60 c-3 -7 -5 -2 -5 12 0 14 2 19 5 13 2 -7 2 -19 0 -25z
m-17 2 c0 -11 5 -20 10 -20 6 0 10 -6 10 -12 0 -10 -19 -12 -70 -10 -77 4 -97
22 -25 22 38 0 45 3 45 20 0 11 7 20 15 20 8 0 15 -9 15 -20z m-1504 -102 c-9
-102 -15 -130 -28 -122 -6 4 -6 10 1 17 6 6 11 46 11 89 0 64 -3 78 -16 78 -8
0 -12 5 -9 10 3 6 15 10 27 10 20 0 20 -3 14 -82z m-256 45 c0 -5 -7 -16 -15
-27 -8 -10 -17 -38 -21 -62 l-6 -44 -89 0 -89 0 0 70 0 70 110 0 c61 0 110 -3
110 -7z m230 -69 c0 -70 -12 -83 -30 -30 -14 44 0 113 21 101 5 -4 9 -35 9
-71z m768 4 l3 -66 -71 -4 c-40 -1 -74 -1 -76 1 -2 2 -4 35 -4 73 l0 69 73 -3
72 -3 3 -67z m382 2 l0 -70 -70 0 -70 0 0 70 0 70 70 0 70 0 0 -70z m380 27
c0 -69 -17 -74 -61 -18 -22 27 -39 52 -39 55 0 3 23 6 50 6 l50 0 0 -43z
m-1810 -217 l0 -70 -85 0 -85 0 0 70 0 70 85 0 85 0 0 -70z m960 0 l0 -70 -29
0 c-41 0 -45 12 -31 81 11 52 16 59 36 59 23 0 24 -3 24 -70z m476 44 c-4 -15
-13 -41 -21 -58 -13 -31 -13 -31 -14 27 -1 52 1 57 20 57 18 0 20 -4 15 -26z
m1144 -44 l0 -70 -140 0 -140 0 0 39 c0 21 3 53 6 70 l7 31 133 0 134 0 0 -70z
m-967 18 c8 -18 17 -45 21 -60 6 -25 4 -28 -19 -28 -24 0 -25 3 -25 60 0 33 2
60 5 60 3 0 11 -15 18 -32z m22 -108 c-3 -5 -12 -10 -20 -10 -8 0 -17 5 -20
10 -4 6 5 10 20 10 15 0 24 -4 20 -10z m-210 -72 c28 -96 54 -88 -274 -88
l-289 0 21 70 20 70 253 0 253 0 16 -52z m205 27 c0 -14 -4 -25 -9 -25 -5 0
-11 11 -13 25 -4 17 -1 25 8 25 8 0 14 -11 14 -25z m750 -45 l0 -70 -40 0 -40
0 0 70 0 70 40 0 40 0 0 -70z m-2353 -47 c-2 -16 -4 -5 -4 22 0 28 2 40 4 28
2 -13 2 -35 0 -50z m1392 -39 c24 -5 31 -12 31 -30 0 -19 -7 -24 -44 -29 -55
-9 -542 -2 -551 7 -16 16 7 47 38 51 54 7 493 7 526 1z"/>
<path d="M1882 2698 l3 -83 138 -3 137 -3 0 86 0 85 -140 0 -141 0 3 -82z
m268 2 l0 -70 -130 0 -130 0 0 70 0 70 130 0 130 0 0 -70z"/>
<path d="M2190 2763 c0 -5 34 -7 75 -5 l75 4 0 -71 0 -70 -77 -4 -78 -3 83 -2
82 -2 0 80 0 80 -80 0 c-44 0 -80 -3 -80 -7z"/>
<path d="M2380 2690 l0 -80 80 0 80 0 0 80 0 80 -80 0 -80 0 0 -80z m150 0 l0
-70 -70 0 -70 0 0 70 0 70 70 0 70 0 0 -70z"/>
<path d="M2570 2690 l0 -80 80 0 80 0 0 80 0 80 -80 0 -80 0 0 -80z m150 0 l0
-70 -70 0 -70 0 0 70 0 70 70 0 70 0 0 -70z"/>
<path d="M2760 2690 l0 -80 80 0 80 0 0 80 0 80 -80 0 -80 0 0 -80z m150 0 l0
-70 -70 0 -70 0 0 70 0 70 70 0 70 0 0 -70z"/>
<path d="M2950 2690 l0 -80 85 0 86 0 -3 78 -3 77 -82 3 -83 3 0 -81z m158 -2
l3 -68 -76 0 -75 0 0 70 0 71 73 -3 72 -3 3 -67z"/>
<path d="M3149 2758 c-1 -7 -2 -43 -4 -80 l-2 -68 84 0 83 0 0 80 0 80 -80 0
c-57 0 -80 -4 -81 -12z m151 -68 l0 -70 -70 0 -70 0 0 70 0 70 70 0 70 0 0
-70z"/>
<path d="M3340 2690 l0 -80 80 0 80 0 0 80 0 80 -80 0 -80 0 0 -80z m150 0 l0
-70 -70 0 -70 0 0 70 0 70 70 0 70 0 0 -70z"/>
<path d="M3530 2690 l0 -80 80 0 80 0 0 80 0 80 -80 0 -80 0 0 -80z m150 0 l0
-70 -70 0 -70 0 0 70 0 70 70 0 70 0 0 -70z"/>
<path d="M3720 2690 l0 -80 80 0 80 0 0 80 0 80 -80 0 -80 0 0 -80z m150 0 l0
-70 -70 0 -70 0 0 70 0 70 70 0 70 0 0 -70z"/>
<path d="M3910 2690 l0 -80 88 2 87 2 -82 3 -83 4 0 70 0 71 75 -4 c41 -2 75
0 75 5 0 4 -36 7 -80 7 l-80 0 0 -80z"/>
<path d="M4107 2763 c-4 -3 -7 -39 -7 -80 l0 -73 85 0 85 0 0 80 0 80 -78 0
c-43 0 -82 -3 -85 -7z m153 -73 l0 -70 -75 0 -75 0 0 63 c0 35 3 67 7 70 3 4
37 7 75 7 l68 0 0 -70z"/>
<path d="M4300 2690 l0 -80 80 0 80 0 0 80 0 80 -80 0 -80 0 0 -80z m150 0 l0
-70 -70 0 -70 0 0 70 0 70 70 0 70 0 0 -70z"/>
<path d="M4490 2690 l0 -80 80 0 80 0 0 80 0 80 -80 0 -80 0 0 -80z m150 0 l0
-70 -70 0 -70 0 0 70 0 70 70 0 70 0 0 -70z"/>
<path d="M765 2730 c11 -5 29 -8 40 -8 16 0 15 2 -5 8 -34 11 -60 11 -35 0z"/>
<path d="M915 2720 l-90 -6 85 -1 c47 -1 96 3 110 7 29 9 28 9 -105 0z"/>
<path d="M5329 2676 c6 -7 11 -31 11 -52 -2 -129 -1 -148 15 -163 38 -38 47
52 14 130 -12 27 -19 60 -17 74 4 20 1 25 -15 25 -15 0 -17 -3 -8 -14z m49
-154 c6 -63 -13 -78 -28 -23 -12 45 -4 99 13 82 5 -5 12 -32 15 -59z"/>
<path d="M5202 2654 c-29 -14 -66 -42 -82 -62 -31 -38 -70 -129 -69 -160 0 -9
8 9 19 41 34 106 93 168 188 193 32 9 39 13 21 13 -14 1 -48 -11 -77 -25z"/>
<path d="M5415 2666 c117 -37 168 -97 202 -236 l13 -55 -5 48 c-7 68 -49 150
-100 195 -40 35 -102 63 -136 61 -8 0 4 -6 26 -13z"/>
<path d="M1880 2510 l0 -80 80 0 80 0 0 80 0 80 -80 0 -80 0 0 -80z m150 0 l0
-70 -70 0 -70 0 0 70 0 70 70 0 70 0 0 -70z"/>
<path d="M2070 2510 l0 -80 80 0 80 0 0 80 0 80 -80 0 -80 0 0 -80z m150 0 l0
-70 -70 0 -70 0 0 70 0 70 70 0 70 0 0 -70z"/>
<path d="M2260 2510 l0 -80 79 0 c91 0 91 0 91 96 l0 64 -85 0 -85 0 0 -80z
m152 4 c1 -36 1 -68 -1 -70 -2 -2 -35 -4 -73 -4 l-68 0 0 70 0 70 69 0 69 0 4
-66z"/>
<path d="M2583 2583 c23 -4 27 -9 27 -39 0 -21 -4 -33 -10 -29 -5 3 -10 -3
-10 -13 0 -11 -7 -37 -17 -58 -29 -70 -42 -174 -41 -344 0 -97 4 -153 8 -135
7 27 8 25 10 -20 1 -31 8 6 16 95 9 92 25 187 45 260 48 179 51 185 83 188 17
2 36 -4 48 -15 18 -16 20 -26 14 -98 -25 -319 -27 -423 -9 -585 l6 -55 23 69
c30 87 30 94 0 89 -24 -5 -24 -3 -28 66 l-3 71 43 0 c47 0 48 -3 27 -53 -8
-20 -15 -44 -14 -54 0 -10 8 4 16 31 19 54 64 106 95 106 14 0 18 5 14 16 -3
9 -6 47 -6 85 l0 69 -80 0 c-47 0 -80 4 -80 10 0 6 27 10 60 10 l60 0 0 80 0
80 -55 0 c-30 0 -55 5 -55 10 0 6 9 10 20 10 18 0 20 7 20 80 l0 80 -27 -1
c-24 -2 -25 -2 -5 -6 20 -4 22 -10 22 -74 0 -51 -3 -69 -13 -69 -8 0 -19 11
-25 25 -12 26 -49 41 -82 32 -18 -5 -20 0 -20 38 l0 44 48 4 47 3 -52 2 -53 2
0 -51 c0 -29 -5 -69 -12 -90 -9 -31 -16 -39 -35 -39 -12 0 -23 5 -23 10 0 6 9
10 20 10 18 0 20 7 20 80 l0 80 -32 -1 c-31 -2 -31 -2 -5 -6z m18 -136 c-13
-13 -15 1 -4 30 7 17 8 17 11 -1 2 -10 -1 -23 -7 -29z m26 -59 c-2 -7 -12 -39
-21 -70 -15 -51 -20 -58 -42 -58 -19 0 -24 4 -20 18 2 9 8 37 11 62 9 58 11
60 47 60 20 0 29 -4 25 -12z m243 -58 l0 -70 -55 0 c-62 0 -62 -1 -49 94 l7
46 48 0 49 0 0 -70z m-294 -97 c-2 -10 -8 -55 -11 -100 -4 -46 -11 -83 -16
-83 -5 0 -9 45 -9 100 0 94 1 100 21 100 15 0 19 -5 15 -17z m247 -165 l62 5
-19 -21 c-14 -16 -23 -19 -37 -12 -10 6 -31 10 -48 10 l-31 0 2 88 2 87 3 -81
4 -80 62 4z m87 76 c0 -74 -1 -76 -22 -70 -13 3 -44 6 -70 6 l-48 0 0 70 0 70
70 0 70 0 0 -76z m-350 -118 c0 -3 -4 -8 -10 -11 -5 -3 -10 -1 -10 4 0 6 5 11
10 11 6 0 10 -2 10 -4z m225 -156 c-3 -5 -13 -10 -21 -10 -8 0 -14 5 -14 10 0
6 9 10 21 10 11 0 17 -4 14 -10z m-9 -36 c-3 -9 -6 -20 -6 -25 0 -5 -4 -9 -10
-9 -5 0 -10 11 -10 25 0 16 6 25 16 25 11 0 14 -5 10 -16z"/>
<path d="M2840 2510 l0 -80 80 0 80 0 0 80 c0 44 -3 80 -7 80 -5 0 -7 -34 -5
-75 l4 -75 -71 0 -71 0 0 70 0 69 63 4 62 3 -67 2 -68 2 0 -80z"/>
<path d="M3030 2510 l0 -80 80 0 80 0 0 80 0 80 -67 -2 -68 -2 63 -3 62 -4 0
-69 0 -70 -71 0 -71 0 4 75 c2 41 0 75 -4 75 -5 0 -8 -36 -8 -80z"/>
<path d="M3220 2510 l0 -81 83 3 82 3 3 78 3 77 -38 -2 c-34 -1 -35 -2 -7 -5
l30 -4 -2 -67 -3 -67 -70 -3 -71 -3 0 70 0 70 43 4 42 4 -47 1 -48 2 0 -80z"/>
<path d="M4180 2510 l0 -80 80 0 c44 0 80 3 80 8 0 4 -34 6 -75 4 l-75 -4 0
71 0 71 70 0 69 0 4 -62 3 -63 2 68 2 67 -80 0 -80 0 0 -80z"/>
<path d="M4377 2583 c-2 -5 -5 -41 -6 -80 l-2 -73 140 0 141 0 0 80 0 80 -134
0 c-74 0 -137 -3 -139 -7z m263 -73 l0 -70 -125 0 -125 0 0 70 0 70 125 0 125
0 0 -70z"/>
<path d="M1542 2460 c-64 -54 -75 -60 -116 -60 -73 0 -86 -20 -86 -130 0 -131
-2 -130 198 -130 141 0 161 2 175 18 10 10 17 23 17 28 0 4 -7 -2 -16 -14 -15
-21 -21 -22 -173 -22 -195 0 -191 -2 -191 123 0 103 9 117 78 117 41 0 54 6
97 43 90 77 84 76 78 13 l-6 -56 50 0 c67 0 77 -14 84 -114 l6 -81 1 76 c2 64
-1 81 -19 103 -17 21 -29 26 -66 26 l-46 0 7 60 c4 33 5 60 3 60 -2 0 -35 -27
-75 -60z"/>
<path d="M3508 2513 c6 -2 18 -2 25 0 6 3 1 5 -13 5 -14 0 -19 -2 -12 -5z"/>
<path d="M2537 2496 c-3 -8 -16 -16 -29 -19 -21 -4 -21 -4 -2 -6 21 -1 52 24
42 35 -3 3 -8 -2 -11 -10z"/>
<path d="M5372 2398 l-2 -47 -62 -4 c-40 -2 -24 -3 42 -4 109 -2 172 -12 239
-39 36 -14 40 -19 44 -57 2 -23 4 -4 4 43 0 47 -2 68 -4 48 -2 -21 -5 -38 -6
-38 -1 0 -27 9 -57 21 -30 11 -85 23 -122 26 l-67 6 -4 46 -3 46 -2 -47z"/>
<path d="M2680 2410 l-35 -7 38 -2 c20 0 37 4 37 9 0 6 -1 9 -2 9 -2 -1 -19
-5 -38 -9z"/>
<path d="M1880 2330 l0 -80 115 0 115 0 0 80 0 80 -115 0 -115 0 0 -80z m220
0 l0 -70 -105 0 -105 0 0 70 0 70 105 0 105 0 0 -70z"/>
<path d="M2910 2330 l0 -80 80 0 80 0 0 80 0 80 -80 0 -80 0 0 -80z m150 0 l0
-70 -70 0 -70 0 0 70 0 70 70 0 70 0 0 -70z"/>
<path d="M3100 2330 l0 -80 80 0 80 0 0 80 0 80 -80 0 -80 0 0 -80z m150 0 l0
-70 -70 0 -70 0 0 70 0 70 70 0 70 0 0 -70z"/>
<path d="M3290 2330 l0 -80 88 2 87 2 -82 3 -83 4 0 70 0 70 73 -3 72 -3 6
-65 6 -65 1 57 c3 87 2 88 -89 88 l-79 0 0 -80z"/>
<path d="M4066 2342 c7 -37 14 -89 15 -117 1 -36 3 -41 7 -20 5 35 -17 193
-27 200 -4 2 -2 -26 5 -63z"/>
<path d="M4445 2387 c-4 -13 -5 -48 -3 -78 3 -47 6 -54 26 -57 21 -3 22 -8 22
-93 l0 -89 80 0 80 0 0 170 0 170 -100 0 c-96 0 -100 -1 -105 -23z m195 -147
l0 -160 -70 0 -70 0 0 90 c0 89 0 90 -25 90 -24 0 -25 2 -25 63 0 35 3 67 7
70 3 4 46 7 95 7 l88 0 0 -160z"/>
<path d="M5043 2365 c0 -27 2 -38 4 -22 2 15 2 37 0 50 -2 12 -4 0 -4 -28z"/>
<path d="M4150 2346 c0 -2 13 -6 29 -8 17 -2 28 -1 25 4 -5 8 -54 12 -54 4z"/>
<path d="M5203 2333 c9 -2 23 -2 30 0 6 3 -1 5 -18 5 -16 0 -22 -2 -12 -5z"/>
<path d="M1490 2291 c0 -23 2 -41 4 -41 8 0 12 71 4 76 -4 3 -8 -13 -8 -35z"/>
<path d="M5093 2313 c-29 -9 -53 -20 -53 -25 0 -5 6 -6 12 -2 7 5 40 16 73 25
33 10 51 18 40 17 -11 0 -44 -7 -72 -15z"/>
<path d="M4240 2277 c4 -41 5 -41 8 -8 2 18 0 37 -5 42 -5 5 -6 -11 -3 -34z"/>
<path d="M1530 2290 c0 -5 16 -10 35 -10 19 0 35 5 35 10 0 6 -16 10 -35 10
-19 0 -35 -4 -35 -10z"/>
<path d="M3613 2283 c-10 -10 -13 -14 -7 -10 7 5 25 12 41 17 23 7 24 8 7 9
-12 1 -30 -7 -41 -16z"/>
<path d="M5508 2207 c4 -120 9 -135 10 -32 1 50 -2 95 -6 102 -4 6 -6 -26 -4
-70z"/>
<path d="M2410 2276 c0 -2 13 -6 29 -8 17 -2 28 -1 25 4 -5 8 -54 12 -54 4z"/>
<path d="M1530 2252 c0 -4 16 -6 35 -4 19 2 35 6 35 8 0 2 -16 4 -35 4 -19 0
-35 -4 -35 -8z"/>
<path d="M5043 2205 c0 -27 2 -38 4 -22 2 15 2 37 0 50 -2 12 -4 0 -4 -28z"/>
<path d="M1490 2230 c0 -5 5 -10 11 -10 5 0 7 5 4 10 -3 6 -8 10 -11 10 -2 0
-4 -4 -4 -10z"/>
<path d="M3150 2223 c0 -5 33 -8 72 -8 l73 0 3 -67 3 -68 -71 0 -70 0 0 60 c0
33 -3 60 -7 60 -5 0 -6 -29 -5 -65 l4 -65 79 0 79 0 0 80 0 80 -80 0 c-44 0
-80 -3 -80 -7z"/>
<path d="M2172 2200 c0 -14 2 -19 5 -12 2 6 2 18 0 25 -3 6 -5 1 -5 -13z"/>
<path d="M2610 2213 c0 -5 16 -8 35 -9 18 0 32 3 29 8 -6 10 -64 11 -64 1z"/>
<path d="M4238 2141 c-7 -87 -3 -111 15 -111 8 0 8 3 0 11 -8 8 -8 22 3 52 8
22 12 42 9 45 -3 3 -6 -1 -7 -9 -1 -8 -4 11 -7 41 l-6 55 -7 -84z"/>
<path d="M5622 2170 c0 -19 2 -27 5 -17 2 9 2 25 0 35 -3 9 -5 1 -5 -18z"/>
<path d="M2155 2127 c-4 -23 -5 -58 -2 -77 4 -34 4 -34 5 6 2 40 19 65 52 77
12 4 12 6 -2 6 -9 1 -20 -3 -23 -9 -12 -19 -22 -10 -17 15 2 14 2 25 -1 25 -3
0 -9 -19 -12 -43z"/>
<path d="M5051 2133 c-2 -44 50 -183 91 -243 64 -97 158 -146 231 -122 30 10
30 10 -11 5 -123 -16 -239 106 -291 307 -11 41 -20 65 -20 53z"/>
<path d="M4090 2123 c0 -12 5 -25 11 -28 16 -11 17 -2 2 25 -12 24 -13 24 -13
3z"/>
<path d="M5612 2110 c0 -14 2 -19 5 -12 2 6 2 18 0 25 -3 6 -5 1 -5 -13z"/>
<path d="M4075 2062 c4 -13 11 -45 16 -70 l8 -47 -4 53 c-2 28 -9 60 -15 70
-9 14 -10 13 -5 -6z"/>
<path d="M5581 2013 c-30 -86 -81 -164 -134 -203 -22 -16 -36 -30 -31 -30 19
0 92 70 123 118 30 47 74 158 69 174 -2 4 -14 -22 -27 -59z"/>
<path d="M2902 2027 c-26 -28 -29 -62 -4 -72 14 -5 15 -4 5 6 -20 20 -15 46
13 68 15 12 22 21 17 21 -5 0 -19 -10 -31 -23z"/>
<path d="M3064 2036 c-3 -7 -4 -44 -2 -82 l3 -69 80 0 80 0 0 80 0 79 -78 3
c-57 2 -79 -1 -83 -11z m154 -73 l-3 -68 -70 0 -70 0 -3 68 -3 67 76 0 76 0
-3 -67z"/>
<path d="M3265 2040 c-4 -6 20 -10 69 -10 l76 0 0 -71 0 -71 -75 4 c-41 2 -75
-1 -75 -5 0 -4 35 -7 78 -5 l77 3 0 80 0 80 -72 3 c-42 2 -74 -1 -78 -8z"/>
<path d="M3578 2020 c-3 -16 -1 -30 4 -30 4 0 8 14 8 30 0 17 -2 30 -4 30 -2
0 -6 -13 -8 -30z"/>
<path d="M5474 1975 c-9 -26 -30 -65 -46 -87 -16 -22 -27 -42 -25 -44 2 -3 18
17 35 43 33 52 65 124 58 130 -2 2 -12 -17 -22 -42z"/>
<path d="M2161 2000 c0 -8 4 -34 9 -58 8 -33 7 -50 -5 -79 -8 -20 -13 -38 -11
-40 2 -2 11 15 20 39 14 38 14 50 2 98 -8 30 -14 48 -15 40z"/>
<path d="M2351 1983 c0 -12 -4 -30 -7 -40 -5 -17 -5 -17 6 0 6 10 9 28 7 40
-4 22 -4 22 -6 0z"/>
<path d="M3538 1993 c7 -3 16 -2 19 1 4 3 -2 6 -13 5 -11 0 -14 -3 -6 -6z"/>
<path d="M4209 1972 c-3 -20 -2 -29 4 -23 5 5 7 19 5 32 -3 20 -5 19 -9 -9z"/>
<path d="M3846 1935 c9 -14 18 -25 20 -25 2 0 -2 11 -8 25 -6 14 -15 25 -20
25 -5 0 -1 -11 8 -25z"/>
<path d="M4305 1949 c-4 -6 -5 -12 -2 -15 2 -3 7 2 10 11 7 17 1 20 -8 4z"/>
<path d="M2416 1875 c-3 -9 -5 -35 -5 -58 2 -40 2 -39 9 13 7 59 6 71 -4 45z"/>
<path d="M2232 1845 c0 -16 2 -22 5 -12 2 9 2 23 0 30 -3 6 -5 -1 -5 -18z"/>
<path d="M1880 1780 l0 -80 80 0 80 0 0 80 0 80 -80 0 -80 0 0 -80z m150 0 l0
-70 -70 0 -70 0 0 70 0 70 70 0 70 0 0 -70z"/>
<path d="M4490 1780 l0 -80 80 0 80 0 0 80 0 80 -80 0 -80 0 0 -80z m150 0 l0
-70 -70 0 -70 0 0 70 0 70 70 0 70 0 0 -70z"/>
<path d="M2631 1824 c0 -11 3 -14 6 -6 3 7 2 16 -1 19 -3 4 -6 -2 -5 -13z"/>
<path d="M2611 1773 c-10 -26 -10 -27 4 -9 8 11 15 23 15 28 0 15 -7 8 -19
-19z"/>
<path d="M2120 1741 c0 -6 4 -13 10 -16 6 -3 7 1 4 9 -7 18 -14 21 -14 7z"/>
<path d="M3672 1700 c0 -19 2 -27 5 -17 2 9 2 25 0 35 -3 9 -5 1 -5 -18z"/>
<path d="M2753 1675 c0 -22 2 -30 4 -17 2 12 2 30 0 40 -3 9 -5 -1 -4 -23z"/>
<path d="M2741 1614 c0 -11 3 -14 6 -6 3 7 2 16 -1 19 -3 4 -6 -2 -5 -13z"/>
<path d="M3205 1526 c-40 -48 -52 -55 -88 -59 l-42 -4 42 -1 c38 -2 45 2 86
48 25 28 48 50 51 50 3 0 8 -22 12 -50 l7 -50 44 0 c33 0 50 -6 68 -25 24 -23
33 -23 17 1 -13 19 -50 34 -85 34 -34 0 -35 1 -42 50 -4 27 -11 52 -15 55 -5
3 -29 -19 -55 -49z"/>
<path d="M3037 1442 c-13 -14 -17 -39 -17 -110 0 -86 1 -92 26 -111 24 -19 40
-21 168 -21 147 0 188 9 194 43 3 14 -2 12 -22 -8 -25 -24 -28 -25 -168 -25
-189 0 -188 -1 -188 125 0 86 2 95 22 109 12 9 18 16 12 16 -6 0 -18 -8 -27
-18z"/>
<path d="M3230 1394 c-6 -16 -18 -48 -27 -72 -9 -23 -14 -45 -11 -48 3 -2 17
28 32 67 15 39 24 74 22 77 -3 3 -10 -8 -16 -24z"/>
<path d="M3413 1335 c0 -38 2 -53 4 -32 2 20 2 52 0 70 -2 17 -4 1 -4 -38z"/>
<path d="M3133 1360 c-13 -5 -23 -13 -23 -18 0 -12 59 -37 67 -29 3 3 -6 9
-21 13 -33 8 -33 17 2 31 15 6 20 11 12 11 -8 1 -25 -3 -37 -8z"/>
<path d="M3284 1355 l30 -12 -30 -16 c-34 -19 -29 -21 15 -6 17 6 31 14 31 18
0 9 -46 31 -63 30 -7 0 1 -6 17 -14z"/>
<path d="M4391 1250 c0 -8 4 -24 9 -35 5 -13 9 -14 9 -5 0 8 -4 24 -9 35 -5
13 -9 14 -9 5z"/>
<path d="M4411 1180 c0 -8 4 -24 9 -35 5 -13 9 -14 9 -5 0 8 -4 24 -9 35 -5
13 -9 14 -9 5z"/>
<path d="M2012 1093 c-13 -36 -21 -67 -19 -69 2 -2 14 26 26 62 13 35 22 67
20 69 -3 2 -15 -26 -27 -62z"/>
<path d="M4436 1090 c4 -19 10 -42 15 -50 11 -18 1 34 -13 65 -5 13 -6 9 -2
-15z"/>
</g>
</svg>
